<?xml version="1.0" encoding="UTF-8" standalone="no"?>
<!DOCTYPE svg PUBLIC "-//W3C//DTD SVG 1.1//EN"
 "http://www.w3.org/Graphics/SVG/1.1/DTD/svg11.dtd">
<!-- Generated by graphviz version 2.42.3 (20191010.1750)
 -->
<!-- Title: snakemake_dag Pages: 1 -->
<svg width="379pt" height="764pt"
 viewBox="0.00 0.00 378.50 764.00" xmlns="http://www.w3.org/2000/svg" xmlns:xlink="http://www.w3.org/1999/xlink">
<g id="graph0" class="graph" transform="scale(1 1) rotate(0) translate(4 760)">
<title>snakemake_dag</title>
<polygon fill="white" stroke="transparent" points="-4,4 -4,-760 374.5,-760 374.5,4 -4,4"/>
<!-- 0 -->
<g id="node1" class="node">
<title>0</title>
<path fill="none" stroke="#56b1d8" stroke-width="2" d="M238.5,-36C238.5,-36 208.5,-36 208.5,-36 202.5,-36 196.5,-30 196.5,-24 196.5,-24 196.5,-12 196.5,-12 196.5,-6 202.5,0 208.5,0 208.5,0 238.5,0 238.5,0 244.5,0 250.5,-6 250.5,-12 250.5,-12 250.5,-24 250.5,-24 250.5,-30 244.5,-36 238.5,-36"/>
<text text-anchor="middle" x="223.5" y="-15.5" font-family="sans" font-size="10.00">service</text>
</g>
<!-- 1 -->
<g id="node2" class="node">
<title>1</title>
<path fill="none" stroke="#566bd8" stroke-width="2" d="M243,-108C243,-108 204,-108 204,-108 198,-108 192,-102 192,-96 192,-96 192,-84 192,-84 192,-78 198,-72 204,-72 204,-72 243,-72 243,-72 249,-72 255,-78 255,-84 255,-84 255,-96 255,-96 255,-102 249,-108 243,-108"/>
<text text-anchor="middle" x="223.5" y="-87.5" font-family="sans" font-size="10.00">summary</text>
</g>
<!-- 1&#45;&gt;0 -->
<g id="edge1" class="edge">
<title>1&#45;&gt;0</title>
<path fill="none" stroke="grey" stroke-width="2" d="M223.5,-71.7C223.5,-63.98 223.5,-54.71 223.5,-46.11"/>
<polygon fill="grey" stroke="grey" stroke-width="2" points="227,-46.1 223.5,-36.1 220,-46.1 227,-46.1"/>
</g>
<!-- 2 -->
<g id="node3" class="node">
<title>2</title>
<path fill="none" stroke="#ced856" stroke-width="2" d="M77,-468C77,-468 12,-468 12,-468 6,-468 0,-462 0,-456 0,-456 0,-444 0,-444 0,-438 6,-432 12,-432 12,-432 77,-432 77,-432 83,-432 89,-438 89,-444 89,-444 89,-456 89,-456 89,-462 83,-468 77,-468"/>
<text text-anchor="middle" x="44.5" y="-447.5" font-family="sans" font-size="10.00">generate_stats</text>
</g>
<!-- 2&#45;&gt;1 -->
<g id="edge2" class="edge">
<title>2&#45;&gt;1</title>
<path fill="none" stroke="grey" stroke-width="2" d="M44.5,-431.95C44.5,-405.29 44.5,-352.11 44.5,-307 44.5,-307 44.5,-307 44.5,-233 44.5,-162.98 129.6,-122.01 182.45,-103.32"/>
<polygon fill="grey" stroke="grey" stroke-width="2" points="183.58,-106.63 191.91,-100.08 181.32,-100 183.58,-106.63"/>
</g>
<!-- 3 -->
<g id="node4" class="node">
<title>3</title>
<path fill="none" stroke="#d8b456" stroke-width="2" d="M202.5,-612C202.5,-612 128.5,-612 128.5,-612 122.5,-612 116.5,-606 116.5,-600 116.5,-600 116.5,-588 116.5,-588 116.5,-582 122.5,-576 128.5,-576 128.5,-576 202.5,-576 202.5,-576 208.5,-576 214.5,-582 214.5,-588 214.5,-588 214.5,-600 214.5,-600 214.5,-606 208.5,-612 202.5,-612"/>
<text text-anchor="middle" x="165.5" y="-591.5" font-family="sans" font-size="10.00">mark_duplicates</text>
</g>
<!-- 3&#45;&gt;2 -->
<g id="edge6" class="edge">
<title>3&#45;&gt;2</title>
<path fill="none" stroke="grey" stroke-width="2" d="M131.18,-575.95C115.68,-566.93 98.08,-554.67 85.5,-540 69.92,-521.83 59.08,-496.74 52.48,-477.84"/>
<polygon fill="grey" stroke="grey" stroke-width="2" points="55.79,-476.71 49.32,-468.32 49.15,-478.91 55.79,-476.71"/>
</g>
<!-- 8 -->
<g id="node9" class="node">
<title>8</title>
<path fill="none" stroke="#70d856" stroke-width="2" d="M224,-540C224,-540 107,-540 107,-540 101,-540 95,-534 95,-528 95,-528 95,-516 95,-516 95,-510 101,-504 107,-504 107,-504 224,-504 224,-504 230,-504 236,-510 236,-516 236,-516 236,-528 236,-528 236,-534 230,-540 224,-540"/>
<text text-anchor="middle" x="165.5" y="-519.5" font-family="sans" font-size="10.00">QDNAseq_binReadCounts</text>
</g>
<!-- 3&#45;&gt;8 -->
<g id="edge14" class="edge">
<title>3&#45;&gt;8</title>
<path fill="none" stroke="grey" stroke-width="2" d="M165.5,-575.7C165.5,-567.98 165.5,-558.71 165.5,-550.11"/>
<polygon fill="grey" stroke="grey" stroke-width="2" points="169,-550.1 165.5,-540.1 162,-550.1 169,-550.1"/>
</g>
<!-- 13 -->
<g id="node14" class="node">
<title>13</title>
<path fill="none" stroke="#56c9d8" stroke-width="2" d="M297.5,-396C297.5,-396 267.5,-396 267.5,-396 261.5,-396 255.5,-390 255.5,-384 255.5,-384 255.5,-372 255.5,-372 255.5,-366 261.5,-360 267.5,-360 267.5,-360 297.5,-360 297.5,-360 303.5,-360 309.5,-366 309.5,-372 309.5,-372 309.5,-384 309.5,-384 309.5,-390 303.5,-396 297.5,-396"/>
<text text-anchor="middle" x="282.5" y="-375.5" font-family="sans" font-size="10.00">qcbam</text>
</g>
<!-- 3&#45;&gt;13 -->
<g id="edge18" class="edge">
<title>3&#45;&gt;13</title>
<path fill="none" stroke="grey" stroke-width="2" d="M202.37,-575.99C217.53,-567.25 233.97,-555.21 244.5,-540 272.69,-499.31 280.14,-440.44 282.01,-406.3"/>
<polygon fill="grey" stroke="grey" stroke-width="2" points="285.51,-406.28 282.44,-396.15 278.52,-405.99 285.51,-406.28"/>
</g>
<!-- 4 -->
<g id="node5" class="node">
<title>4</title>
<path fill="none" stroke="#d86e56" stroke-width="2" d="M196.5,-684C196.5,-684 134.5,-684 134.5,-684 128.5,-684 122.5,-678 122.5,-672 122.5,-672 122.5,-660 122.5,-660 122.5,-654 128.5,-648 134.5,-648 134.5,-648 196.5,-648 196.5,-648 202.5,-648 208.5,-654 208.5,-660 208.5,-660 208.5,-672 208.5,-672 208.5,-678 202.5,-684 196.5,-684"/>
<text text-anchor="middle" x="165.5" y="-663.5" font-family="sans" font-size="10.00">samtools_sort</text>
</g>
<!-- 4&#45;&gt;3 -->
<g id="edge7" class="edge">
<title>4&#45;&gt;3</title>
<path fill="none" stroke="grey" stroke-width="2" d="M165.5,-647.7C165.5,-639.98 165.5,-630.71 165.5,-622.11"/>
<polygon fill="grey" stroke="grey" stroke-width="2" points="169,-622.1 165.5,-612.1 162,-622.1 169,-622.1"/>
</g>
<!-- 5 -->
<g id="node6" class="node">
<title>5</title>
<path fill="none" stroke="#d8cb56" stroke-width="2" d="M182,-756C182,-756 149,-756 149,-756 143,-756 137,-750 137,-744 137,-744 137,-732 137,-732 137,-726 143,-720 149,-720 149,-720 182,-720 182,-720 188,-720 194,-726 194,-732 194,-732 194,-744 194,-744 194,-750 188,-756 182,-756"/>
<text text-anchor="middle" x="165.5" y="-735.5" font-family="sans" font-size="10.00">bwa_aln</text>
</g>
<!-- 5&#45;&gt;4 -->
<g id="edge8" class="edge">
<title>5&#45;&gt;4</title>
<path fill="none" stroke="grey" stroke-width="2" d="M165.5,-719.7C165.5,-711.98 165.5,-702.71 165.5,-694.11"/>
<polygon fill="grey" stroke="grey" stroke-width="2" points="169,-694.1 165.5,-684.1 162,-694.1 169,-694.1"/>
</g>
<!-- 6 -->
<g id="node7" class="node">
<title>6</title>
<path fill="none" stroke="#56d8b1" stroke-width="2" d="M175,-180C175,-180 142,-180 142,-180 136,-180 130,-174 130,-168 130,-168 130,-156 130,-156 130,-150 136,-144 142,-144 142,-144 175,-144 175,-144 181,-144 187,-150 187,-156 187,-156 187,-168 187,-168 187,-174 181,-180 175,-180"/>
<text text-anchor="middle" x="158.5" y="-159.5" font-family="sans" font-size="10.00">lightBox</text>
</g>
<!-- 6&#45;&gt;1 -->
<g id="edge3" class="edge">
<title>6&#45;&gt;1</title>
<path fill="none" stroke="grey" stroke-width="2" d="M174.57,-143.7C182.44,-135.22 192.06,-124.86 200.67,-115.58"/>
<polygon fill="grey" stroke="grey" stroke-width="2" points="203.38,-117.81 207.62,-108.1 198.25,-113.05 203.38,-117.81"/>
</g>
<!-- 7 -->
<g id="node8" class="node">
<title>7</title>
<path fill="none" stroke="#d88556" stroke-width="2" d="M212,-468C212,-468 119,-468 119,-468 113,-468 107,-462 107,-456 107,-456 107,-444 107,-444 107,-438 113,-432 119,-432 119,-432 212,-432 212,-432 218,-432 224,-438 224,-444 224,-444 224,-456 224,-456 224,-462 218,-468 212,-468"/>
<text text-anchor="middle" x="165.5" y="-447.5" font-family="sans" font-size="10.00">QDNAseq_normalize</text>
</g>
<!-- 7&#45;&gt;6 -->
<g id="edge12" class="edge">
<title>7&#45;&gt;6</title>
<path fill="none" stroke="grey" stroke-width="2" d="M149.46,-431.85C141.49,-422.12 132.67,-409.27 128.5,-396 119.26,-366.62 103.73,-338.84 133.5,-216 135.73,-206.8 139.64,-197.3 143.71,-188.91"/>
<polygon fill="grey" stroke="grey" stroke-width="2" points="146.83,-190.5 148.3,-180.01 140.61,-187.29 146.83,-190.5"/>
</g>
<!-- 10 -->
<g id="node11" class="node">
<title>10</title>
<path fill="none" stroke="#5682d8" stroke-width="2" d="M181.5,-396C181.5,-396 149.5,-396 149.5,-396 143.5,-396 137.5,-390 137.5,-384 137.5,-384 137.5,-372 137.5,-372 137.5,-366 143.5,-360 149.5,-360 149.5,-360 181.5,-360 181.5,-360 187.5,-360 193.5,-366 193.5,-372 193.5,-372 193.5,-384 193.5,-384 193.5,-390 187.5,-396 181.5,-396"/>
<text text-anchor="middle" x="165.5" y="-375.5" font-family="sans" font-size="10.00">deWave</text>
</g>
<!-- 7&#45;&gt;10 -->
<g id="edge16" class="edge">
<title>7&#45;&gt;10</title>
<path fill="none" stroke="grey" stroke-width="2" d="M165.5,-431.7C165.5,-423.98 165.5,-414.71 165.5,-406.11"/>
<polygon fill="grey" stroke="grey" stroke-width="2" points="169,-406.1 165.5,-396.1 162,-406.1 169,-406.1"/>
</g>
<!-- 8&#45;&gt;7 -->
<g id="edge13" class="edge">
<title>8&#45;&gt;7</title>
<path fill="none" stroke="grey" stroke-width="2" d="M165.5,-503.7C165.5,-495.98 165.5,-486.71 165.5,-478.11"/>
<polygon fill="grey" stroke="grey" stroke-width="2" points="169,-478.1 165.5,-468.1 162,-478.1 169,-478.1"/>
</g>
<!-- 9 -->
<g id="node10" class="node">
<title>9</title>
<path fill="none" stroke="#56d86b" stroke-width="2" d="M248,-324C248,-324 161,-324 161,-324 155,-324 149,-318 149,-312 149,-312 149,-300 149,-300 149,-294 155,-288 161,-288 161,-288 248,-288 248,-288 254,-288 260,-294 260,-300 260,-300 260,-312 260,-312 260,-318 254,-324 248,-324"/>
<text text-anchor="middle" x="204.5" y="-303.5" font-family="sans" font-size="10.00">QDNAseq_segment</text>
</g>
<!-- 9&#45;&gt;6 -->
<g id="edge9" class="edge">
<title>9&#45;&gt;6</title>
<path fill="none" stroke="grey" stroke-width="2" d="M194.31,-287.84C188.67,-277.71 181.92,-264.46 177.5,-252 170.34,-231.8 165.43,-208.03 162.4,-190.13"/>
<polygon fill="grey" stroke="grey" stroke-width="2" points="165.83,-189.41 160.79,-180.09 158.92,-190.52 165.83,-189.41"/>
</g>
<!-- 11 -->
<g id="node12" class="node">
<title>11</title>
<path fill="none" stroke="#9fd856" stroke-width="2" d="M234.5,-252C234.5,-252 198.5,-252 198.5,-252 192.5,-252 186.5,-246 186.5,-240 186.5,-240 186.5,-228 186.5,-228 186.5,-222 192.5,-216 198.5,-216 198.5,-216 234.5,-216 234.5,-216 240.5,-216 246.5,-222 246.5,-228 246.5,-228 246.5,-240 246.5,-240 246.5,-246 240.5,-252 234.5,-252"/>
<text text-anchor="middle" x="216.5" y="-231.5" font-family="sans" font-size="10.00">CNA_call</text>
</g>
<!-- 9&#45;&gt;11 -->
<g id="edge17" class="edge">
<title>9&#45;&gt;11</title>
<path fill="none" stroke="grey" stroke-width="2" d="M207.47,-287.7C208.79,-279.98 210.38,-270.71 211.85,-262.11"/>
<polygon fill="grey" stroke="grey" stroke-width="2" points="215.33,-262.55 213.57,-252.1 208.43,-261.37 215.33,-262.55"/>
</g>
<!-- 10&#45;&gt;6 -->
<g id="edge10" class="edge">
<title>10&#45;&gt;6</title>
<path fill="none" stroke="grey" stroke-width="2" d="M154.45,-359.61C148.76,-349.62 142.42,-336.58 139.5,-324 128.71,-277.49 140.56,-221.92 149.79,-189.73"/>
<polygon fill="grey" stroke="grey" stroke-width="2" points="153.14,-190.72 152.66,-180.13 146.44,-188.71 153.14,-190.72"/>
</g>
<!-- 10&#45;&gt;9 -->
<g id="edge15" class="edge">
<title>10&#45;&gt;9</title>
<path fill="none" stroke="grey" stroke-width="2" d="M175.14,-359.7C179.63,-351.64 185.06,-341.89 190.02,-332.98"/>
<polygon fill="grey" stroke="grey" stroke-width="2" points="193.16,-334.54 194.97,-324.1 187.05,-331.14 193.16,-334.54"/>
</g>
<!-- 11&#45;&gt;6 -->
<g id="edge11" class="edge">
<title>11&#45;&gt;6</title>
<path fill="none" stroke="grey" stroke-width="2" d="M202.16,-215.7C195.21,-207.3 186.73,-197.07 179.1,-187.86"/>
<polygon fill="grey" stroke="grey" stroke-width="2" points="181.75,-185.57 172.67,-180.1 176.36,-190.04 181.75,-185.57"/>
</g>
<!-- 12 -->
<g id="node13" class="node">
<title>12</title>
<path fill="none" stroke="#d89c56" stroke-width="2" d="M358.5,-180C358.5,-180 328.5,-180 328.5,-180 322.5,-180 316.5,-174 316.5,-168 316.5,-168 316.5,-156 316.5,-156 316.5,-150 322.5,-144 328.5,-144 328.5,-144 358.5,-144 358.5,-144 364.5,-144 370.5,-150 370.5,-156 370.5,-156 370.5,-168 370.5,-168 370.5,-174 364.5,-180 358.5,-180"/>
<text text-anchor="middle" x="343.5" y="-159.5" font-family="sans" font-size="10.00">qcfastq</text>
</g>
<!-- 12&#45;&gt;1 -->
<g id="edge5" class="edge">
<title>12&#45;&gt;1</title>
<path fill="none" stroke="grey" stroke-width="2" d="M316.27,-145.12C300.14,-135.7 279.44,-123.63 261.69,-113.28"/>
<polygon fill="grey" stroke="grey" stroke-width="2" points="263.12,-110.06 252.72,-108.04 259.59,-116.11 263.12,-110.06"/>
</g>
<!-- 13&#45;&gt;1 -->
<g id="edge4" class="edge">
<title>13&#45;&gt;1</title>
<path fill="none" stroke="grey" stroke-width="2" d="M279.93,-359.92C277.21,-341.99 272.72,-312.99 268.5,-288 263.08,-255.94 262.43,-247.77 255.5,-216 248.11,-182.1 237.95,-143.47 231.08,-118.24"/>
<polygon fill="grey" stroke="grey" stroke-width="2" points="234.37,-117.01 228.35,-108.3 227.62,-118.87 234.37,-117.01"/>
</g>
</g>
</svg>
