<?xml version="1.0" encoding="UTF-8" standalone="no"?>
<!DOCTYPE svg PUBLIC "-//W3C//DTD SVG 1.1//EN"
 "http://www.w3.org/Graphics/SVG/1.1/DTD/svg11.dtd">
<!-- Generated by graphviz version 2.42.3 (20191010.1750)
 -->
<!-- Title: snakemake_dag Pages: 1 -->
<svg width="633pt" height="836pt"
 viewBox="0.00 0.00 633.00 836.00" xmlns="http://www.w3.org/2000/svg" xmlns:xlink="http://www.w3.org/1999/xlink">
<g id="graph0" class="graph" transform="scale(1 1) rotate(0) translate(4 832)">
<title>snakemake_dag</title>
<polygon fill="white" stroke="transparent" points="-4,4 -4,-832 629,-832 629,4 -4,4"/>
<!-- 0 -->
<g id="node1" class="node">
<title>0</title>
<path fill="none" stroke="#ced856" stroke-width="2" d="M393.5,-36C393.5,-36 358.5,-36 358.5,-36 352.5,-36 346.5,-30 346.5,-24 346.5,-24 346.5,-12 346.5,-12 346.5,-6 352.5,0 358.5,0 358.5,0 393.5,0 393.5,0 399.5,0 405.5,-6 405.5,-12 405.5,-12 405.5,-24 405.5,-24 405.5,-30 399.5,-36 393.5,-36"/>
<text text-anchor="middle" x="376" y="-15.5" font-family="sans" font-size="10.00">research</text>
</g>
<!-- 1 -->
<g id="node2" class="node">
<title>1</title>
<path fill="none" stroke="#b6d856" stroke-width="2" d="M485.5,-108C485.5,-108 446.5,-108 446.5,-108 440.5,-108 434.5,-102 434.5,-96 434.5,-96 434.5,-84 434.5,-84 434.5,-78 440.5,-72 446.5,-72 446.5,-72 485.5,-72 485.5,-72 491.5,-72 497.5,-78 497.5,-84 497.5,-84 497.5,-96 497.5,-96 497.5,-102 491.5,-108 485.5,-108"/>
<text text-anchor="middle" x="466" y="-87.5" font-family="sans" font-size="10.00">summary</text>
</g>
<!-- 1&#45;&gt;0 -->
<g id="edge4" class="edge">
<title>1&#45;&gt;0</title>
<path fill="none" stroke="grey" stroke-width="2" d="M443.75,-71.7C432.42,-62.88 418.47,-52.03 406.18,-42.47"/>
<polygon fill="grey" stroke="grey" stroke-width="2" points="408.03,-39.48 397.99,-36.1 403.74,-45.01 408.03,-39.48"/>
</g>
<!-- 2 -->
<g id="node3" class="node">
<title>2</title>
<path fill="none" stroke="#d89c56" stroke-width="2" d="M503.5,-540C503.5,-540 438.5,-540 438.5,-540 432.5,-540 426.5,-534 426.5,-528 426.5,-528 426.5,-516 426.5,-516 426.5,-510 432.5,-504 438.5,-504 438.5,-504 503.5,-504 503.5,-504 509.5,-504 515.5,-510 515.5,-516 515.5,-516 515.5,-528 515.5,-528 515.5,-534 509.5,-540 503.5,-540"/>
<text text-anchor="middle" x="471" y="-519.5" font-family="sans" font-size="10.00">generate_stats</text>
</g>
<!-- 2&#45;&gt;1 -->
<g id="edge8" class="edge">
<title>2&#45;&gt;1</title>
<path fill="none" stroke="grey" stroke-width="2" d="M471,-503.95C471,-477.29 471,-424.11 471,-379 471,-379 471,-379 471,-233 471,-192.97 468.99,-146.63 467.52,-118.07"/>
<polygon fill="grey" stroke="grey" stroke-width="2" points="471.01,-117.84 466.99,-108.04 464.02,-118.21 471.01,-117.84"/>
</g>
<!-- 3 -->
<g id="node4" class="node">
<title>3</title>
<path fill="none" stroke="#d8cb56" stroke-width="2" d="M508,-684C508,-684 434,-684 434,-684 428,-684 422,-678 422,-672 422,-672 422,-660 422,-660 422,-654 428,-648 434,-648 434,-648 508,-648 508,-648 514,-648 520,-654 520,-660 520,-660 520,-672 520,-672 520,-678 514,-684 508,-684"/>
<text text-anchor="middle" x="471" y="-663.5" font-family="sans" font-size="10.00">mark_duplicates</text>
</g>
<!-- 3&#45;&gt;2 -->
<g id="edge12" class="edge">
<title>3&#45;&gt;2</title>
<path fill="none" stroke="grey" stroke-width="2" d="M471,-647.87C471,-623.67 471,-579.21 471,-550.39"/>
<polygon fill="grey" stroke="grey" stroke-width="2" points="474.5,-550.19 471,-540.19 467.5,-550.19 474.5,-550.19"/>
</g>
<!-- 8 -->
<g id="node9" class="node">
<title>8</title>
<path fill="none" stroke="#d8b456" stroke-width="2" d="M419.5,-612C419.5,-612 302.5,-612 302.5,-612 296.5,-612 290.5,-606 290.5,-600 290.5,-600 290.5,-588 290.5,-588 290.5,-582 296.5,-576 302.5,-576 302.5,-576 419.5,-576 419.5,-576 425.5,-576 431.5,-582 431.5,-588 431.5,-588 431.5,-600 431.5,-600 431.5,-606 425.5,-612 419.5,-612"/>
<text text-anchor="middle" x="361" y="-591.5" font-family="sans" font-size="10.00">QDNAseq_binReadCounts</text>
</g>
<!-- 3&#45;&gt;8 -->
<g id="edge21" class="edge">
<title>3&#45;&gt;8</title>
<path fill="none" stroke="grey" stroke-width="2" d="M444.09,-647.88C429.84,-638.81 412.15,-627.55 396.76,-617.76"/>
<polygon fill="grey" stroke="grey" stroke-width="2" points="398.33,-614.61 388.01,-612.19 394.57,-620.51 398.33,-614.61"/>
</g>
<!-- 13 -->
<g id="node14" class="node">
<title>13</title>
<path fill="none" stroke="#d86e56" stroke-width="2" d="M541,-180C541,-180 511,-180 511,-180 505,-180 499,-174 499,-168 499,-168 499,-156 499,-156 499,-150 505,-144 511,-144 511,-144 541,-144 541,-144 547,-144 553,-150 553,-156 553,-156 553,-168 553,-168 553,-174 547,-180 541,-180"/>
<text text-anchor="middle" x="526" y="-159.5" font-family="sans" font-size="10.00">qcbam</text>
</g>
<!-- 3&#45;&gt;13 -->
<g id="edge25" class="edge">
<title>3&#45;&gt;13</title>
<path fill="none" stroke="grey" stroke-width="2" d="M486.84,-647.65C508.31,-622.27 544,-572.62 544,-523 544,-523 544,-523 544,-305 544,-264.9 536.85,-218.92 531.56,-190.42"/>
<polygon fill="grey" stroke="grey" stroke-width="2" points="534.96,-189.56 529.64,-180.4 528.08,-190.88 534.96,-189.56"/>
</g>
<!-- 4 -->
<g id="node5" class="node">
<title>4</title>
<path fill="none" stroke="#9fd856" stroke-width="2" d="M502,-756C502,-756 440,-756 440,-756 434,-756 428,-750 428,-744 428,-744 428,-732 428,-732 428,-726 434,-720 440,-720 440,-720 502,-720 502,-720 508,-720 514,-726 514,-732 514,-732 514,-744 514,-744 514,-750 508,-756 502,-756"/>
<text text-anchor="middle" x="471" y="-735.5" font-family="sans" font-size="10.00">samtools_sort</text>
</g>
<!-- 4&#45;&gt;3 -->
<g id="edge13" class="edge">
<title>4&#45;&gt;3</title>
<path fill="none" stroke="grey" stroke-width="2" d="M471,-719.7C471,-711.98 471,-702.71 471,-694.11"/>
<polygon fill="grey" stroke="grey" stroke-width="2" points="474.5,-694.1 471,-684.1 467.5,-694.1 474.5,-694.1"/>
</g>
<!-- 5 -->
<g id="node6" class="node">
<title>5</title>
<path fill="none" stroke="#569ad8" stroke-width="2" d="M487.5,-828C487.5,-828 454.5,-828 454.5,-828 448.5,-828 442.5,-822 442.5,-816 442.5,-816 442.5,-804 442.5,-804 442.5,-798 448.5,-792 454.5,-792 454.5,-792 487.5,-792 487.5,-792 493.5,-792 499.5,-798 499.5,-804 499.5,-804 499.5,-816 499.5,-816 499.5,-822 493.5,-828 487.5,-828"/>
<text text-anchor="middle" x="471" y="-807.5" font-family="sans" font-size="10.00">bwa_aln</text>
</g>
<!-- 5&#45;&gt;4 -->
<g id="edge14" class="edge">
<title>5&#45;&gt;4</title>
<path fill="none" stroke="grey" stroke-width="2" d="M471,-791.7C471,-783.98 471,-774.71 471,-766.11"/>
<polygon fill="grey" stroke="grey" stroke-width="2" points="474.5,-766.1 471,-756.1 467.5,-766.1 474.5,-766.1"/>
</g>
<!-- 6 -->
<g id="node7" class="node">
<title>6</title>
<path fill="none" stroke="#5682d8" stroke-width="2" d="M392.5,-180C392.5,-180 359.5,-180 359.5,-180 353.5,-180 347.5,-174 347.5,-168 347.5,-168 347.5,-156 347.5,-156 347.5,-150 353.5,-144 359.5,-144 359.5,-144 392.5,-144 392.5,-144 398.5,-144 404.5,-150 404.5,-156 404.5,-156 404.5,-168 404.5,-168 404.5,-174 398.5,-180 392.5,-180"/>
<text text-anchor="middle" x="376" y="-159.5" font-family="sans" font-size="10.00">lightBox</text>
</g>
<!-- 6&#45;&gt;0 -->
<g id="edge6" class="edge">
<title>6&#45;&gt;0</title>
<path fill="none" stroke="grey" stroke-width="2" d="M376,-143.87C376,-119.67 376,-75.21 376,-46.39"/>
<polygon fill="grey" stroke="grey" stroke-width="2" points="379.5,-46.19 376,-36.19 372.5,-46.19 379.5,-46.19"/>
</g>
<!-- 6&#45;&gt;1 -->
<g id="edge9" class="edge">
<title>6&#45;&gt;1</title>
<path fill="none" stroke="grey" stroke-width="2" d="M398.25,-143.7C409.58,-134.88 423.53,-124.03 435.82,-114.47"/>
<polygon fill="grey" stroke="grey" stroke-width="2" points="438.26,-117.01 444.01,-108.1 433.97,-111.48 438.26,-117.01"/>
</g>
<!-- 7 -->
<g id="node8" class="node">
<title>7</title>
<path fill="none" stroke="#56d86b" stroke-width="2" d="M396.5,-540C396.5,-540 303.5,-540 303.5,-540 297.5,-540 291.5,-534 291.5,-528 291.5,-528 291.5,-516 291.5,-516 291.5,-510 297.5,-504 303.5,-504 303.5,-504 396.5,-504 396.5,-504 402.5,-504 408.5,-510 408.5,-516 408.5,-516 408.5,-528 408.5,-528 408.5,-534 402.5,-540 396.5,-540"/>
<text text-anchor="middle" x="350" y="-519.5" font-family="sans" font-size="10.00">QDNAseq_normalize</text>
</g>
<!-- 7&#45;&gt;6 -->
<g id="edge17" class="edge">
<title>7&#45;&gt;6</title>
<path fill="none" stroke="grey" stroke-width="2" d="M368.42,-503.64C392.87,-478.62 433,-429.83 433,-379 433,-379 433,-379 433,-305 433,-261.8 410,-216.19 393.22,-188.66"/>
<polygon fill="grey" stroke="grey" stroke-width="2" points="396.09,-186.65 387.81,-180.04 390.17,-190.37 396.09,-186.65"/>
</g>
<!-- 10 -->
<g id="node11" class="node">
<title>10</title>
<path fill="none" stroke="#d85656" stroke-width="2" d="M366,-468C366,-468 334,-468 334,-468 328,-468 322,-462 322,-456 322,-456 322,-444 322,-444 322,-438 328,-432 334,-432 334,-432 366,-432 366,-432 372,-432 378,-438 378,-444 378,-444 378,-456 378,-456 378,-462 372,-468 366,-468"/>
<text text-anchor="middle" x="350" y="-447.5" font-family="sans" font-size="10.00">deWave</text>
</g>
<!-- 7&#45;&gt;10 -->
<g id="edge23" class="edge">
<title>7&#45;&gt;10</title>
<path fill="none" stroke="grey" stroke-width="2" d="M350,-503.7C350,-495.98 350,-486.71 350,-478.11"/>
<polygon fill="grey" stroke="grey" stroke-width="2" points="353.5,-478.1 350,-468.1 346.5,-478.1 353.5,-478.1"/>
</g>
<!-- 8&#45;&gt;7 -->
<g id="edge20" class="edge">
<title>8&#45;&gt;7</title>
<path fill="none" stroke="grey" stroke-width="2" d="M358.28,-575.7C357.07,-567.98 355.61,-558.71 354.26,-550.11"/>
<polygon fill="grey" stroke="grey" stroke-width="2" points="357.7,-549.44 352.69,-540.1 350.78,-550.53 357.7,-549.44"/>
</g>
<!-- 9 -->
<g id="node10" class="node">
<title>9</title>
<path fill="none" stroke="#70d856" stroke-width="2" d="M339.5,-396C339.5,-396 252.5,-396 252.5,-396 246.5,-396 240.5,-390 240.5,-384 240.5,-384 240.5,-372 240.5,-372 240.5,-366 246.5,-360 252.5,-360 252.5,-360 339.5,-360 339.5,-360 345.5,-360 351.5,-366 351.5,-372 351.5,-372 351.5,-384 351.5,-384 351.5,-390 345.5,-396 339.5,-396"/>
<text text-anchor="middle" x="296" y="-375.5" font-family="sans" font-size="10.00">QDNAseq_segment</text>
</g>
<!-- 9&#45;&gt;6 -->
<g id="edge18" class="edge">
<title>9&#45;&gt;6</title>
<path fill="none" stroke="grey" stroke-width="2" d="M311.19,-359.95C319.3,-350.05 328.84,-337.01 335,-324 355.94,-279.73 367.14,-223.35 372.31,-190.41"/>
<polygon fill="grey" stroke="grey" stroke-width="2" points="375.82,-190.59 373.84,-180.19 368.9,-189.56 375.82,-190.59"/>
</g>
<!-- 11 -->
<g id="node12" class="node">
<title>11</title>
<path fill="none" stroke="#56d8b1" stroke-width="2" d="M314,-324C314,-324 278,-324 278,-324 272,-324 266,-318 266,-312 266,-312 266,-300 266,-300 266,-294 272,-288 278,-288 278,-288 314,-288 314,-288 320,-288 326,-294 326,-300 326,-300 326,-312 326,-312 326,-318 320,-324 314,-324"/>
<text text-anchor="middle" x="296" y="-303.5" font-family="sans" font-size="10.00">CNA_call</text>
</g>
<!-- 9&#45;&gt;11 -->
<g id="edge24" class="edge">
<title>9&#45;&gt;11</title>
<path fill="none" stroke="grey" stroke-width="2" d="M296,-359.7C296,-351.98 296,-342.71 296,-334.11"/>
<polygon fill="grey" stroke="grey" stroke-width="2" points="299.5,-334.1 296,-324.1 292.5,-334.1 299.5,-334.1"/>
</g>
<!-- 17 -->
<g id="node18" class="node">
<title>17</title>
<path fill="none" stroke="#56c9d8" stroke-width="2" d="M232,-324C232,-324 202,-324 202,-324 196,-324 190,-318 190,-312 190,-312 190,-300 190,-300 190,-294 196,-288 202,-288 202,-288 232,-288 232,-288 238,-288 244,-294 244,-300 244,-300 244,-312 244,-312 244,-318 238,-324 232,-324"/>
<text text-anchor="middle" x="217" y="-303.5" font-family="sans" font-size="10.00">ACE</text>
</g>
<!-- 9&#45;&gt;17 -->
<g id="edge30" class="edge">
<title>9&#45;&gt;17</title>
<path fill="none" stroke="grey" stroke-width="2" d="M276.47,-359.7C266.62,-350.97 254.51,-340.24 243.8,-330.75"/>
<polygon fill="grey" stroke="grey" stroke-width="2" points="246.11,-328.12 236.3,-324.1 241.47,-333.36 246.11,-328.12"/>
</g>
<!-- 18 -->
<g id="node19" class="node">
<title>18</title>
<path fill="none" stroke="#56d882" stroke-width="2" d="M112,-252C112,-252 12,-252 12,-252 6,-252 0,-246 0,-240 0,-240 0,-228 0,-228 0,-222 6,-216 12,-216 12,-216 112,-216 112,-216 118,-216 124,-222 124,-228 124,-228 124,-240 124,-240 124,-246 118,-252 112,-252"/>
<text text-anchor="middle" x="62" y="-231.5" font-family="sans" font-size="10.00">postanalysisloop_ACE</text>
</g>
<!-- 9&#45;&gt;18 -->
<g id="edge32" class="edge">
<title>9&#45;&gt;18</title>
<path fill="none" stroke="grey" stroke-width="2" d="M253.4,-359.92C231.24,-350.4 204.04,-337.72 181,-324 148.08,-304.4 113.31,-277.6 89.92,-258.54"/>
<polygon fill="grey" stroke="grey" stroke-width="2" points="92.09,-255.79 82.14,-252.14 87.64,-261.2 92.09,-255.79"/>
</g>
<!-- 10&#45;&gt;6 -->
<g id="edge15" class="edge">
<title>10&#45;&gt;6</title>
<path fill="none" stroke="grey" stroke-width="2" d="M353.51,-431.86C355.57,-421.51 358.12,-408.03 360,-396 372.45,-316.57 379.52,-296.38 378,-216 377.84,-207.68 377.55,-198.63 377.23,-190.4"/>
<polygon fill="grey" stroke="grey" stroke-width="2" points="380.72,-190.03 376.81,-180.18 373.72,-190.32 380.72,-190.03"/>
</g>
<!-- 10&#45;&gt;9 -->
<g id="edge22" class="edge">
<title>10&#45;&gt;9</title>
<path fill="none" stroke="grey" stroke-width="2" d="M336.65,-431.7C330.24,-423.39 322.44,-413.28 315.39,-404.14"/>
<polygon fill="grey" stroke="grey" stroke-width="2" points="318.07,-401.88 309.19,-396.1 312.53,-406.16 318.07,-401.88"/>
</g>
<!-- 11&#45;&gt;6 -->
<g id="edge16" class="edge">
<title>11&#45;&gt;6</title>
<path fill="none" stroke="grey" stroke-width="2" d="M304.65,-287.74C313.82,-269.67 328.9,-240.55 343,-216 348.07,-207.16 353.87,-197.67 359.18,-189.2"/>
<polygon fill="grey" stroke="grey" stroke-width="2" points="362.3,-190.8 364.68,-180.48 356.38,-187.06 362.3,-190.8"/>
</g>
<!-- 16 -->
<g id="node17" class="node">
<title>16</title>
<path fill="none" stroke="#56d89a" stroke-width="2" d="M279.5,-252C279.5,-252 154.5,-252 154.5,-252 148.5,-252 142.5,-246 142.5,-240 142.5,-240 142.5,-228 142.5,-228 142.5,-222 148.5,-216 154.5,-216 154.5,-216 279.5,-216 279.5,-216 285.5,-216 291.5,-222 291.5,-228 291.5,-228 291.5,-240 291.5,-240 291.5,-246 285.5,-252 279.5,-252"/>
<text text-anchor="middle" x="217" y="-231.5" font-family="sans" font-size="10.00">CNA_call_cellularity_based</text>
</g>
<!-- 11&#45;&gt;16 -->
<g id="edge28" class="edge">
<title>11&#45;&gt;16</title>
<path fill="none" stroke="grey" stroke-width="2" d="M276.47,-287.7C266.62,-278.97 254.51,-268.24 243.8,-258.75"/>
<polygon fill="grey" stroke="grey" stroke-width="2" points="246.11,-256.12 236.3,-252.1 241.47,-261.36 246.11,-256.12"/>
</g>
<!-- 12 -->
<g id="node13" class="node">
<title>12</title>
<path fill="none" stroke="#d88556" stroke-width="2" d="M613,-180C613,-180 583,-180 583,-180 577,-180 571,-174 571,-168 571,-168 571,-156 571,-156 571,-150 577,-144 583,-144 583,-144 613,-144 613,-144 619,-144 625,-150 625,-156 625,-156 625,-168 625,-168 625,-174 619,-180 613,-180"/>
<text text-anchor="middle" x="598" y="-159.5" font-family="sans" font-size="10.00">qcfastq</text>
</g>
<!-- 12&#45;&gt;0 -->
<g id="edge2" class="edge">
<title>12&#45;&gt;0</title>
<path fill="none" stroke="grey" stroke-width="2" d="M588.81,-143.82C577.32,-123.88 555.85,-91.26 529,-72 494.89,-47.53 448.51,-33.57 415.78,-26.19"/>
<polygon fill="grey" stroke="grey" stroke-width="2" points="416.18,-22.7 405.67,-24.02 414.71,-29.54 416.18,-22.7"/>
</g>
<!-- 12&#45;&gt;1 -->
<g id="edge11" class="edge">
<title>12&#45;&gt;1</title>
<path fill="none" stroke="grey" stroke-width="2" d="M570.97,-146.67C552.44,-136.84 527.53,-123.63 506.62,-112.54"/>
<polygon fill="grey" stroke="grey" stroke-width="2" points="508.11,-109.37 497.64,-107.78 504.83,-115.56 508.11,-109.37"/>
</g>
<!-- 13&#45;&gt;0 -->
<g id="edge1" class="edge">
<title>13&#45;&gt;0</title>
<path fill="none" stroke="grey" stroke-width="2" d="M526.63,-143.88C526.43,-124.29 523.19,-92.31 506,-72 483.25,-45.12 444.78,-31.7 415.57,-25.11"/>
<polygon fill="grey" stroke="grey" stroke-width="2" points="416.17,-21.66 405.67,-23.05 414.75,-28.51 416.17,-21.66"/>
</g>
<!-- 13&#45;&gt;1 -->
<g id="edge10" class="edge">
<title>13&#45;&gt;1</title>
<path fill="none" stroke="grey" stroke-width="2" d="M511.17,-143.7C503.98,-135.3 495.2,-125.07 487.31,-115.86"/>
<polygon fill="grey" stroke="grey" stroke-width="2" points="489.83,-113.42 480.66,-108.1 484.51,-117.97 489.83,-113.42"/>
</g>
<!-- 14 -->
<g id="node15" class="node">
<title>14</title>
<path fill="none" stroke="#56b1d8" stroke-width="2" d="M269,-108C269,-108 183,-108 183,-108 177,-108 171,-102 171,-96 171,-96 171,-84 171,-84 171,-78 177,-72 183,-72 183,-72 269,-72 269,-72 275,-72 281,-78 281,-84 281,-84 281,-96 281,-96 281,-102 275,-108 269,-108"/>
<text text-anchor="middle" x="226" y="-87.5" font-family="sans" font-size="10.00">annotate_focalCNA</text>
</g>
<!-- 14&#45;&gt;0 -->
<g id="edge5" class="edge">
<title>14&#45;&gt;0</title>
<path fill="none" stroke="grey" stroke-width="2" d="M262.69,-71.88C285.26,-61.35 314.15,-47.87 337.1,-37.15"/>
<polygon fill="grey" stroke="grey" stroke-width="2" points="338.64,-40.3 346.22,-32.9 335.68,-33.95 338.64,-40.3"/>
</g>
<!-- 15 -->
<g id="node16" class="node">
<title>15</title>
<path fill="none" stroke="#88d856" stroke-width="2" d="M254.5,-180C254.5,-180 197.5,-180 197.5,-180 191.5,-180 185.5,-174 185.5,-168 185.5,-168 185.5,-156 185.5,-156 185.5,-150 191.5,-144 197.5,-144 197.5,-144 254.5,-144 254.5,-144 260.5,-144 266.5,-150 266.5,-156 266.5,-156 266.5,-168 266.5,-168 266.5,-174 260.5,-180 254.5,-180"/>
<text text-anchor="middle" x="226" y="-159.5" font-family="sans" font-size="10.00">CNA_bedfiles</text>
</g>
<!-- 15&#45;&gt;14 -->
<g id="edge26" class="edge">
<title>15&#45;&gt;14</title>
<path fill="none" stroke="grey" stroke-width="2" d="M226,-143.7C226,-135.98 226,-126.71 226,-118.11"/>
<polygon fill="grey" stroke="grey" stroke-width="2" points="229.5,-118.1 226,-108.1 222.5,-118.1 229.5,-118.1"/>
</g>
<!-- 16&#45;&gt;0 -->
<g id="edge7" class="edge">
<title>16&#45;&gt;0</title>
<path fill="none" stroke="grey" stroke-width="2" d="M238.44,-215.85C249.99,-206.03 264.08,-193.09 275,-180 311.36,-136.42 344.46,-78.71 362.26,-45.54"/>
<polygon fill="grey" stroke="grey" stroke-width="2" points="365.48,-46.95 367.08,-36.47 359.3,-43.66 365.48,-46.95"/>
</g>
<!-- 16&#45;&gt;6 -->
<g id="edge19" class="edge">
<title>16&#45;&gt;6</title>
<path fill="none" stroke="grey" stroke-width="2" d="M255.9,-215.88C280.89,-204.87 313.21,-190.64 338.03,-179.72"/>
<polygon fill="grey" stroke="grey" stroke-width="2" points="339.74,-182.79 347.48,-175.56 336.92,-176.38 339.74,-182.79"/>
</g>
<!-- 16&#45;&gt;15 -->
<g id="edge27" class="edge">
<title>16&#45;&gt;15</title>
<path fill="none" stroke="grey" stroke-width="2" d="M219.22,-215.7C220.22,-207.98 221.41,-198.71 222.51,-190.11"/>
<polygon fill="grey" stroke="grey" stroke-width="2" points="226,-190.47 223.8,-180.1 219.05,-189.58 226,-190.47"/>
</g>
<!-- 17&#45;&gt;16 -->
<g id="edge29" class="edge">
<title>17&#45;&gt;16</title>
<path fill="none" stroke="grey" stroke-width="2" d="M217,-287.7C217,-279.98 217,-270.71 217,-262.11"/>
<polygon fill="grey" stroke="grey" stroke-width="2" points="220.5,-262.1 217,-252.1 213.5,-262.1 220.5,-262.1"/>
</g>
<!-- 17&#45;&gt;18 -->
<g id="edge31" class="edge">
<title>17&#45;&gt;18</title>
<path fill="none" stroke="grey" stroke-width="2" d="M189.65,-292.65C167.43,-282.61 135.58,-268.23 109.26,-256.34"/>
<polygon fill="grey" stroke="grey" stroke-width="2" points="110.39,-253.01 99.84,-252.09 107.51,-259.39 110.39,-253.01"/>
</g>
<!-- 18&#45;&gt;0 -->
<g id="edge3" class="edge">
<title>18&#45;&gt;0</title>
<path fill="none" stroke="grey" stroke-width="2" d="M67.67,-215.85C79.57,-182.65 110.38,-109.55 162,-72 214.12,-34.09 290.26,-23.12 336.27,-20.05"/>
<polygon fill="grey" stroke="grey" stroke-width="2" points="336.67,-23.54 346.45,-19.47 336.27,-16.55 336.67,-23.54"/>
</g>
</g>
</svg>
