<?xml version="1.0" encoding="UTF-8" standalone="no"?>
<!DOCTYPE svg PUBLIC "-//W3C//DTD SVG 1.1//EN"
 "http://www.w3.org/Graphics/SVG/1.1/DTD/svg11.dtd">
<!-- Generated by graphviz version 2.42.3 (20191010.1750)
 -->
<!-- Title: snakemake_dag Pages: 1 -->
<svg width="668pt" height="908pt"
 viewBox="0.00 0.00 668.00 908.00" xmlns="http://www.w3.org/2000/svg" xmlns:xlink="http://www.w3.org/1999/xlink">
<g id="graph0" class="graph" transform="scale(1 1) rotate(0) translate(4 904)">
<title>snakemake_dag</title>
<polygon fill="white" stroke="transparent" points="-4,4 -4,-904 664,-904 664,4 -4,4"/>
<!-- 0 -->
<g id="node1" class="node">
<title>0</title>
<path fill="none" stroke="#d85656" stroke-width="2" d="M455,-36C455,-36 425,-36 425,-36 419,-36 413,-30 413,-24 413,-24 413,-12 413,-12 413,-6 419,0 425,0 425,0 455,0 455,0 461,0 467,-6 467,-12 467,-12 467,-24 467,-24 467,-30 461,-36 455,-36"/>
<text text-anchor="middle" x="440" y="-15.5" font-family="sans" font-size="10.00">all</text>
</g>
<!-- 1 -->
<g id="node2" class="node">
<title>1</title>
<path fill="none" stroke="#566bd8" stroke-width="2" d="M554.5,-180C554.5,-180 515.5,-180 515.5,-180 509.5,-180 503.5,-174 503.5,-168 503.5,-168 503.5,-156 503.5,-156 503.5,-150 509.5,-144 515.5,-144 515.5,-144 554.5,-144 554.5,-144 560.5,-144 566.5,-150 566.5,-156 566.5,-156 566.5,-168 566.5,-168 566.5,-174 560.5,-180 554.5,-180"/>
<text text-anchor="middle" x="535" y="-159.5" font-family="sans" font-size="10.00">summary</text>
</g>
<!-- 1&#45;&gt;0 -->
<g id="edge8" class="edge">
<title>1&#45;&gt;0</title>
<path fill="none" stroke="grey" stroke-width="2" d="M533.72,-143.88C531.58,-124.88 525.92,-93.98 511,-72 502.01,-58.77 488.61,-47.54 475.86,-38.87"/>
<polygon fill="grey" stroke="grey" stroke-width="2" points="477.51,-35.76 467.21,-33.28 473.71,-41.65 477.51,-35.76"/>
</g>
<!-- 2 -->
<g id="node3" class="node">
<title>2</title>
<path fill="none" stroke="#d8b456" stroke-width="2" d="M535.5,-612C535.5,-612 470.5,-612 470.5,-612 464.5,-612 458.5,-606 458.5,-600 458.5,-600 458.5,-588 458.5,-588 458.5,-582 464.5,-576 470.5,-576 470.5,-576 535.5,-576 535.5,-576 541.5,-576 547.5,-582 547.5,-588 547.5,-588 547.5,-600 547.5,-600 547.5,-606 541.5,-612 535.5,-612"/>
<text text-anchor="middle" x="503" y="-591.5" font-family="sans" font-size="10.00">generate_stats</text>
</g>
<!-- 2&#45;&gt;1 -->
<g id="edge10" class="edge">
<title>2&#45;&gt;1</title>
<path fill="none" stroke="grey" stroke-width="2" d="M503.4,-575.95C503.98,-549.29 505,-496.12 505,-451 505,-451 505,-451 505,-305 505,-264.16 517.03,-218.11 525.85,-189.82"/>
<polygon fill="grey" stroke="grey" stroke-width="2" points="529.2,-190.83 528.93,-180.24 522.54,-188.69 529.2,-190.83"/>
</g>
<!-- 3 -->
<g id="node4" class="node">
<title>3</title>
<path fill="none" stroke="#d6d856" stroke-width="2" d="M540,-756C540,-756 466,-756 466,-756 460,-756 454,-750 454,-744 454,-744 454,-732 454,-732 454,-726 460,-720 466,-720 466,-720 540,-720 540,-720 546,-720 552,-726 552,-732 552,-732 552,-744 552,-744 552,-750 546,-756 540,-756"/>
<text text-anchor="middle" x="503" y="-735.5" font-family="sans" font-size="10.00">mark_duplicates</text>
</g>
<!-- 3&#45;&gt;2 -->
<g id="edge14" class="edge">
<title>3&#45;&gt;2</title>
<path fill="none" stroke="grey" stroke-width="2" d="M503,-719.87C503,-695.67 503,-651.21 503,-622.39"/>
<polygon fill="grey" stroke="grey" stroke-width="2" points="506.5,-622.19 503,-612.19 499.5,-622.19 506.5,-622.19"/>
</g>
<!-- 8 -->
<g id="node9" class="node">
<title>8</title>
<path fill="none" stroke="#56d8a2" stroke-width="2" d="M451.5,-684C451.5,-684 334.5,-684 334.5,-684 328.5,-684 322.5,-678 322.5,-672 322.5,-672 322.5,-660 322.5,-660 322.5,-654 328.5,-648 334.5,-648 334.5,-648 451.5,-648 451.5,-648 457.5,-648 463.5,-654 463.5,-660 463.5,-660 463.5,-672 463.5,-672 463.5,-678 457.5,-684 451.5,-684"/>
<text text-anchor="middle" x="393" y="-663.5" font-family="sans" font-size="10.00">QDNAseq_binReadCounts</text>
</g>
<!-- 3&#45;&gt;8 -->
<g id="edge23" class="edge">
<title>3&#45;&gt;8</title>
<path fill="none" stroke="grey" stroke-width="2" d="M476.09,-719.88C461.84,-710.81 444.15,-699.55 428.76,-689.76"/>
<polygon fill="grey" stroke="grey" stroke-width="2" points="430.33,-686.61 420.01,-684.19 426.57,-692.51 430.33,-686.61"/>
</g>
<!-- 13 -->
<g id="node14" class="node">
<title>13</title>
<path fill="none" stroke="#bed856" stroke-width="2" d="M576,-252C576,-252 546,-252 546,-252 540,-252 534,-246 534,-240 534,-240 534,-228 534,-228 534,-222 540,-216 546,-216 546,-216 576,-216 576,-216 582,-216 588,-222 588,-228 588,-228 588,-240 588,-240 588,-246 582,-252 576,-252"/>
<text text-anchor="middle" x="561" y="-231.5" font-family="sans" font-size="10.00">qcbam</text>
</g>
<!-- 3&#45;&gt;13 -->
<g id="edge27" class="edge">
<title>3&#45;&gt;13</title>
<path fill="none" stroke="grey" stroke-width="2" d="M518.84,-719.65C540.31,-694.27 576,-644.62 576,-595 576,-595 576,-595 576,-377 576,-336.99 570.04,-291 565.63,-262.46"/>
<polygon fill="grey" stroke="grey" stroke-width="2" points="569.06,-261.75 564.04,-252.43 562.15,-262.85 569.06,-261.75"/>
</g>
<!-- 4 -->
<g id="node5" class="node">
<title>4</title>
<path fill="none" stroke="#5682d8" stroke-width="2" d="M534,-828C534,-828 472,-828 472,-828 466,-828 460,-822 460,-816 460,-816 460,-804 460,-804 460,-798 466,-792 472,-792 472,-792 534,-792 534,-792 540,-792 546,-798 546,-804 546,-804 546,-816 546,-816 546,-822 540,-828 534,-828"/>
<text text-anchor="middle" x="503" y="-807.5" font-family="sans" font-size="10.00">samtools_sort</text>
</g>
<!-- 4&#45;&gt;3 -->
<g id="edge15" class="edge">
<title>4&#45;&gt;3</title>
<path fill="none" stroke="grey" stroke-width="2" d="M503,-791.7C503,-783.98 503,-774.71 503,-766.11"/>
<polygon fill="grey" stroke="grey" stroke-width="2" points="506.5,-766.1 503,-756.1 499.5,-766.1 506.5,-766.1"/>
</g>
<!-- 5 -->
<g id="node6" class="node">
<title>5</title>
<path fill="none" stroke="#56d8d0" stroke-width="2" d="M519.5,-900C519.5,-900 486.5,-900 486.5,-900 480.5,-900 474.5,-894 474.5,-888 474.5,-888 474.5,-876 474.5,-876 474.5,-870 480.5,-864 486.5,-864 486.5,-864 519.5,-864 519.5,-864 525.5,-864 531.5,-870 531.5,-876 531.5,-876 531.5,-888 531.5,-888 531.5,-894 525.5,-900 519.5,-900"/>
<text text-anchor="middle" x="503" y="-879.5" font-family="sans" font-size="10.00">bwa_aln</text>
</g>
<!-- 5&#45;&gt;4 -->
<g id="edge16" class="edge">
<title>5&#45;&gt;4</title>
<path fill="none" stroke="grey" stroke-width="2" d="M503,-863.7C503,-855.98 503,-846.71 503,-838.11"/>
<polygon fill="grey" stroke="grey" stroke-width="2" points="506.5,-838.1 503,-828.1 499.5,-838.1 506.5,-838.1"/>
</g>
<!-- 6 -->
<g id="node7" class="node">
<title>6</title>
<path fill="none" stroke="#56d892" stroke-width="2" d="M411.5,-252C411.5,-252 378.5,-252 378.5,-252 372.5,-252 366.5,-246 366.5,-240 366.5,-240 366.5,-228 366.5,-228 366.5,-222 372.5,-216 378.5,-216 378.5,-216 411.5,-216 411.5,-216 417.5,-216 423.5,-222 423.5,-228 423.5,-228 423.5,-240 423.5,-240 423.5,-246 417.5,-252 411.5,-252"/>
<text text-anchor="middle" x="395" y="-231.5" font-family="sans" font-size="10.00">lightBox</text>
</g>
<!-- 6&#45;&gt;0 -->
<g id="edge3" class="edge">
<title>6&#45;&gt;0</title>
<path fill="none" stroke="grey" stroke-width="2" d="M411.22,-215.67C431.22,-192.98 464.15,-151.02 477,-108 481.58,-92.67 481.8,-87.26 477,-72 473.9,-62.15 468.25,-52.53 462.28,-44.25"/>
<polygon fill="grey" stroke="grey" stroke-width="2" points="464.91,-41.94 456.04,-36.15 459.37,-46.21 464.91,-41.94"/>
</g>
<!-- 6&#45;&gt;1 -->
<g id="edge12" class="edge">
<title>6&#45;&gt;1</title>
<path fill="none" stroke="grey" stroke-width="2" d="M423.67,-218.67C444.06,-208.47 471.74,-194.63 494.4,-183.3"/>
<polygon fill="grey" stroke="grey" stroke-width="2" points="496.06,-186.38 503.44,-178.78 492.93,-180.12 496.06,-186.38"/>
</g>
<!-- 7 -->
<g id="node8" class="node">
<title>7</title>
<path fill="none" stroke="#d8c356" stroke-width="2" d="M428.5,-612C428.5,-612 335.5,-612 335.5,-612 329.5,-612 323.5,-606 323.5,-600 323.5,-600 323.5,-588 323.5,-588 323.5,-582 329.5,-576 335.5,-576 335.5,-576 428.5,-576 428.5,-576 434.5,-576 440.5,-582 440.5,-588 440.5,-588 440.5,-600 440.5,-600 440.5,-606 434.5,-612 428.5,-612"/>
<text text-anchor="middle" x="382" y="-591.5" font-family="sans" font-size="10.00">QDNAseq_normalize</text>
</g>
<!-- 7&#45;&gt;6 -->
<g id="edge18" class="edge">
<title>7&#45;&gt;6</title>
<path fill="none" stroke="grey" stroke-width="2" d="M394.52,-575.62C401.19,-565.63 409.02,-552.59 414,-540 428.88,-502.39 433,-491.45 433,-451 433,-451 433,-451 433,-377 433,-335.63 417.77,-289.72 406.59,-261.61"/>
<polygon fill="grey" stroke="grey" stroke-width="2" points="409.72,-260.02 402.69,-252.09 403.24,-262.67 409.72,-260.02"/>
</g>
<!-- 10 -->
<g id="node11" class="node">
<title>10</title>
<path fill="none" stroke="#56d863" stroke-width="2" d="M393,-540C393,-540 361,-540 361,-540 355,-540 349,-534 349,-528 349,-528 349,-516 349,-516 349,-510 355,-504 361,-504 361,-504 393,-504 393,-504 399,-504 405,-510 405,-516 405,-516 405,-528 405,-528 405,-534 399,-540 393,-540"/>
<text text-anchor="middle" x="377" y="-519.5" font-family="sans" font-size="10.00">deWave</text>
</g>
<!-- 7&#45;&gt;10 -->
<g id="edge25" class="edge">
<title>7&#45;&gt;10</title>
<path fill="none" stroke="grey" stroke-width="2" d="M380.76,-575.7C380.21,-567.98 379.55,-558.71 378.94,-550.11"/>
<polygon fill="grey" stroke="grey" stroke-width="2" points="382.43,-549.83 378.22,-540.1 375.44,-550.33 382.43,-549.83"/>
</g>
<!-- 8&#45;&gt;7 -->
<g id="edge22" class="edge">
<title>8&#45;&gt;7</title>
<path fill="none" stroke="grey" stroke-width="2" d="M390.28,-647.7C389.07,-639.98 387.61,-630.71 386.26,-622.11"/>
<polygon fill="grey" stroke="grey" stroke-width="2" points="389.7,-621.44 384.69,-612.1 382.78,-622.53 389.7,-621.44"/>
</g>
<!-- 9 -->
<g id="node10" class="node">
<title>9</title>
<path fill="none" stroke="#78d856" stroke-width="2" d="M339.5,-468C339.5,-468 252.5,-468 252.5,-468 246.5,-468 240.5,-462 240.5,-456 240.5,-456 240.5,-444 240.5,-444 240.5,-438 246.5,-432 252.5,-432 252.5,-432 339.5,-432 339.5,-432 345.5,-432 351.5,-438 351.5,-444 351.5,-444 351.5,-456 351.5,-456 351.5,-462 345.5,-468 339.5,-468"/>
<text text-anchor="middle" x="296" y="-447.5" font-family="sans" font-size="10.00">QDNAseq_segment</text>
</g>
<!-- 9&#45;&gt;6 -->
<g id="edge20" class="edge">
<title>9&#45;&gt;6</title>
<path fill="none" stroke="grey" stroke-width="2" d="M310.66,-431.68C318.6,-421.7 328.16,-408.66 335,-396 359.19,-351.25 377.78,-294.67 387.49,-261.88"/>
<polygon fill="grey" stroke="grey" stroke-width="2" points="390.9,-262.7 390.33,-252.12 384.18,-260.75 390.9,-262.7"/>
</g>
<!-- 11 -->
<g id="node12" class="node">
<title>11</title>
<path fill="none" stroke="#569ad8" stroke-width="2" d="M314,-396C314,-396 278,-396 278,-396 272,-396 266,-390 266,-384 266,-384 266,-372 266,-372 266,-366 272,-360 278,-360 278,-360 314,-360 314,-360 320,-360 326,-366 326,-372 326,-372 326,-384 326,-384 326,-390 320,-396 314,-396"/>
<text text-anchor="middle" x="296" y="-375.5" font-family="sans" font-size="10.00">CNA_call</text>
</g>
<!-- 9&#45;&gt;11 -->
<g id="edge26" class="edge">
<title>9&#45;&gt;11</title>
<path fill="none" stroke="grey" stroke-width="2" d="M296,-431.7C296,-423.98 296,-414.71 296,-406.11"/>
<polygon fill="grey" stroke="grey" stroke-width="2" points="299.5,-406.1 296,-396.1 292.5,-406.1 299.5,-406.1"/>
</g>
<!-- 18 -->
<g id="node19" class="node">
<title>18</title>
<path fill="none" stroke="#d89c56" stroke-width="2" d="M232,-396C232,-396 202,-396 202,-396 196,-396 190,-390 190,-384 190,-384 190,-372 190,-372 190,-366 196,-360 202,-360 202,-360 232,-360 232,-360 238,-360 244,-366 244,-372 244,-372 244,-384 244,-384 244,-390 238,-396 232,-396"/>
<text text-anchor="middle" x="217" y="-375.5" font-family="sans" font-size="10.00">ACE</text>
</g>
<!-- 9&#45;&gt;18 -->
<g id="edge33" class="edge">
<title>9&#45;&gt;18</title>
<path fill="none" stroke="grey" stroke-width="2" d="M276.47,-431.7C266.62,-422.97 254.51,-412.24 243.8,-402.75"/>
<polygon fill="grey" stroke="grey" stroke-width="2" points="246.11,-400.12 236.3,-396.1 241.47,-405.36 246.11,-400.12"/>
</g>
<!-- 22 -->
<g id="node23" class="node">
<title>22</title>
<path fill="none" stroke="#56b1d8" stroke-width="2" d="M112,-324C112,-324 12,-324 12,-324 6,-324 0,-318 0,-312 0,-312 0,-300 0,-300 0,-294 6,-288 12,-288 12,-288 112,-288 112,-288 118,-288 124,-294 124,-300 124,-300 124,-312 124,-312 124,-318 118,-324 112,-324"/>
<text text-anchor="middle" x="62" y="-303.5" font-family="sans" font-size="10.00">postanalysisloop_ACE</text>
</g>
<!-- 9&#45;&gt;22 -->
<g id="edge37" class="edge">
<title>9&#45;&gt;22</title>
<path fill="none" stroke="grey" stroke-width="2" d="M253.4,-431.92C231.24,-422.4 204.04,-409.72 181,-396 148.08,-376.4 113.31,-349.6 89.92,-330.54"/>
<polygon fill="grey" stroke="grey" stroke-width="2" points="92.09,-327.79 82.14,-324.14 87.64,-333.2 92.09,-327.79"/>
</g>
<!-- 10&#45;&gt;6 -->
<g id="edge21" class="edge">
<title>10&#45;&gt;6</title>
<path fill="none" stroke="grey" stroke-width="2" d="M378.07,-503.97C381.07,-456.29 389.58,-321.18 393.26,-262.63"/>
<polygon fill="grey" stroke="grey" stroke-width="2" points="396.78,-262.51 393.91,-252.31 389.79,-262.07 396.78,-262.51"/>
</g>
<!-- 10&#45;&gt;9 -->
<g id="edge24" class="edge">
<title>10&#45;&gt;9</title>
<path fill="none" stroke="grey" stroke-width="2" d="M356.98,-503.7C346.87,-494.97 334.46,-484.24 323.48,-474.75"/>
<polygon fill="grey" stroke="grey" stroke-width="2" points="325.65,-471.99 315.79,-468.1 321.07,-477.29 325.65,-471.99"/>
</g>
<!-- 11&#45;&gt;6 -->
<g id="edge19" class="edge">
<title>11&#45;&gt;6</title>
<path fill="none" stroke="grey" stroke-width="2" d="M303.3,-359.74C311.56,-341.16 326.1,-311.14 343,-288 350.35,-277.94 359.57,-267.91 368.19,-259.34"/>
<polygon fill="grey" stroke="grey" stroke-width="2" points="370.8,-261.68 375.55,-252.21 365.93,-256.65 370.8,-261.68"/>
</g>
<!-- 17 -->
<g id="node18" class="node">
<title>17</title>
<path fill="none" stroke="#56d87b" stroke-width="2" d="M279.5,-324C279.5,-324 154.5,-324 154.5,-324 148.5,-324 142.5,-318 142.5,-312 142.5,-312 142.5,-300 142.5,-300 142.5,-294 148.5,-288 154.5,-288 154.5,-288 279.5,-288 279.5,-288 285.5,-288 291.5,-294 291.5,-300 291.5,-300 291.5,-312 291.5,-312 291.5,-318 285.5,-324 279.5,-324"/>
<text text-anchor="middle" x="217" y="-303.5" font-family="sans" font-size="10.00">CNA_call_cellularity_based</text>
</g>
<!-- 11&#45;&gt;17 -->
<g id="edge31" class="edge">
<title>11&#45;&gt;17</title>
<path fill="none" stroke="grey" stroke-width="2" d="M276.47,-359.7C266.62,-350.97 254.51,-340.24 243.8,-330.75"/>
<polygon fill="grey" stroke="grey" stroke-width="2" points="246.11,-328.12 236.3,-324.1 241.47,-333.36 246.11,-328.12"/>
</g>
<!-- 12 -->
<g id="node13" class="node">
<title>12</title>
<path fill="none" stroke="#56d8b9" stroke-width="2" d="M648,-252C648,-252 618,-252 618,-252 612,-252 606,-246 606,-240 606,-240 606,-228 606,-228 606,-222 612,-216 618,-216 618,-216 648,-216 648,-216 654,-216 660,-222 660,-228 660,-228 660,-240 660,-240 660,-246 654,-252 648,-252"/>
<text text-anchor="middle" x="633" y="-231.5" font-family="sans" font-size="10.00">qcfastq</text>
</g>
<!-- 12&#45;&gt;0 -->
<g id="edge6" class="edge">
<title>12&#45;&gt;0</title>
<path fill="none" stroke="grey" stroke-width="2" d="M629.7,-215.6C622.73,-183.24 603.59,-113.36 562,-72 538.62,-48.75 503.38,-34.95 476.77,-27.29"/>
<polygon fill="grey" stroke="grey" stroke-width="2" points="477.61,-23.89 467.04,-24.65 475.78,-30.65 477.61,-23.89"/>
</g>
<!-- 12&#45;&gt;1 -->
<g id="edge13" class="edge">
<title>12&#45;&gt;1</title>
<path fill="none" stroke="grey" stroke-width="2" d="M609.03,-215.88C596.45,-206.89 580.87,-195.76 567.25,-186.03"/>
<polygon fill="grey" stroke="grey" stroke-width="2" points="569.24,-183.15 559.07,-180.19 565.17,-188.85 569.24,-183.15"/>
</g>
<!-- 13&#45;&gt;0 -->
<g id="edge2" class="edge">
<title>13&#45;&gt;0</title>
<path fill="none" stroke="grey" stroke-width="2" d="M567.95,-215.71C574.25,-197.6 581.61,-168.46 575,-144 565.33,-108.24 559.33,-98.06 533,-72 516.92,-56.08 495.09,-43.31 476.63,-34.3"/>
<polygon fill="grey" stroke="grey" stroke-width="2" points="477.86,-31.02 467.32,-29.93 474.89,-37.35 477.86,-31.02"/>
</g>
<!-- 13&#45;&gt;1 -->
<g id="edge11" class="edge">
<title>13&#45;&gt;1</title>
<path fill="none" stroke="grey" stroke-width="2" d="M554.57,-215.7C551.64,-207.81 548.11,-198.3 544.86,-189.55"/>
<polygon fill="grey" stroke="grey" stroke-width="2" points="548.12,-188.26 541.35,-180.1 541.55,-190.7 548.12,-188.26"/>
</g>
<!-- 14 -->
<g id="node15" class="node">
<title>14</title>
<path fill="none" stroke="#d88556" stroke-width="2" d="M381,-108C381,-108 237,-108 237,-108 231,-108 225,-102 225,-96 225,-96 225,-84 225,-84 225,-78 231,-72 237,-72 237,-72 381,-72 381,-72 387,-72 393,-78 393,-84 393,-84 393,-96 393,-96 393,-102 387,-108 381,-108"/>
<text text-anchor="middle" x="309" y="-87.5" font-family="sans" font-size="10.00">annotate_RegionsFocalCNAbed</text>
</g>
<!-- 14&#45;&gt;0 -->
<g id="edge4" class="edge">
<title>14&#45;&gt;0</title>
<path fill="none" stroke="grey" stroke-width="2" d="M341.05,-71.88C360.01,-61.74 384.09,-48.88 403.74,-38.37"/>
<polygon fill="grey" stroke="grey" stroke-width="2" points="405.54,-41.38 412.71,-33.58 402.24,-35.21 405.54,-41.38"/>
</g>
<!-- 15 -->
<g id="node16" class="node">
<title>15</title>
<path fill="none" stroke="#d86e56" stroke-width="2" d="M361,-180C361,-180 257,-180 257,-180 251,-180 245,-174 245,-168 245,-168 245,-156 245,-156 245,-150 251,-144 257,-144 257,-144 361,-144 361,-144 367,-144 373,-150 373,-156 373,-156 373,-168 373,-168 373,-174 367,-180 361,-180"/>
<text text-anchor="middle" x="309" y="-159.5" font-family="sans" font-size="10.00">makeCGHregionsTable</text>
</g>
<!-- 15&#45;&gt;14 -->
<g id="edge28" class="edge">
<title>15&#45;&gt;14</title>
<path fill="none" stroke="grey" stroke-width="2" d="M309,-143.7C309,-135.98 309,-126.71 309,-118.11"/>
<polygon fill="grey" stroke="grey" stroke-width="2" points="312.5,-118.1 309,-108.1 305.5,-118.1 312.5,-118.1"/>
</g>
<!-- 16 -->
<g id="node17" class="node">
<title>16</title>
<path fill="none" stroke="#a7d856" stroke-width="2" d="M334,-252C334,-252 284,-252 284,-252 278,-252 272,-246 272,-240 272,-240 272,-228 272,-228 272,-222 278,-216 284,-216 284,-216 334,-216 334,-216 340,-216 346,-222 346,-228 346,-228 346,-240 346,-240 346,-246 340,-252 334,-252"/>
<text text-anchor="middle" x="309" y="-231.5" font-family="sans" font-size="10.00">CGHregions</text>
</g>
<!-- 16&#45;&gt;15 -->
<g id="edge29" class="edge">
<title>16&#45;&gt;15</title>
<path fill="none" stroke="grey" stroke-width="2" d="M309,-215.7C309,-207.98 309,-198.71 309,-190.11"/>
<polygon fill="grey" stroke="grey" stroke-width="2" points="312.5,-190.1 309,-180.1 305.5,-190.1 312.5,-190.1"/>
</g>
<!-- 19 -->
<g id="node20" class="node">
<title>19</title>
<path fill="none" stroke="#61d856" stroke-width="2" d="M456.5,-108C456.5,-108 423.5,-108 423.5,-108 417.5,-108 411.5,-102 411.5,-96 411.5,-96 411.5,-84 411.5,-84 411.5,-78 417.5,-72 423.5,-72 423.5,-72 456.5,-72 456.5,-72 462.5,-72 468.5,-78 468.5,-84 468.5,-84 468.5,-96 468.5,-96 468.5,-102 462.5,-108 456.5,-108"/>
<text text-anchor="middle" x="440" y="-87.5" font-family="sans" font-size="10.00">CGHtest</text>
</g>
<!-- 16&#45;&gt;19 -->
<g id="edge34" class="edge">
<title>16&#45;&gt;19</title>
<path fill="none" stroke="grey" stroke-width="2" d="M337.6,-215.79C351.92,-206.33 368.94,-193.73 382,-180 400.05,-161.02 415.92,-135.71 426.48,-116.93"/>
<polygon fill="grey" stroke="grey" stroke-width="2" points="429.61,-118.49 431.36,-108.04 423.48,-115.12 429.61,-118.49"/>
</g>
<!-- 17&#45;&gt;0 -->
<g id="edge1" class="edge">
<title>17&#45;&gt;0</title>
<path fill="none" stroke="grey" stroke-width="2" d="M210.45,-287.77C195.69,-245.71 164.93,-136.56 216,-72 238.87,-43.08 345.14,-28.32 402.71,-22.33"/>
<polygon fill="grey" stroke="grey" stroke-width="2" points="403.26,-25.79 412.86,-21.31 402.56,-18.82 403.26,-25.79"/>
</g>
<!-- 17&#45;&gt;6 -->
<g id="edge17" class="edge">
<title>17&#45;&gt;6</title>
<path fill="none" stroke="grey" stroke-width="2" d="M262.53,-287.97C289.51,-277.77 324.31,-264.41 355,-252 355.57,-251.77 356.14,-251.54 356.72,-251.3"/>
<polygon fill="grey" stroke="grey" stroke-width="2" points="358.31,-254.43 366.21,-247.38 355.63,-247.96 358.31,-254.43"/>
</g>
<!-- 17&#45;&gt;16 -->
<g id="edge30" class="edge">
<title>17&#45;&gt;16</title>
<path fill="none" stroke="grey" stroke-width="2" d="M239.74,-287.7C251.44,-278.8 265.86,-267.82 278.51,-258.2"/>
<polygon fill="grey" stroke="grey" stroke-width="2" points="280.68,-260.94 286.52,-252.1 276.44,-255.37 280.68,-260.94"/>
</g>
<!-- 21 -->
<g id="node22" class="node">
<title>21</title>
<path fill="none" stroke="#56c9d8" stroke-width="2" d="M149.5,-252C149.5,-252 92.5,-252 92.5,-252 86.5,-252 80.5,-246 80.5,-240 80.5,-240 80.5,-228 80.5,-228 80.5,-222 86.5,-216 92.5,-216 92.5,-216 149.5,-216 149.5,-216 155.5,-216 161.5,-222 161.5,-228 161.5,-228 161.5,-240 161.5,-240 161.5,-246 155.5,-252 149.5,-252"/>
<text text-anchor="middle" x="121" y="-231.5" font-family="sans" font-size="10.00">CNA_bedfiles</text>
</g>
<!-- 17&#45;&gt;21 -->
<g id="edge36" class="edge">
<title>17&#45;&gt;21</title>
<path fill="none" stroke="grey" stroke-width="2" d="M193.27,-287.7C181.06,-278.8 166.01,-267.82 152.82,-258.2"/>
<polygon fill="grey" stroke="grey" stroke-width="2" points="154.6,-255.17 144.46,-252.1 150.48,-260.82 154.6,-255.17"/>
</g>
<!-- 18&#45;&gt;17 -->
<g id="edge32" class="edge">
<title>18&#45;&gt;17</title>
<path fill="none" stroke="grey" stroke-width="2" d="M217,-359.7C217,-351.98 217,-342.71 217,-334.11"/>
<polygon fill="grey" stroke="grey" stroke-width="2" points="220.5,-334.1 217,-324.1 213.5,-334.1 220.5,-334.1"/>
</g>
<!-- 18&#45;&gt;22 -->
<g id="edge38" class="edge">
<title>18&#45;&gt;22</title>
<path fill="none" stroke="grey" stroke-width="2" d="M189.65,-364.65C167.43,-354.61 135.58,-340.23 109.26,-328.34"/>
<polygon fill="grey" stroke="grey" stroke-width="2" points="110.39,-325.01 99.84,-324.09 107.51,-331.39 110.39,-325.01"/>
</g>
<!-- 19&#45;&gt;0 -->
<g id="edge7" class="edge">
<title>19&#45;&gt;0</title>
<path fill="none" stroke="grey" stroke-width="2" d="M440,-71.7C440,-63.98 440,-54.71 440,-46.11"/>
<polygon fill="grey" stroke="grey" stroke-width="2" points="443.5,-46.1 440,-36.1 436.5,-46.1 443.5,-46.1"/>
</g>
<!-- 20 -->
<g id="node21" class="node">
<title>20</title>
<path fill="none" stroke="#8fd856" stroke-width="2" d="M157,-108C157,-108 71,-108 71,-108 65,-108 59,-102 59,-96 59,-96 59,-84 59,-84 59,-78 65,-72 71,-72 71,-72 157,-72 157,-72 163,-72 169,-78 169,-84 169,-84 169,-96 169,-96 169,-102 163,-108 157,-108"/>
<text text-anchor="middle" x="114" y="-87.5" font-family="sans" font-size="10.00">annotate_focalCNA</text>
</g>
<!-- 20&#45;&gt;0 -->
<g id="edge5" class="edge">
<title>20&#45;&gt;0</title>
<path fill="none" stroke="grey" stroke-width="2" d="M169.32,-75.17C173.94,-74.08 178.55,-73.01 183,-72 260.99,-54.36 352.84,-35.99 402.89,-26.19"/>
<polygon fill="grey" stroke="grey" stroke-width="2" points="403.77,-29.58 412.92,-24.23 402.43,-22.71 403.77,-29.58"/>
</g>
<!-- 21&#45;&gt;20 -->
<g id="edge35" class="edge">
<title>21&#45;&gt;20</title>
<path fill="none" stroke="grey" stroke-width="2" d="M120.16,-215.87C118.96,-191.67 116.77,-147.21 115.35,-118.39"/>
<polygon fill="grey" stroke="grey" stroke-width="2" points="118.84,-118 114.85,-108.19 111.84,-118.35 118.84,-118"/>
</g>
<!-- 22&#45;&gt;0 -->
<g id="edge9" class="edge">
<title>22&#45;&gt;0</title>
<path fill="none" stroke="grey" stroke-width="2" d="M53.99,-287.77C35.54,-245.24 -4.35,-134.24 50,-72 73.05,-45.61 309.49,-27.49 402.61,-21.32"/>
<polygon fill="grey" stroke="grey" stroke-width="2" points="402.96,-24.81 412.71,-20.66 402.51,-17.82 402.96,-24.81"/>
</g>
</g>
</svg>
