<?xml version="1.0" encoding="UTF-8" standalone="no"?>
<!DOCTYPE svg PUBLIC "-//W3C//DTD SVG 1.1//EN"
 "http://www.w3.org/Graphics/SVG/1.1/DTD/svg11.dtd">
<!-- Generated by graphviz version 2.42.3 (20191010.1750)
 -->
<!-- Title: snakemake_dag Pages: 1 -->
<svg width="615pt" height="908pt"
 viewBox="0.00 0.00 615.28 908.00" xmlns="http://www.w3.org/2000/svg" xmlns:xlink="http://www.w3.org/1999/xlink">
<g id="graph0" class="graph" transform="scale(1 1) rotate(0) translate(4 904)">
<title>snakemake_dag</title>
<polygon fill="white" stroke="transparent" points="-4,4 -4,-904 611.28,-904 611.28,4 -4,4"/>
<!-- 0 -->
<g id="node1" class="node">
<title>0</title>
<path fill="none" stroke="#5682d8" stroke-width="2" d="M386.28,-36C386.28,-36 356.28,-36 356.28,-36 350.28,-36 344.28,-30 344.28,-24 344.28,-24 344.28,-12 344.28,-12 344.28,-6 350.28,0 356.28,0 356.28,0 386.28,0 386.28,0 392.28,0 398.28,-6 398.28,-12 398.28,-12 398.28,-24 398.28,-24 398.28,-30 392.28,-36 386.28,-36"/>
<text text-anchor="middle" x="371.28" y="-15.5" font-family="sans" font-size="10.00">all</text>
</g>
<!-- 1 -->
<g id="node2" class="node">
<title>1</title>
<path fill="none" stroke="#b6d856" stroke-width="2" d="M184.28,-108C184.28,-108 40.28,-108 40.28,-108 34.28,-108 28.28,-102 28.28,-96 28.28,-96 28.28,-84 28.28,-84 28.28,-78 34.28,-72 40.28,-72 40.28,-72 184.28,-72 184.28,-72 190.28,-72 196.28,-78 196.28,-84 196.28,-84 196.28,-96 196.28,-96 196.28,-102 190.28,-108 184.28,-108"/>
<text text-anchor="middle" x="112.28" y="-87.5" font-family="sans" font-size="10.00">annotate_RegionsFocalCNAbed</text>
</g>
<!-- 1&#45;&gt;0 -->
<g id="edge6" class="edge">
<title>1&#45;&gt;0</title>
<path fill="none" stroke="grey" stroke-width="2" d="M175.3,-71.97C225.1,-58.51 292.89,-40.18 334.29,-29"/>
<polygon fill="grey" stroke="grey" stroke-width="2" points="335.23,-32.37 343.97,-26.38 333.4,-25.61 335.23,-32.37"/>
</g>
<!-- 2 -->
<g id="node3" class="node">
<title>2</title>
<path fill="none" stroke="#56b1d8" stroke-width="2" d="M192.28,-180C192.28,-180 88.28,-180 88.28,-180 82.28,-180 76.28,-174 76.28,-168 76.28,-168 76.28,-156 76.28,-156 76.28,-150 82.28,-144 88.28,-144 88.28,-144 192.28,-144 192.28,-144 198.28,-144 204.28,-150 204.28,-156 204.28,-156 204.28,-168 204.28,-168 204.28,-174 198.28,-180 192.28,-180"/>
<text text-anchor="middle" x="140.28" y="-159.5" font-family="sans" font-size="10.00">makeCGHregionsTable</text>
</g>
<!-- 2&#45;&gt;1 -->
<g id="edge9" class="edge">
<title>2&#45;&gt;1</title>
<path fill="none" stroke="grey" stroke-width="2" d="M133.36,-143.7C130.2,-135.81 126.4,-126.3 122.9,-117.55"/>
<polygon fill="grey" stroke="grey" stroke-width="2" points="126.08,-116.09 119.12,-108.1 119.58,-118.69 126.08,-116.09"/>
</g>
<!-- 3 -->
<g id="node4" class="node">
<title>3</title>
<path fill="none" stroke="#d8b456" stroke-width="2" d="M178.28,-252C178.28,-252 128.28,-252 128.28,-252 122.28,-252 116.28,-246 116.28,-240 116.28,-240 116.28,-228 116.28,-228 116.28,-222 122.28,-216 128.28,-216 128.28,-216 178.28,-216 178.28,-216 184.28,-216 190.28,-222 190.28,-228 190.28,-228 190.28,-240 190.28,-240 190.28,-246 184.28,-252 178.28,-252"/>
<text text-anchor="middle" x="153.28" y="-231.5" font-family="sans" font-size="10.00">CGHregions</text>
</g>
<!-- 3&#45;&gt;2 -->
<g id="edge10" class="edge">
<title>3&#45;&gt;2</title>
<path fill="none" stroke="grey" stroke-width="2" d="M150.06,-215.7C148.63,-207.98 146.91,-198.71 145.31,-190.11"/>
<polygon fill="grey" stroke="grey" stroke-width="2" points="148.72,-189.3 143.45,-180.1 141.84,-190.58 148.72,-189.3"/>
</g>
<!-- 4 -->
<g id="node5" class="node">
<title>4</title>
<path fill="none" stroke="#56d86b" stroke-width="2" d="M318.78,-324C318.78,-324 193.78,-324 193.78,-324 187.78,-324 181.78,-318 181.78,-312 181.78,-312 181.78,-300 181.78,-300 181.78,-294 187.78,-288 193.78,-288 193.78,-288 318.78,-288 318.78,-288 324.78,-288 330.78,-294 330.78,-300 330.78,-300 330.78,-312 330.78,-312 330.78,-318 324.78,-324 318.78,-324"/>
<text text-anchor="middle" x="256.28" y="-303.5" font-family="sans" font-size="10.00">CNA_call_cellularity_based</text>
</g>
<!-- 4&#45;&gt;0 -->
<g id="edge8" class="edge">
<title>4&#45;&gt;0</title>
<path fill="none" stroke="grey" stroke-width="2" d="M279.73,-287.98C291.12,-278.58 304.08,-265.97 312.28,-252 351.67,-184.83 364.98,-91.78 369.31,-46.27"/>
<polygon fill="grey" stroke="grey" stroke-width="2" points="372.82,-46.29 370.2,-36.02 365.84,-45.68 372.82,-46.29"/>
</g>
<!-- 4&#45;&gt;3 -->
<g id="edge11" class="edge">
<title>4&#45;&gt;3</title>
<path fill="none" stroke="grey" stroke-width="2" d="M231.08,-287.88C217.86,-278.89 201.48,-267.76 187.17,-258.03"/>
<polygon fill="grey" stroke="grey" stroke-width="2" points="188.81,-254.92 178.57,-252.19 184.87,-260.71 188.81,-254.92"/>
</g>
<!-- 16 -->
<g id="node17" class="node">
<title>16</title>
<path fill="none" stroke="#d89c56" stroke-width="2" d="M412.78,-252C412.78,-252 379.78,-252 379.78,-252 373.78,-252 367.78,-246 367.78,-240 367.78,-240 367.78,-228 367.78,-228 367.78,-222 373.78,-216 379.78,-216 379.78,-216 412.78,-216 412.78,-216 418.78,-216 424.78,-222 424.78,-228 424.78,-228 424.78,-240 424.78,-240 424.78,-246 418.78,-252 412.78,-252"/>
<text text-anchor="middle" x="396.28" y="-231.5" font-family="sans" font-size="10.00">lightBox</text>
</g>
<!-- 4&#45;&gt;16 -->
<g id="edge31" class="edge">
<title>4&#45;&gt;16</title>
<path fill="none" stroke="grey" stroke-width="2" d="M290.52,-287.88C311.12,-277.58 337.35,-264.46 358.53,-253.87"/>
<polygon fill="grey" stroke="grey" stroke-width="2" points="360.19,-256.95 367.57,-249.35 357.06,-250.69 360.19,-256.95"/>
</g>
<!-- 20 -->
<g id="node21" class="node">
<title>20</title>
<path fill="none" stroke="#d8cb56" stroke-width="2" d="M291.78,-252C291.78,-252 234.78,-252 234.78,-252 228.78,-252 222.78,-246 222.78,-240 222.78,-240 222.78,-228 222.78,-228 222.78,-222 228.78,-216 234.78,-216 234.78,-216 291.78,-216 291.78,-216 297.78,-216 303.78,-222 303.78,-228 303.78,-228 303.78,-240 303.78,-240 303.78,-246 297.78,-252 291.78,-252"/>
<text text-anchor="middle" x="263.28" y="-231.5" font-family="sans" font-size="10.00">CNA_bedfiles</text>
</g>
<!-- 4&#45;&gt;20 -->
<g id="edge34" class="edge">
<title>4&#45;&gt;20</title>
<path fill="none" stroke="grey" stroke-width="2" d="M258.01,-287.7C258.78,-279.98 259.71,-270.71 260.57,-262.11"/>
<polygon fill="grey" stroke="grey" stroke-width="2" points="264.05,-262.4 261.57,-252.1 257.09,-261.71 264.05,-262.4"/>
</g>
<!-- 5 -->
<g id="node6" class="node">
<title>5</title>
<path fill="none" stroke="#88d856" stroke-width="2" d="M394.28,-396C394.28,-396 358.28,-396 358.28,-396 352.28,-396 346.28,-390 346.28,-384 346.28,-384 346.28,-372 346.28,-372 346.28,-366 352.28,-360 358.28,-360 358.28,-360 394.28,-360 394.28,-360 400.28,-360 406.28,-366 406.28,-372 406.28,-372 406.28,-384 406.28,-384 406.28,-390 400.28,-396 394.28,-396"/>
<text text-anchor="middle" x="376.28" y="-375.5" font-family="sans" font-size="10.00">CNA_call</text>
</g>
<!-- 5&#45;&gt;4 -->
<g id="edge13" class="edge">
<title>5&#45;&gt;4</title>
<path fill="none" stroke="grey" stroke-width="2" d="M346.92,-359.88C331.23,-350.72 311.72,-339.34 294.82,-329.48"/>
<polygon fill="grey" stroke="grey" stroke-width="2" points="296.15,-326.21 285.74,-324.19 292.62,-332.25 296.15,-326.21"/>
</g>
<!-- 5&#45;&gt;16 -->
<g id="edge29" class="edge">
<title>5&#45;&gt;16</title>
<path fill="none" stroke="grey" stroke-width="2" d="M378.69,-359.87C382.1,-335.67 388.36,-291.21 392.42,-262.39"/>
<polygon fill="grey" stroke="grey" stroke-width="2" points="395.93,-262.58 393.86,-252.19 389,-261.6 395.93,-262.58"/>
</g>
<!-- 6 -->
<g id="node7" class="node">
<title>6</title>
<path fill="none" stroke="#569ad8" stroke-width="2" d="M445.78,-468C445.78,-468 358.78,-468 358.78,-468 352.78,-468 346.78,-462 346.78,-456 346.78,-456 346.78,-444 346.78,-444 346.78,-438 352.78,-432 358.78,-432 358.78,-432 445.78,-432 445.78,-432 451.78,-432 457.78,-438 457.78,-444 457.78,-444 457.78,-456 457.78,-456 457.78,-462 451.78,-468 445.78,-468"/>
<text text-anchor="middle" x="402.28" y="-447.5" font-family="sans" font-size="10.00">QDNAseq_segment</text>
</g>
<!-- 6&#45;&gt;5 -->
<g id="edge14" class="edge">
<title>6&#45;&gt;5</title>
<path fill="none" stroke="grey" stroke-width="2" d="M395.85,-431.7C392.92,-423.81 389.39,-414.3 386.14,-405.55"/>
<polygon fill="grey" stroke="grey" stroke-width="2" points="389.39,-404.26 382.63,-396.1 382.83,-406.7 389.39,-404.26"/>
</g>
<!-- 13 -->
<g id="node14" class="node">
<title>13</title>
<path fill="none" stroke="#d88556" stroke-width="2" d="M271.28,-396C271.28,-396 241.28,-396 241.28,-396 235.28,-396 229.28,-390 229.28,-384 229.28,-384 229.28,-372 229.28,-372 229.28,-366 235.28,-360 241.28,-360 241.28,-360 271.28,-360 271.28,-360 277.28,-360 283.28,-366 283.28,-372 283.28,-372 283.28,-384 283.28,-384 283.28,-390 277.28,-396 271.28,-396"/>
<text text-anchor="middle" x="256.28" y="-375.5" font-family="sans" font-size="10.00">ACE</text>
</g>
<!-- 6&#45;&gt;13 -->
<g id="edge21" class="edge">
<title>6&#45;&gt;13</title>
<path fill="none" stroke="grey" stroke-width="2" d="M366.56,-431.88C344.11,-421.11 315.22,-407.26 292.64,-396.43"/>
<polygon fill="grey" stroke="grey" stroke-width="2" points="293.92,-393.16 283.39,-392 290.89,-399.48 293.92,-393.16"/>
</g>
<!-- 6&#45;&gt;16 -->
<g id="edge30" class="edge">
<title>6&#45;&gt;16</title>
<path fill="none" stroke="grey" stroke-width="2" d="M407.69,-431.53C410.57,-421.29 413.82,-408.04 415.28,-396 420.95,-349.06 410.99,-294.38 403.48,-262.35"/>
<polygon fill="grey" stroke="grey" stroke-width="2" points="406.82,-261.28 401.05,-252.4 400.02,-262.94 406.82,-261.28"/>
</g>
<!-- 21 -->
<g id="node22" class="node">
<title>21</title>
<path fill="none" stroke="#59d856" stroke-width="2" d="M151.28,-324C151.28,-324 51.28,-324 51.28,-324 45.28,-324 39.28,-318 39.28,-312 39.28,-312 39.28,-300 39.28,-300 39.28,-294 45.28,-288 51.28,-288 51.28,-288 151.28,-288 151.28,-288 157.28,-288 163.28,-294 163.28,-300 163.28,-300 163.28,-312 163.28,-312 163.28,-318 157.28,-324 151.28,-324"/>
<text text-anchor="middle" x="101.28" y="-303.5" font-family="sans" font-size="10.00">postanalysisloop_ACE</text>
</g>
<!-- 6&#45;&gt;21 -->
<g id="edge36" class="edge">
<title>6&#45;&gt;21</title>
<path fill="none" stroke="grey" stroke-width="2" d="M346.6,-438.25C309.55,-429.79 260.47,-416.05 220.28,-396 185.38,-378.59 150.2,-350.7 127.24,-330.79"/>
<polygon fill="grey" stroke="grey" stroke-width="2" points="129.47,-328.09 119.65,-324.11 124.84,-333.34 129.47,-328.09"/>
</g>
<!-- 7 -->
<g id="node8" class="node">
<title>7</title>
<path fill="none" stroke="#d85656" stroke-width="2" d="M418.28,-540C418.28,-540 386.28,-540 386.28,-540 380.28,-540 374.28,-534 374.28,-528 374.28,-528 374.28,-516 374.28,-516 374.28,-510 380.28,-504 386.28,-504 386.28,-504 418.28,-504 418.28,-504 424.28,-504 430.28,-510 430.28,-516 430.28,-516 430.28,-528 430.28,-528 430.28,-534 424.28,-540 418.28,-540"/>
<text text-anchor="middle" x="402.28" y="-519.5" font-family="sans" font-size="10.00">deWave</text>
</g>
<!-- 7&#45;&gt;6 -->
<g id="edge15" class="edge">
<title>7&#45;&gt;6</title>
<path fill="none" stroke="grey" stroke-width="2" d="M402.28,-503.7C402.28,-495.98 402.28,-486.71 402.28,-478.11"/>
<polygon fill="grey" stroke="grey" stroke-width="2" points="405.78,-478.1 402.28,-468.1 398.78,-478.1 405.78,-478.1"/>
</g>
<!-- 7&#45;&gt;16 -->
<g id="edge27" class="edge">
<title>7&#45;&gt;16</title>
<path fill="none" stroke="grey" stroke-width="2" d="M430.37,-505.73C443.9,-496.71 458.79,-483.93 466.28,-468 473.09,-453.52 468.44,-447.85 466.28,-432 457.31,-366.19 451.71,-349.36 426.28,-288 422.47,-278.82 417.41,-269.23 412.54,-260.78"/>
<polygon fill="grey" stroke="grey" stroke-width="2" points="415.51,-258.93 407.39,-252.12 409.49,-262.51 415.51,-258.93"/>
</g>
<!-- 8 -->
<g id="node9" class="node">
<title>8</title>
<path fill="none" stroke="#56d8b1" stroke-width="2" d="M440.78,-612C440.78,-612 347.78,-612 347.78,-612 341.78,-612 335.78,-606 335.78,-600 335.78,-600 335.78,-588 335.78,-588 335.78,-582 341.78,-576 347.78,-576 347.78,-576 440.78,-576 440.78,-576 446.78,-576 452.78,-582 452.78,-588 452.78,-588 452.78,-600 452.78,-600 452.78,-606 446.78,-612 440.78,-612"/>
<text text-anchor="middle" x="394.28" y="-591.5" font-family="sans" font-size="10.00">QDNAseq_normalize</text>
</g>
<!-- 8&#45;&gt;7 -->
<g id="edge16" class="edge">
<title>8&#45;&gt;7</title>
<path fill="none" stroke="grey" stroke-width="2" d="M396.25,-575.7C397.14,-567.98 398.2,-558.71 399.18,-550.11"/>
<polygon fill="grey" stroke="grey" stroke-width="2" points="402.66,-550.44 400.32,-540.1 395.71,-549.64 402.66,-550.44"/>
</g>
<!-- 8&#45;&gt;16 -->
<g id="edge28" class="edge">
<title>8&#45;&gt;16</title>
<path fill="none" stroke="grey" stroke-width="2" d="M384.03,-575.63C378.19,-565.42 370.94,-552.17 365.28,-540 331.1,-466.6 319.57,-439 337.28,-360 345.42,-323.66 365.37,-285.45 379.82,-260.99"/>
<polygon fill="grey" stroke="grey" stroke-width="2" points="382.88,-262.69 385.05,-252.32 376.89,-259.07 382.88,-262.69"/>
</g>
<!-- 9 -->
<g id="node10" class="node">
<title>9</title>
<path fill="none" stroke="#56c9d8" stroke-width="2" d="M463.78,-684C463.78,-684 346.78,-684 346.78,-684 340.78,-684 334.78,-678 334.78,-672 334.78,-672 334.78,-660 334.78,-660 334.78,-654 340.78,-648 346.78,-648 346.78,-648 463.78,-648 463.78,-648 469.78,-648 475.78,-654 475.78,-660 475.78,-660 475.78,-672 475.78,-672 475.78,-678 469.78,-684 463.78,-684"/>
<text text-anchor="middle" x="405.28" y="-663.5" font-family="sans" font-size="10.00">QDNAseq_binReadCounts</text>
</g>
<!-- 9&#45;&gt;8 -->
<g id="edge17" class="edge">
<title>9&#45;&gt;8</title>
<path fill="none" stroke="grey" stroke-width="2" d="M402.56,-647.7C401.35,-639.98 399.89,-630.71 398.54,-622.11"/>
<polygon fill="grey" stroke="grey" stroke-width="2" points="401.97,-621.44 396.96,-612.1 395.06,-622.53 401.97,-621.44"/>
</g>
<!-- 10 -->
<g id="node11" class="node">
<title>10</title>
<path fill="none" stroke="#56d89a" stroke-width="2" d="M552.28,-756C552.28,-756 478.28,-756 478.28,-756 472.28,-756 466.28,-750 466.28,-744 466.28,-744 466.28,-732 466.28,-732 466.28,-726 472.28,-720 478.28,-720 478.28,-720 552.28,-720 552.28,-720 558.28,-720 564.28,-726 564.28,-732 564.28,-732 564.28,-744 564.28,-744 564.28,-750 558.28,-756 552.28,-756"/>
<text text-anchor="middle" x="515.28" y="-735.5" font-family="sans" font-size="10.00">mark_duplicates</text>
</g>
<!-- 10&#45;&gt;9 -->
<g id="edge18" class="edge">
<title>10&#45;&gt;9</title>
<path fill="none" stroke="grey" stroke-width="2" d="M488.37,-719.88C474.12,-710.81 456.43,-699.55 441.04,-689.76"/>
<polygon fill="grey" stroke="grey" stroke-width="2" points="442.6,-686.61 432.29,-684.19 438.85,-692.51 442.6,-686.61"/>
</g>
<!-- 15 -->
<g id="node16" class="node">
<title>15</title>
<path fill="none" stroke="#56d8c9" stroke-width="2" d="M547.78,-612C547.78,-612 482.78,-612 482.78,-612 476.78,-612 470.78,-606 470.78,-600 470.78,-600 470.78,-588 470.78,-588 470.78,-582 476.78,-576 482.78,-576 482.78,-576 547.78,-576 547.78,-576 553.78,-576 559.78,-582 559.78,-588 559.78,-588 559.78,-600 559.78,-600 559.78,-606 553.78,-612 547.78,-612"/>
<text text-anchor="middle" x="515.28" y="-591.5" font-family="sans" font-size="10.00">generate_stats</text>
</g>
<!-- 10&#45;&gt;15 -->
<g id="edge26" class="edge">
<title>10&#45;&gt;15</title>
<path fill="none" stroke="grey" stroke-width="2" d="M515.28,-719.87C515.28,-695.67 515.28,-651.21 515.28,-622.39"/>
<polygon fill="grey" stroke="grey" stroke-width="2" points="518.78,-622.19 515.28,-612.19 511.78,-622.19 518.78,-622.19"/>
</g>
<!-- 18 -->
<g id="node19" class="node">
<title>18</title>
<path fill="none" stroke="#d86e56" stroke-width="2" d="M595.28,-252C595.28,-252 565.28,-252 565.28,-252 559.28,-252 553.28,-246 553.28,-240 553.28,-240 553.28,-228 553.28,-228 553.28,-222 559.28,-216 565.28,-216 565.28,-216 595.28,-216 595.28,-216 601.28,-216 607.28,-222 607.28,-228 607.28,-228 607.28,-240 607.28,-240 607.28,-246 601.28,-252 595.28,-252"/>
<text text-anchor="middle" x="580.28" y="-231.5" font-family="sans" font-size="10.00">qcbam</text>
</g>
<!-- 10&#45;&gt;18 -->
<g id="edge32" class="edge">
<title>10&#45;&gt;18</title>
<path fill="none" stroke="grey" stroke-width="2" d="M531.12,-719.65C552.59,-694.27 588.28,-644.62 588.28,-595 588.28,-595 588.28,-595 588.28,-377 588.28,-336.93 585.06,-290.61 582.71,-262.05"/>
<polygon fill="grey" stroke="grey" stroke-width="2" points="586.19,-261.7 581.86,-252.03 579.22,-262.29 586.19,-261.7"/>
</g>
<!-- 11 -->
<g id="node12" class="node">
<title>11</title>
<path fill="none" stroke="#56d882" stroke-width="2" d="M546.28,-828C546.28,-828 484.28,-828 484.28,-828 478.28,-828 472.28,-822 472.28,-816 472.28,-816 472.28,-804 472.28,-804 472.28,-798 478.28,-792 484.28,-792 484.28,-792 546.28,-792 546.28,-792 552.28,-792 558.28,-798 558.28,-804 558.28,-804 558.28,-816 558.28,-816 558.28,-822 552.28,-828 546.28,-828"/>
<text text-anchor="middle" x="515.28" y="-807.5" font-family="sans" font-size="10.00">samtools_sort</text>
</g>
<!-- 11&#45;&gt;10 -->
<g id="edge19" class="edge">
<title>11&#45;&gt;10</title>
<path fill="none" stroke="grey" stroke-width="2" d="M515.28,-791.7C515.28,-783.98 515.28,-774.71 515.28,-766.11"/>
<polygon fill="grey" stroke="grey" stroke-width="2" points="518.78,-766.1 515.28,-756.1 511.78,-766.1 518.78,-766.1"/>
</g>
<!-- 12 -->
<g id="node13" class="node">
<title>12</title>
<path fill="none" stroke="#9fd856" stroke-width="2" d="M531.78,-900C531.78,-900 498.78,-900 498.78,-900 492.78,-900 486.78,-894 486.78,-888 486.78,-888 486.78,-876 486.78,-876 486.78,-870 492.78,-864 498.78,-864 498.78,-864 531.78,-864 531.78,-864 537.78,-864 543.78,-870 543.78,-876 543.78,-876 543.78,-888 543.78,-888 543.78,-894 537.78,-900 531.78,-900"/>
<text text-anchor="middle" x="515.28" y="-879.5" font-family="sans" font-size="10.00">bwa_aln</text>
</g>
<!-- 12&#45;&gt;11 -->
<g id="edge20" class="edge">
<title>12&#45;&gt;11</title>
<path fill="none" stroke="grey" stroke-width="2" d="M515.28,-863.7C515.28,-855.98 515.28,-846.71 515.28,-838.11"/>
<polygon fill="grey" stroke="grey" stroke-width="2" points="518.78,-838.1 515.28,-828.1 511.78,-838.1 518.78,-838.1"/>
</g>
<!-- 13&#45;&gt;4 -->
<g id="edge12" class="edge">
<title>13&#45;&gt;4</title>
<path fill="none" stroke="grey" stroke-width="2" d="M256.28,-359.7C256.28,-351.98 256.28,-342.71 256.28,-334.11"/>
<polygon fill="grey" stroke="grey" stroke-width="2" points="259.78,-334.1 256.28,-324.1 252.78,-334.1 259.78,-334.1"/>
</g>
<!-- 13&#45;&gt;21 -->
<g id="edge35" class="edge">
<title>13&#45;&gt;21</title>
<path fill="none" stroke="grey" stroke-width="2" d="M228.92,-364.65C206.71,-354.61 174.86,-340.23 148.53,-328.34"/>
<polygon fill="grey" stroke="grey" stroke-width="2" points="149.67,-325.01 139.11,-324.09 146.79,-331.39 149.67,-325.01"/>
</g>
<!-- 14 -->
<g id="node15" class="node">
<title>14</title>
<path fill="none" stroke="#70d856" stroke-width="2" d="M507.78,-180C507.78,-180 468.78,-180 468.78,-180 462.78,-180 456.78,-174 456.78,-168 456.78,-168 456.78,-156 456.78,-156 456.78,-150 462.78,-144 468.78,-144 468.78,-144 507.78,-144 507.78,-144 513.78,-144 519.78,-150 519.78,-156 519.78,-156 519.78,-168 519.78,-168 519.78,-174 513.78,-180 507.78,-180"/>
<text text-anchor="middle" x="488.28" y="-159.5" font-family="sans" font-size="10.00">summary</text>
</g>
<!-- 14&#45;&gt;0 -->
<g id="edge4" class="edge">
<title>14&#45;&gt;0</title>
<path fill="none" stroke="grey" stroke-width="2" d="M482.14,-143.9C474.75,-124.91 460.95,-94.02 442.28,-72 432.25,-60.18 419.12,-49.45 406.88,-40.79"/>
<polygon fill="grey" stroke="grey" stroke-width="2" points="408.83,-37.89 398.6,-35.14 404.89,-43.67 408.83,-37.89"/>
</g>
<!-- 15&#45;&gt;14 -->
<g id="edge24" class="edge">
<title>15&#45;&gt;14</title>
<path fill="none" stroke="grey" stroke-width="2" d="M517.25,-575.98C520.17,-549.36 525.28,-496.23 525.28,-451 525.28,-451 525.28,-451 525.28,-305 525.28,-263.71 510.44,-217.77 499.56,-189.63"/>
<polygon fill="grey" stroke="grey" stroke-width="2" points="502.72,-188.11 495.76,-180.11 496.22,-190.7 502.72,-188.11"/>
</g>
<!-- 16&#45;&gt;0 -->
<g id="edge2" class="edge">
<title>16&#45;&gt;0</title>
<path fill="none" stroke="grey" stroke-width="2" d="M394.27,-215.85C389.95,-178.83 379.71,-91.18 374.48,-46.39"/>
<polygon fill="grey" stroke="grey" stroke-width="2" points="377.93,-45.76 373.29,-36.23 370.97,-46.57 377.93,-45.76"/>
</g>
<!-- 16&#45;&gt;14 -->
<g id="edge23" class="edge">
<title>16&#45;&gt;14</title>
<path fill="none" stroke="grey" stroke-width="2" d="M419.02,-215.7C430.72,-206.8 445.14,-195.82 457.79,-186.2"/>
<polygon fill="grey" stroke="grey" stroke-width="2" points="459.96,-188.94 465.8,-180.1 455.72,-183.37 459.96,-188.94"/>
</g>
<!-- 17 -->
<g id="node18" class="node">
<title>17</title>
<path fill="none" stroke="#ced856" stroke-width="2" d="M485.28,-252C485.28,-252 455.28,-252 455.28,-252 449.28,-252 443.28,-246 443.28,-240 443.28,-240 443.28,-228 443.28,-228 443.28,-222 449.28,-216 455.28,-216 455.28,-216 485.28,-216 485.28,-216 491.28,-216 497.28,-222 497.28,-228 497.28,-228 497.28,-240 497.28,-240 497.28,-246 491.28,-252 485.28,-252"/>
<text text-anchor="middle" x="470.28" y="-231.5" font-family="sans" font-size="10.00">qcfastq</text>
</g>
<!-- 17&#45;&gt;0 -->
<g id="edge5" class="edge">
<title>17&#45;&gt;0</title>
<path fill="none" stroke="grey" stroke-width="2" d="M462.34,-215.85C445.11,-178.6 404.15,-90.07 383.55,-45.54"/>
<polygon fill="grey" stroke="grey" stroke-width="2" points="386.62,-43.84 379.25,-36.23 380.27,-46.78 386.62,-43.84"/>
</g>
<!-- 17&#45;&gt;14 -->
<g id="edge22" class="edge">
<title>17&#45;&gt;14</title>
<path fill="none" stroke="grey" stroke-width="2" d="M474.73,-215.7C476.73,-207.9 479.15,-198.51 481.38,-189.83"/>
<polygon fill="grey" stroke="grey" stroke-width="2" points="484.78,-190.66 483.88,-180.1 478,-188.92 484.78,-190.66"/>
</g>
<!-- 18&#45;&gt;0 -->
<g id="edge1" class="edge">
<title>18&#45;&gt;0</title>
<path fill="none" stroke="grey" stroke-width="2" d="M572.16,-215.59C556.29,-183.23 518.17,-113.34 467.28,-72 449.2,-57.32 426.48,-44.56 407.68,-35.25"/>
<polygon fill="grey" stroke="grey" stroke-width="2" points="409.05,-32.03 398.53,-30.83 406.01,-38.33 409.05,-32.03"/>
</g>
<!-- 18&#45;&gt;14 -->
<g id="edge25" class="edge">
<title>18&#45;&gt;14</title>
<path fill="none" stroke="grey" stroke-width="2" d="M557.54,-215.7C545.84,-206.8 531.42,-195.82 518.77,-186.2"/>
<polygon fill="grey" stroke="grey" stroke-width="2" points="520.83,-183.37 510.76,-180.1 516.6,-188.94 520.83,-183.37"/>
</g>
<!-- 19 -->
<g id="node20" class="node">
<title>19</title>
<path fill="none" stroke="#566bd8" stroke-width="2" d="M312.28,-108C312.28,-108 226.28,-108 226.28,-108 220.28,-108 214.28,-102 214.28,-96 214.28,-96 214.28,-84 214.28,-84 214.28,-78 220.28,-72 226.28,-72 226.28,-72 312.28,-72 312.28,-72 318.28,-72 324.28,-78 324.28,-84 324.28,-84 324.28,-96 324.28,-96 324.28,-102 318.28,-108 312.28,-108"/>
<text text-anchor="middle" x="269.28" y="-87.5" font-family="sans" font-size="10.00">annotate_focalCNA</text>
</g>
<!-- 19&#45;&gt;0 -->
<g id="edge3" class="edge">
<title>19&#45;&gt;0</title>
<path fill="none" stroke="grey" stroke-width="2" d="M294.23,-71.88C307.32,-62.89 323.54,-51.76 337.71,-42.03"/>
<polygon fill="grey" stroke="grey" stroke-width="2" points="339.96,-44.73 346.23,-36.19 336,-38.96 339.96,-44.73"/>
</g>
<!-- 20&#45;&gt;19 -->
<g id="edge33" class="edge">
<title>20&#45;&gt;19</title>
<path fill="none" stroke="grey" stroke-width="2" d="M264,-215.87C265.02,-191.67 266.9,-147.21 268.12,-118.39"/>
<polygon fill="grey" stroke="grey" stroke-width="2" points="271.63,-118.33 268.55,-108.19 264.63,-118.03 271.63,-118.33"/>
</g>
<!-- 21&#45;&gt;0 -->
<g id="edge7" class="edge">
<title>21&#45;&gt;0</title>
<path fill="none" stroke="grey" stroke-width="2" d="M85.16,-287.97C47.74,-246.36 -37.65,-138.14 19.28,-72 59.59,-25.16 251.73,-19.16 333.88,-18.77"/>
<polygon fill="grey" stroke="grey" stroke-width="2" points="334.04,-22.27 344.03,-18.75 334.02,-15.27 334.04,-22.27"/>
</g>
</g>
</svg>
