<?xml version="1.0" encoding="UTF-8" standalone="no"?>
<!DOCTYPE svg PUBLIC "-//W3C//DTD SVG 1.1//EN"
 "http://www.w3.org/Graphics/SVG/1.1/DTD/svg11.dtd">
<!-- Generated by graphviz version 2.42.3 (20191010.1750)
 -->
<!-- Title: snakemake_dag Pages: 1 -->
<svg width="902pt" height="923pt"
 viewBox="0.00 0.00 902.00 923.00" xmlns="http://www.w3.org/2000/svg" xmlns:xlink="http://www.w3.org/1999/xlink">
<g id="graph0" class="graph" transform="scale(1 1) rotate(0) translate(4 919)">
<title>snakemake_dag</title>
<polygon fill="white" stroke="transparent" points="-4,4 -4,-919 898,-919 898,4 -4,4"/>
<!-- 0 -->
<g id="node1" class="node">
<title>0</title>
<path fill="none" stroke="#88d856" stroke-width="2" d="M474,-36C474,-36 444,-36 444,-36 438,-36 432,-30 432,-24 432,-24 432,-12 432,-12 432,-6 438,0 444,0 444,0 474,0 474,0 480,0 486,-6 486,-12 486,-12 486,-24 486,-24 486,-30 480,-36 474,-36"/>
<text text-anchor="middle" x="459" y="-15.5" font-family="sans" font-size="10.00">all</text>
</g>
<!-- 1 -->
<g id="node2" class="node">
<title>1</title>
<path fill="none" stroke="#d89c56" stroke-width="2" d="M200,-110.5C200,-110.5 56,-110.5 56,-110.5 50,-110.5 44,-104.5 44,-98.5 44,-98.5 44,-86.5 44,-86.5 44,-80.5 50,-74.5 56,-74.5 56,-74.5 200,-74.5 200,-74.5 206,-74.5 212,-80.5 212,-86.5 212,-86.5 212,-98.5 212,-98.5 212,-104.5 206,-110.5 200,-110.5"/>
<text text-anchor="middle" x="128" y="-90" font-family="sans" font-size="10.00">annotate_RegionsFocalCNAbed</text>
</g>
<!-- 1&#45;&gt;0 -->
<g id="edge1" class="edge">
<title>1&#45;&gt;0</title>
<path fill="none" stroke="grey" stroke-width="2" d="M206.02,-74.41C274.11,-59.5 369.92,-38.51 421.92,-27.12"/>
<polygon fill="grey" stroke="grey" stroke-width="2" points="422.69,-30.54 431.71,-24.98 421.19,-23.7 422.69,-30.54"/>
</g>
<!-- 2 -->
<g id="node3" class="node">
<title>2</title>
<path fill="none" stroke="#d88556" stroke-width="2" d="M187,-187.5C187,-187.5 83,-187.5 83,-187.5 77,-187.5 71,-181.5 71,-175.5 71,-175.5 71,-163.5 71,-163.5 71,-157.5 77,-151.5 83,-151.5 83,-151.5 187,-151.5 187,-151.5 193,-151.5 199,-157.5 199,-163.5 199,-163.5 199,-175.5 199,-175.5 199,-181.5 193,-187.5 187,-187.5"/>
<text text-anchor="middle" x="135" y="-172.5" font-family="sans" font-size="10.00">makeCGHregionsTable</text>
<text text-anchor="middle" x="135" y="-161.5" font-family="sans" font-size="10.00">binSize: 100</text>
</g>
<!-- 2&#45;&gt;1 -->
<g id="edge9" class="edge">
<title>2&#45;&gt;1</title>
<path fill="none" stroke="grey" stroke-width="2" d="M133.41,-151.48C132.57,-142.44 131.51,-131.1 130.55,-120.85"/>
<polygon fill="grey" stroke="grey" stroke-width="2" points="134.02,-120.34 129.61,-110.71 127.05,-120.99 134.02,-120.34"/>
</g>
<!-- 3 -->
<g id="node4" class="node">
<title>3</title>
<path fill="none" stroke="#59d856" stroke-width="2" d="M174,-262C174,-262 124,-262 124,-262 118,-262 112,-256 112,-250 112,-250 112,-238 112,-238 112,-232 118,-226 124,-226 124,-226 174,-226 174,-226 180,-226 186,-232 186,-238 186,-238 186,-250 186,-250 186,-256 180,-262 174,-262"/>
<text text-anchor="middle" x="149" y="-241.5" font-family="sans" font-size="10.00">CGHregions</text>
</g>
<!-- 3&#45;&gt;2 -->
<g id="edge10" class="edge">
<title>3&#45;&gt;2</title>
<path fill="none" stroke="grey" stroke-width="2" d="M145.68,-225.82C144.04,-217.33 142.03,-206.89 140.19,-197.38"/>
<polygon fill="grey" stroke="grey" stroke-width="2" points="143.63,-196.71 138.29,-187.56 136.75,-198.04 143.63,-196.71"/>
</g>
<!-- 4 -->
<g id="node5" class="node">
<title>4</title>
<path fill="none" stroke="#56d86b" stroke-width="2" d="M279.5,-334C279.5,-334 154.5,-334 154.5,-334 148.5,-334 142.5,-328 142.5,-322 142.5,-322 142.5,-310 142.5,-310 142.5,-304 148.5,-298 154.5,-298 154.5,-298 279.5,-298 279.5,-298 285.5,-298 291.5,-304 291.5,-310 291.5,-310 291.5,-322 291.5,-322 291.5,-328 285.5,-334 279.5,-334"/>
<text text-anchor="middle" x="217" y="-313.5" font-family="sans" font-size="10.00">CNA_call_cellularity_based</text>
</g>
<!-- 4&#45;&gt;0 -->
<g id="edge8" class="edge">
<title>4&#45;&gt;0</title>
<path fill="none" stroke="grey" stroke-width="2" d="M285.78,-297.99C312.17,-289.6 341.74,-277.82 366,-262 402.87,-237.96 414.81,-229.61 434,-190 456.6,-143.34 460.08,-81.76 459.96,-46.66"/>
<polygon fill="grey" stroke="grey" stroke-width="2" points="463.45,-46.2 459.81,-36.25 456.45,-46.3 463.45,-46.2"/>
</g>
<!-- 4&#45;&gt;3 -->
<g id="edge11" class="edge">
<title>4&#45;&gt;3</title>
<path fill="none" stroke="grey" stroke-width="2" d="M200.19,-297.7C191.87,-289.14 181.69,-278.66 172.61,-269.3"/>
<polygon fill="grey" stroke="grey" stroke-width="2" points="175.09,-266.84 165.62,-262.1 170.07,-271.72 175.09,-266.84"/>
</g>
<!-- 22 -->
<g id="node23" class="node">
<title>22</title>
<path fill="none" stroke="#ced856" stroke-width="2" d="M399.5,-113C399.5,-113 242.5,-113 242.5,-113 236.5,-113 230.5,-107 230.5,-101 230.5,-101 230.5,-84 230.5,-84 230.5,-78 236.5,-72 242.5,-72 242.5,-72 399.5,-72 399.5,-72 405.5,-72 411.5,-78 411.5,-84 411.5,-84 411.5,-101 411.5,-101 411.5,-107 405.5,-113 399.5,-113"/>
<text text-anchor="middle" x="321" y="-101" font-family="sans" font-size="10.00">lightBox</text>
<text text-anchor="middle" x="321" y="-90" font-family="sans" font-size="10.00">binSize: 100</text>
<text text-anchor="middle" x="321" y="-79" font-family="sans" font-size="10.00">profiletype: call_cellularity_based</text>
</g>
<!-- 4&#45;&gt;22 -->
<g id="edge35" class="edge">
<title>4&#45;&gt;22</title>
<path fill="none" stroke="grey" stroke-width="2" d="M224.99,-297.99C242.71,-260.25 285.46,-169.18 307.45,-122.36"/>
<polygon fill="grey" stroke="grey" stroke-width="2" points="310.73,-123.62 311.81,-113.08 304.39,-120.64 310.73,-123.62"/>
</g>
<!-- 24 -->
<g id="node25" class="node">
<title>24</title>
<path fill="none" stroke="#b6d856" stroke-width="2" d="M345.5,-262C345.5,-262 288.5,-262 288.5,-262 282.5,-262 276.5,-256 276.5,-250 276.5,-250 276.5,-238 276.5,-238 276.5,-232 282.5,-226 288.5,-226 288.5,-226 345.5,-226 345.5,-226 351.5,-226 357.5,-232 357.5,-238 357.5,-238 357.5,-250 357.5,-250 357.5,-256 351.5,-262 345.5,-262"/>
<text text-anchor="middle" x="317" y="-241.5" font-family="sans" font-size="10.00">CNA_bedfiles</text>
</g>
<!-- 4&#45;&gt;24 -->
<g id="edge37" class="edge">
<title>4&#45;&gt;24</title>
<path fill="none" stroke="grey" stroke-width="2" d="M241.46,-297.88C254.3,-288.89 270.2,-277.76 284.09,-268.03"/>
<polygon fill="grey" stroke="grey" stroke-width="2" points="286.26,-270.79 292.44,-262.19 282.24,-265.06 286.26,-270.79"/>
</g>
<!-- 5 -->
<g id="node6" class="node">
<title>5</title>
<path fill="none" stroke="#569ad8" stroke-width="2" d="M346,-408.5C346,-408.5 310,-408.5 310,-408.5 304,-408.5 298,-402.5 298,-396.5 298,-396.5 298,-384.5 298,-384.5 298,-378.5 304,-372.5 310,-372.5 310,-372.5 346,-372.5 346,-372.5 352,-372.5 358,-378.5 358,-384.5 358,-384.5 358,-396.5 358,-396.5 358,-402.5 352,-408.5 346,-408.5"/>
<text text-anchor="middle" x="328" y="-388" font-family="sans" font-size="10.00">CNA_call</text>
</g>
<!-- 5&#45;&gt;4 -->
<g id="edge12" class="edge">
<title>5&#45;&gt;4</title>
<path fill="none" stroke="grey" stroke-width="2" d="M301.69,-372.32C286.76,-362.57 267.9,-350.24 251.76,-339.7"/>
<polygon fill="grey" stroke="grey" stroke-width="2" points="253.4,-336.6 243.12,-334.06 249.58,-342.46 253.4,-336.6"/>
</g>
<!-- 18 -->
<g id="node19" class="node">
<title>18</title>
<path fill="none" stroke="#ced856" stroke-width="2" d="M443,-334C443,-334 363,-334 363,-334 357,-334 351,-328 351,-322 351,-322 351,-310 351,-310 351,-304 357,-298 363,-298 363,-298 443,-298 443,-298 449,-298 455,-304 455,-310 455,-310 455,-322 455,-322 455,-328 449,-334 443,-334"/>
<text text-anchor="middle" x="403" y="-319" font-family="sans" font-size="10.00">lightBox</text>
<text text-anchor="middle" x="403" y="-308" font-family="sans" font-size="10.00">profiletype: called</text>
</g>
<!-- 5&#45;&gt;18 -->
<g id="edge32" class="edge">
<title>5&#45;&gt;18</title>
<path fill="none" stroke="grey" stroke-width="2" d="M345.77,-372.32C355.39,-363.02 367.44,-351.38 377.99,-341.18"/>
<polygon fill="grey" stroke="grey" stroke-width="2" points="380.6,-343.52 385.35,-334.06 375.73,-338.49 380.6,-343.52"/>
</g>
<!-- 6 -->
<g id="node7" class="node">
<title>6</title>
<path fill="none" stroke="#d86e56" stroke-width="2" d="M396.5,-483C396.5,-483 309.5,-483 309.5,-483 303.5,-483 297.5,-477 297.5,-471 297.5,-471 297.5,-459 297.5,-459 297.5,-453 303.5,-447 309.5,-447 309.5,-447 396.5,-447 396.5,-447 402.5,-447 408.5,-453 408.5,-459 408.5,-459 408.5,-471 408.5,-471 408.5,-477 402.5,-483 396.5,-483"/>
<text text-anchor="middle" x="353" y="-462.5" font-family="sans" font-size="10.00">QDNAseq_segment</text>
</g>
<!-- 6&#45;&gt;5 -->
<g id="edge14" class="edge">
<title>6&#45;&gt;5</title>
<path fill="none" stroke="grey" stroke-width="2" d="M347.08,-446.82C344.12,-438.24 340.47,-427.67 337.17,-418.08"/>
<polygon fill="grey" stroke="grey" stroke-width="2" points="340.45,-416.87 333.88,-408.56 333.83,-419.15 340.45,-416.87"/>
</g>
<!-- 13 -->
<g id="node14" class="node">
<title>13</title>
<path fill="none" stroke="#9fd856" stroke-width="2" d="M229.5,-411C229.5,-411 158.5,-411 158.5,-411 152.5,-411 146.5,-405 146.5,-399 146.5,-399 146.5,-382 146.5,-382 146.5,-376 152.5,-370 158.5,-370 158.5,-370 229.5,-370 229.5,-370 235.5,-370 241.5,-376 241.5,-382 241.5,-382 241.5,-399 241.5,-399 241.5,-405 235.5,-411 229.5,-411"/>
<text text-anchor="middle" x="194" y="-399" font-family="sans" font-size="10.00">ACE</text>
<text text-anchor="middle" x="194" y="-388" font-family="sans" font-size="10.00">ACEbinSize: 100</text>
<text text-anchor="middle" x="194" y="-377" font-family="sans" font-size="10.00">ploidy: 2</text>
</g>
<!-- 6&#45;&gt;13 -->
<g id="edge21" class="edge">
<title>6&#45;&gt;13</title>
<path fill="none" stroke="grey" stroke-width="2" d="M315.32,-446.82C294.66,-437.4 268.73,-425.57 246.15,-415.28"/>
<polygon fill="grey" stroke="grey" stroke-width="2" points="247.58,-412.08 237.03,-411.12 244.67,-418.45 247.58,-412.08"/>
</g>
<!-- 17 -->
<g id="node18" class="node">
<title>17</title>
<path fill="none" stroke="#ced856" stroke-width="2" d="M494,-408.5C494,-408.5 388,-408.5 388,-408.5 382,-408.5 376,-402.5 376,-396.5 376,-396.5 376,-384.5 376,-384.5 376,-378.5 382,-372.5 388,-372.5 388,-372.5 494,-372.5 494,-372.5 500,-372.5 506,-378.5 506,-384.5 506,-384.5 506,-396.5 506,-396.5 506,-402.5 500,-408.5 494,-408.5"/>
<text text-anchor="middle" x="441" y="-393.5" font-family="sans" font-size="10.00">lightBox</text>
<text text-anchor="middle" x="441" y="-382.5" font-family="sans" font-size="10.00">profiletype: segmented</text>
</g>
<!-- 6&#45;&gt;17 -->
<g id="edge31" class="edge">
<title>6&#45;&gt;17</title>
<path fill="none" stroke="grey" stroke-width="2" d="M373.85,-446.82C385.36,-437.34 399.82,-425.43 412.37,-415.08"/>
<polygon fill="grey" stroke="grey" stroke-width="2" points="414.8,-417.62 420.29,-408.56 410.35,-412.22 414.8,-417.62"/>
</g>
<!-- 25 -->
<g id="node26" class="node">
<title>25</title>
<path fill="none" stroke="#566bd8" stroke-width="2" d="M112,-334C112,-334 12,-334 12,-334 6,-334 0,-328 0,-322 0,-322 0,-310 0,-310 0,-304 6,-298 12,-298 12,-298 112,-298 112,-298 118,-298 124,-304 124,-310 124,-310 124,-322 124,-322 124,-328 118,-334 112,-334"/>
<text text-anchor="middle" x="62" y="-313.5" font-family="sans" font-size="10.00">postanalysisloop_ACE</text>
</g>
<!-- 6&#45;&gt;25 -->
<g id="edge38" class="edge">
<title>6&#45;&gt;25</title>
<path fill="none" stroke="grey" stroke-width="2" d="M297.2,-460.26C251.13,-454.95 185.63,-442.1 137,-411 110.38,-393.97 89.01,-364.22 76,-342.74"/>
<polygon fill="grey" stroke="grey" stroke-width="2" points="79.02,-340.96 70.94,-334.1 72.98,-344.5 79.02,-340.96"/>
</g>
<!-- 7 -->
<g id="node8" class="node">
<title>7</title>
<path fill="none" stroke="#56d882" stroke-width="2" d="M483,-555C483,-555 451,-555 451,-555 445,-555 439,-549 439,-543 439,-543 439,-531 439,-531 439,-525 445,-519 451,-519 451,-519 483,-519 483,-519 489,-519 495,-525 495,-531 495,-531 495,-543 495,-543 495,-549 489,-555 483,-555"/>
<text text-anchor="middle" x="467" y="-534.5" font-family="sans" font-size="10.00">deWave</text>
</g>
<!-- 7&#45;&gt;6 -->
<g id="edge15" class="edge">
<title>7&#45;&gt;6</title>
<path fill="none" stroke="grey" stroke-width="2" d="M439.11,-518.88C424.21,-509.72 405.67,-498.34 389.62,-488.48"/>
<polygon fill="grey" stroke="grey" stroke-width="2" points="391.35,-485.44 380.99,-483.19 387.69,-491.41 391.35,-485.44"/>
</g>
<!-- 19 -->
<g id="node20" class="node">
<title>19</title>
<path fill="none" stroke="#ced856" stroke-width="2" d="M533.5,-483C533.5,-483 438.5,-483 438.5,-483 432.5,-483 426.5,-477 426.5,-471 426.5,-471 426.5,-459 426.5,-459 426.5,-453 432.5,-447 438.5,-447 438.5,-447 533.5,-447 533.5,-447 539.5,-447 545.5,-453 545.5,-459 545.5,-459 545.5,-471 545.5,-471 545.5,-477 539.5,-483 533.5,-483"/>
<text text-anchor="middle" x="486" y="-468" font-family="sans" font-size="10.00">lightBox</text>
<text text-anchor="middle" x="486" y="-457" font-family="sans" font-size="10.00">profiletype: dewaved</text>
</g>
<!-- 7&#45;&gt;19 -->
<g id="edge33" class="edge">
<title>7&#45;&gt;19</title>
<path fill="none" stroke="grey" stroke-width="2" d="M471.7,-518.7C473.81,-510.9 476.36,-501.51 478.72,-492.83"/>
<polygon fill="grey" stroke="grey" stroke-width="2" points="482.12,-493.67 481.36,-483.1 475.36,-491.84 482.12,-493.67"/>
</g>
<!-- 8 -->
<g id="node9" class="node">
<title>8</title>
<path fill="none" stroke="#56d8b1" stroke-width="2" d="M570.5,-627C570.5,-627 477.5,-627 477.5,-627 471.5,-627 465.5,-621 465.5,-615 465.5,-615 465.5,-603 465.5,-603 465.5,-597 471.5,-591 477.5,-591 477.5,-591 570.5,-591 570.5,-591 576.5,-591 582.5,-597 582.5,-603 582.5,-603 582.5,-615 582.5,-615 582.5,-621 576.5,-627 570.5,-627"/>
<text text-anchor="middle" x="524" y="-606.5" font-family="sans" font-size="10.00">QDNAseq_normalize</text>
</g>
<!-- 8&#45;&gt;7 -->
<g id="edge16" class="edge">
<title>8&#45;&gt;7</title>
<path fill="none" stroke="grey" stroke-width="2" d="M509.91,-590.7C503.08,-582.3 494.74,-572.07 487.24,-562.86"/>
<polygon fill="grey" stroke="grey" stroke-width="2" points="489.96,-560.65 480.93,-555.1 484.53,-565.07 489.96,-560.65"/>
</g>
<!-- 16 -->
<g id="node17" class="node">
<title>16</title>
<path fill="none" stroke="#ced856" stroke-width="2" d="M622.5,-555C622.5,-555 525.5,-555 525.5,-555 519.5,-555 513.5,-549 513.5,-543 513.5,-543 513.5,-531 513.5,-531 513.5,-525 519.5,-519 525.5,-519 525.5,-519 622.5,-519 622.5,-519 628.5,-519 634.5,-525 634.5,-531 634.5,-531 634.5,-543 634.5,-543 634.5,-549 628.5,-555 622.5,-555"/>
<text text-anchor="middle" x="574" y="-540" font-family="sans" font-size="10.00">lightBox</text>
<text text-anchor="middle" x="574" y="-529" font-family="sans" font-size="10.00">profiletype: corrected</text>
</g>
<!-- 8&#45;&gt;16 -->
<g id="edge30" class="edge">
<title>8&#45;&gt;16</title>
<path fill="none" stroke="grey" stroke-width="2" d="M536.36,-590.7C542.23,-582.47 549.37,-572.48 555.84,-563.42"/>
<polygon fill="grey" stroke="grey" stroke-width="2" points="558.82,-565.28 561.78,-555.1 553.12,-561.21 558.82,-565.28"/>
</g>
<!-- 9 -->
<g id="node10" class="node">
<title>9</title>
<path fill="none" stroke="#d8cb56" stroke-width="2" d="M582.5,-699C582.5,-699 465.5,-699 465.5,-699 459.5,-699 453.5,-693 453.5,-687 453.5,-687 453.5,-675 453.5,-675 453.5,-669 459.5,-663 465.5,-663 465.5,-663 582.5,-663 582.5,-663 588.5,-663 594.5,-669 594.5,-675 594.5,-675 594.5,-687 594.5,-687 594.5,-693 588.5,-699 582.5,-699"/>
<text text-anchor="middle" x="524" y="-684" font-family="sans" font-size="10.00">QDNAseq_binReadCounts</text>
<text text-anchor="middle" x="524" y="-673" font-family="sans" font-size="10.00">binSize: 100</text>
</g>
<!-- 9&#45;&gt;8 -->
<g id="edge17" class="edge">
<title>9&#45;&gt;8</title>
<path fill="none" stroke="grey" stroke-width="2" d="M524,-662.7C524,-654.98 524,-645.71 524,-637.11"/>
<polygon fill="grey" stroke="grey" stroke-width="2" points="527.5,-637.1 524,-627.1 520.5,-637.1 527.5,-637.1"/>
</g>
<!-- 10 -->
<g id="node11" class="node">
<title>10</title>
<path fill="none" stroke="#70d856" stroke-width="2" d="M561,-771C561,-771 487,-771 487,-771 481,-771 475,-765 475,-759 475,-759 475,-747 475,-747 475,-741 481,-735 487,-735 487,-735 561,-735 561,-735 567,-735 573,-741 573,-747 573,-747 573,-759 573,-759 573,-765 567,-771 561,-771"/>
<text text-anchor="middle" x="524" y="-750.5" font-family="sans" font-size="10.00">mark_duplicates</text>
</g>
<!-- 10&#45;&gt;9 -->
<g id="edge18" class="edge">
<title>10&#45;&gt;9</title>
<path fill="none" stroke="grey" stroke-width="2" d="M524,-734.7C524,-726.98 524,-717.71 524,-709.11"/>
<polygon fill="grey" stroke="grey" stroke-width="2" points="527.5,-709.1 524,-699.1 520.5,-709.1 527.5,-709.1"/>
</g>
<!-- 15 -->
<g id="node16" class="node">
<title>15</title>
<path fill="none" stroke="#d8b456" stroke-width="2" d="M346.5,-627C346.5,-627 281.5,-627 281.5,-627 275.5,-627 269.5,-621 269.5,-615 269.5,-615 269.5,-603 269.5,-603 269.5,-597 275.5,-591 281.5,-591 281.5,-591 346.5,-591 346.5,-591 352.5,-591 358.5,-597 358.5,-603 358.5,-603 358.5,-615 358.5,-615 358.5,-621 352.5,-627 346.5,-627"/>
<text text-anchor="middle" x="314" y="-606.5" font-family="sans" font-size="10.00">generate_stats</text>
</g>
<!-- 10&#45;&gt;15 -->
<g id="edge29" class="edge">
<title>10&#45;&gt;15</title>
<path fill="none" stroke="grey" stroke-width="2" d="M497.99,-734.91C482.31,-724.58 461.96,-711.1 444,-699 410.98,-676.76 373.49,-651.04 347.28,-632.99"/>
<polygon fill="grey" stroke="grey" stroke-width="2" points="349.07,-629.97 338.85,-627.17 345.09,-635.73 349.07,-629.97"/>
</g>
<!-- 21 -->
<g id="node22" class="node">
<title>21</title>
<path fill="none" stroke="#56d89a" stroke-width="2" d="M882,-334C882,-334 852,-334 852,-334 846,-334 840,-328 840,-322 840,-322 840,-310 840,-310 840,-304 846,-298 852,-298 852,-298 882,-298 882,-298 888,-298 894,-304 894,-310 894,-310 894,-322 894,-322 894,-328 888,-334 882,-334"/>
<text text-anchor="middle" x="867" y="-313.5" font-family="sans" font-size="10.00">qcbam</text>
</g>
<!-- 10&#45;&gt;21 -->
<g id="edge34" class="edge">
<title>10&#45;&gt;21</title>
<path fill="none" stroke="grey" stroke-width="2" d="M561.83,-734.9C604.5,-712.72 668,-669.69 668,-610 668,-610 668,-610 668,-464 668,-424.02 773.21,-364.47 830.63,-334.94"/>
<polygon fill="grey" stroke="grey" stroke-width="2" points="832.42,-337.95 839.75,-330.29 829.25,-331.71 832.42,-337.95"/>
</g>
<!-- 11 -->
<g id="node12" class="node">
<title>11</title>
<path fill="none" stroke="#d85656" stroke-width="2" d="M555,-843C555,-843 493,-843 493,-843 487,-843 481,-837 481,-831 481,-831 481,-819 481,-819 481,-813 487,-807 493,-807 493,-807 555,-807 555,-807 561,-807 567,-813 567,-819 567,-819 567,-831 567,-831 567,-837 561,-843 555,-843"/>
<text text-anchor="middle" x="524" y="-822.5" font-family="sans" font-size="10.00">samtools_sort</text>
</g>
<!-- 11&#45;&gt;10 -->
<g id="edge19" class="edge">
<title>11&#45;&gt;10</title>
<path fill="none" stroke="grey" stroke-width="2" d="M524,-806.7C524,-798.98 524,-789.71 524,-781.11"/>
<polygon fill="grey" stroke="grey" stroke-width="2" points="527.5,-781.1 524,-771.1 520.5,-781.1 527.5,-781.1"/>
</g>
<!-- 12 -->
<g id="node13" class="node">
<title>12</title>
<path fill="none" stroke="#56b1d8" stroke-width="2" d="M550.5,-915C550.5,-915 497.5,-915 497.5,-915 491.5,-915 485.5,-909 485.5,-903 485.5,-903 485.5,-891 485.5,-891 485.5,-885 491.5,-879 497.5,-879 497.5,-879 550.5,-879 550.5,-879 556.5,-879 562.5,-885 562.5,-891 562.5,-891 562.5,-903 562.5,-903 562.5,-909 556.5,-915 550.5,-915"/>
<text text-anchor="middle" x="524" y="-900" font-family="sans" font-size="10.00">bwa_aln</text>
<text text-anchor="middle" x="524" y="-889" font-family="sans" font-size="10.00">sample: 003</text>
</g>
<!-- 12&#45;&gt;11 -->
<g id="edge20" class="edge">
<title>12&#45;&gt;11</title>
<path fill="none" stroke="grey" stroke-width="2" d="M524,-878.7C524,-870.98 524,-861.71 524,-853.11"/>
<polygon fill="grey" stroke="grey" stroke-width="2" points="527.5,-853.1 524,-843.1 520.5,-853.1 527.5,-853.1"/>
</g>
<!-- 13&#45;&gt;4 -->
<g id="edge13" class="edge">
<title>13&#45;&gt;4</title>
<path fill="none" stroke="grey" stroke-width="2" d="M200.28,-369.69C202.81,-361.73 205.76,-352.44 208.47,-343.89"/>
<polygon fill="grey" stroke="grey" stroke-width="2" points="211.82,-344.91 211.51,-334.32 205.15,-342.79 211.82,-344.91"/>
</g>
<!-- 13&#45;&gt;25 -->
<g id="edge39" class="edge">
<title>13&#45;&gt;25</title>
<path fill="none" stroke="grey" stroke-width="2" d="M158.28,-369.88C140.98,-360.38 120.15,-348.94 102.29,-339.13"/>
<polygon fill="grey" stroke="grey" stroke-width="2" points="103.7,-335.91 93.25,-334.17 100.33,-342.05 103.7,-335.91"/>
</g>
<!-- 14 -->
<g id="node15" class="node">
<title>14</title>
<path fill="none" stroke="#56c9d8" stroke-width="2" d="M557.5,-262C557.5,-262 518.5,-262 518.5,-262 512.5,-262 506.5,-256 506.5,-250 506.5,-250 506.5,-238 506.5,-238 506.5,-232 512.5,-226 518.5,-226 518.5,-226 557.5,-226 557.5,-226 563.5,-226 569.5,-232 569.5,-238 569.5,-238 569.5,-250 569.5,-250 569.5,-256 563.5,-262 557.5,-262"/>
<text text-anchor="middle" x="538" y="-241.5" font-family="sans" font-size="10.00">summary</text>
</g>
<!-- 14&#45;&gt;0 -->
<g id="edge2" class="edge">
<title>14&#45;&gt;0</title>
<path fill="none" stroke="grey" stroke-width="2" d="M535.13,-225.94C529.49,-194.54 515.4,-125.86 492,-72 488,-62.8 482.58,-53.33 477.29,-44.98"/>
<polygon fill="grey" stroke="grey" stroke-width="2" points="480.09,-42.87 471.68,-36.43 474.24,-46.71 480.09,-42.87"/>
</g>
<!-- 15&#45;&gt;14 -->
<g id="edge22" class="edge">
<title>15&#45;&gt;14</title>
<path fill="none" stroke="grey" stroke-width="2" d="M307.36,-590.73C293,-550.74 262.43,-449.17 289,-370 301.64,-332.33 309.21,-320.44 342,-298 388.8,-265.97 454.17,-253.27 496.3,-248.25"/>
<polygon fill="grey" stroke="grey" stroke-width="2" points="496.93,-251.7 506.49,-247.13 496.17,-244.74 496.93,-251.7"/>
</g>
<!-- 16&#45;&gt;14 -->
<g id="edge23" class="edge">
<title>16&#45;&gt;14</title>
<path fill="none" stroke="grey" stroke-width="2" d="M572.59,-518.91C569.26,-479.73 560.26,-380.43 548,-298 546.74,-289.53 545.11,-280.36 543.52,-272.06"/>
<polygon fill="grey" stroke="grey" stroke-width="2" points="546.94,-271.27 541.58,-262.13 540.07,-272.61 546.94,-271.27"/>
</g>
<!-- 17&#45;&gt;14 -->
<g id="edge24" class="edge">
<title>17&#45;&gt;14</title>
<path fill="none" stroke="grey" stroke-width="2" d="M452.51,-372.36C469.43,-347.15 501.13,-299.92 520.81,-270.6"/>
<polygon fill="grey" stroke="grey" stroke-width="2" points="523.84,-272.37 526.51,-262.12 518.03,-268.47 523.84,-272.37"/>
</g>
<!-- 18&#45;&gt;14 -->
<g id="edge25" class="edge">
<title>18&#45;&gt;14</title>
<path fill="none" stroke="grey" stroke-width="2" d="M436.02,-297.88C454.49,-288.3 477.66,-276.29 497.24,-266.13"/>
<polygon fill="grey" stroke="grey" stroke-width="2" points="498.98,-269.18 506.25,-261.47 495.76,-262.96 498.98,-269.18"/>
</g>
<!-- 19&#45;&gt;14 -->
<g id="edge26" class="edge">
<title>19&#45;&gt;14</title>
<path fill="none" stroke="grey" stroke-width="2" d="M497.63,-446.59C503.76,-436.58 510.85,-423.55 515,-411 530.5,-364.09 535.56,-306.38 537.21,-272.83"/>
<polygon fill="grey" stroke="grey" stroke-width="2" points="540.72,-272.57 537.64,-262.43 533.73,-272.27 540.72,-272.57"/>
</g>
<!-- 20 -->
<g id="node21" class="node">
<title>20</title>
<path fill="none" stroke="#56d8c9" stroke-width="2" d="M809.5,-334C809.5,-334 612.5,-334 612.5,-334 606.5,-334 600.5,-328 600.5,-322 600.5,-322 600.5,-310 600.5,-310 600.5,-304 606.5,-298 612.5,-298 612.5,-298 809.5,-298 809.5,-298 815.5,-298 821.5,-304 821.5,-310 821.5,-310 821.5,-322 821.5,-322 821.5,-328 815.5,-334 809.5,-334"/>
<text text-anchor="middle" x="711" y="-319" font-family="sans" font-size="10.00">qcfastq</text>
<text text-anchor="middle" x="711" y="-308" font-family="sans" font-size="10.00">sample: 003_R2_I3_repeat_lib_S1_R1_001</text>
</g>
<!-- 20&#45;&gt;0 -->
<g id="edge5" class="edge">
<title>20&#45;&gt;0</title>
<path fill="none" stroke="grey" stroke-width="2" d="M698.3,-297.91C667.95,-257.39 588.18,-152.82 514,-72 505.03,-62.23 494.68,-52.01 485.39,-43.17"/>
<polygon fill="grey" stroke="grey" stroke-width="2" points="487.57,-40.42 477.89,-36.12 482.78,-45.52 487.57,-40.42"/>
</g>
<!-- 20&#45;&gt;14 -->
<g id="edge27" class="edge">
<title>20&#45;&gt;14</title>
<path fill="none" stroke="grey" stroke-width="2" d="M668.68,-297.88C641.42,-286.85 606.15,-272.58 579.13,-261.64"/>
<polygon fill="grey" stroke="grey" stroke-width="2" points="580.16,-258.28 569.58,-257.78 577.53,-264.77 580.16,-258.28"/>
</g>
<!-- 21&#45;&gt;0 -->
<g id="edge6" class="edge">
<title>21&#45;&gt;0</title>
<path fill="none" stroke="grey" stroke-width="2" d="M845.76,-297.73C795.1,-256.81 662.72,-151.44 546,-72 529.62,-60.85 510.92,-49.31 495.06,-39.86"/>
<polygon fill="grey" stroke="grey" stroke-width="2" points="496.48,-36.63 486.09,-34.55 492.92,-42.66 496.48,-36.63"/>
</g>
<!-- 21&#45;&gt;14 -->
<g id="edge28" class="edge">
<title>21&#45;&gt;14</title>
<path fill="none" stroke="grey" stroke-width="2" d="M839.82,-301.59C836.56,-300.25 833.24,-299.02 830,-298 743.26,-270.68 637.31,-255.84 579.88,-249.25"/>
<polygon fill="grey" stroke="grey" stroke-width="2" points="580.07,-245.75 569.74,-248.12 579.29,-252.71 580.07,-245.75"/>
</g>
<!-- 22&#45;&gt;0 -->
<g id="edge3" class="edge">
<title>22&#45;&gt;0</title>
<path fill="none" stroke="grey" stroke-width="2" d="M358.34,-71.88C378.33,-61.38 402.84,-48.51 422.66,-38.09"/>
<polygon fill="grey" stroke="grey" stroke-width="2" points="424.47,-41.09 431.7,-33.34 421.22,-34.9 424.47,-41.09"/>
</g>
<!-- 23 -->
<g id="node24" class="node">
<title>23</title>
<path fill="none" stroke="#5682d8" stroke-width="2" d="M413,-190C413,-190 327,-190 327,-190 321,-190 315,-184 315,-178 315,-178 315,-161 315,-161 315,-155 321,-149 327,-149 327,-149 413,-149 413,-149 419,-149 425,-155 425,-161 425,-161 425,-178 425,-178 425,-184 419,-190 413,-190"/>
<text text-anchor="middle" x="370" y="-178" font-family="sans" font-size="10.00">annotate_focalCNA</text>
<text text-anchor="middle" x="370" y="-167" font-family="sans" font-size="10.00">binSize: 100</text>
<text text-anchor="middle" x="370" y="-156" font-family="sans" font-size="10.00">sample: 003</text>
</g>
<!-- 23&#45;&gt;0 -->
<g id="edge4" class="edge">
<title>23&#45;&gt;0</title>
<path fill="none" stroke="grey" stroke-width="2" d="M390.8,-148.78C400.57,-138.74 411.83,-125.94 420,-113 433.36,-91.85 443.87,-65.35 450.59,-45.88"/>
<polygon fill="grey" stroke="grey" stroke-width="2" points="454,-46.73 453.85,-36.14 447.36,-44.51 454,-46.73"/>
</g>
<!-- 24&#45;&gt;23 -->
<g id="edge36" class="edge">
<title>24&#45;&gt;23</title>
<path fill="none" stroke="grey" stroke-width="2" d="M329.56,-225.82C335.56,-217.61 342.89,-207.58 349.66,-198.33"/>
<polygon fill="grey" stroke="grey" stroke-width="2" points="352.58,-200.26 355.66,-190.12 346.93,-196.13 352.58,-200.26"/>
</g>
<!-- 25&#45;&gt;0 -->
<g id="edge7" class="edge">
<title>25&#45;&gt;0</title>
<path fill="none" stroke="grey" stroke-width="2" d="M52.52,-298C29.62,-254.38 -22.73,-137.39 35,-72 60.46,-43.16 323.06,-26.26 421.77,-20.88"/>
<polygon fill="grey" stroke="grey" stroke-width="2" points="422.09,-24.37 431.89,-20.34 421.71,-17.38 422.09,-24.37"/>
</g>
</g>
</svg>
