<?xml version="1.0" encoding="UTF-8" standalone="no"?>
<!DOCTYPE svg PUBLIC "-//W3C//DTD SVG 1.1//EN"
 "http://www.w3.org/Graphics/SVG/1.1/DTD/svg11.dtd">
<!-- Generated by graphviz version 2.38.0 (20140413.2041)
 -->
<!-- Title: snakemake_dag Pages: 1 -->
<svg width="624pt" height="908pt"
 viewBox="0.00 0.00 624.00 908.00" xmlns="http://www.w3.org/2000/svg" xmlns:xlink="http://www.w3.org/1999/xlink">
<g id="graph0" class="graph" transform="scale(1 1) rotate(0) translate(4 904)">
<title>snakemake_dag</title>
<polygon fill="white" stroke="none" points="-4,4 -4,-904 620,-904 620,4 -4,4"/>
<!-- 0 -->
<g id="node1" class="node"><title>0</title>
<path fill="none" stroke="#d85656" stroke-width="2" d="M511,-612C511,-612 481,-612 481,-612 475,-612 469,-606 469,-600 469,-600 469,-588 469,-588 469,-582 475,-576 481,-576 481,-576 511,-576 511,-576 517,-576 523,-582 523,-588 523,-588 523,-600 523,-600 523,-606 517,-612 511,-612"/>
<text text-anchor="middle" x="496" y="-591.5" font-family="sans" font-size="10.00">qcbam</text>
</g>
<!-- 2 -->
<g id="node3" class="node"><title>2</title>
<path fill="none" stroke="#d86e56" stroke-width="2" d="M519.5,-180C519.5,-180 480.5,-180 480.5,-180 474.5,-180 468.5,-174 468.5,-168 468.5,-168 468.5,-156 468.5,-156 468.5,-150 474.5,-144 480.5,-144 480.5,-144 519.5,-144 519.5,-144 525.5,-144 531.5,-150 531.5,-156 531.5,-156 531.5,-168 531.5,-168 531.5,-174 525.5,-180 519.5,-180"/>
<text text-anchor="middle" x="500" y="-159.5" font-family="sans" font-size="10.00">summary</text>
</g>
<!-- 0&#45;&gt;2 -->
<g id="edge2" class="edge"><title>0&#45;&gt;2</title>
<path fill="none" stroke="grey" stroke-width="2" d="M496,-575.951C496,-549.292 496,-496.115 496,-451 496,-451 496,-451 496,-305 496,-264.98 497.607,-218.641 498.784,-190.073"/>
<polygon fill="grey" stroke="grey" stroke-width="2" points="502.282,-190.184 499.21,-180.045 495.289,-189.887 502.282,-190.184"/>
</g>
<!-- 1 -->
<g id="node2" class="node"><title>1</title>
<path fill="none" stroke="#59d856" stroke-width="2" d="M512.5,-900C512.5,-900 479.5,-900 479.5,-900 473.5,-900 467.5,-894 467.5,-888 467.5,-888 467.5,-876 467.5,-876 467.5,-870 473.5,-864 479.5,-864 479.5,-864 512.5,-864 512.5,-864 518.5,-864 524.5,-870 524.5,-876 524.5,-876 524.5,-888 524.5,-888 524.5,-894 518.5,-900 512.5,-900"/>
<text text-anchor="middle" x="496" y="-879.5" font-family="sans" font-size="10.00">bwa_aln</text>
</g>
<!-- 8 -->
<g id="node9" class="node"><title>8</title>
<path fill="none" stroke="#56d8c9" stroke-width="2" d="M527,-828C527,-828 465,-828 465,-828 459,-828 453,-822 453,-816 453,-816 453,-804 453,-804 453,-798 459,-792 465,-792 465,-792 527,-792 527,-792 533,-792 539,-798 539,-804 539,-804 539,-816 539,-816 539,-822 533,-828 527,-828"/>
<text text-anchor="middle" x="496" y="-807.5" font-family="sans" font-size="10.00">samtools_sort</text>
</g>
<!-- 1&#45;&gt;8 -->
<g id="edge12" class="edge"><title>1&#45;&gt;8</title>
<path fill="none" stroke="grey" stroke-width="2" d="M496,-863.697C496,-855.983 496,-846.712 496,-838.112"/>
<polygon fill="grey" stroke="grey" stroke-width="2" points="499.5,-838.104 496,-828.104 492.5,-838.104 499.5,-838.104"/>
</g>
<!-- 15 -->
<g id="node16" class="node"><title>15</title>
<path fill="none" stroke="#56c9d8" stroke-width="2" d="M287,-36C287,-36 257,-36 257,-36 251,-36 245,-30 245,-24 245,-24 245,-12 245,-12 245,-6 251,-0 257,-0 257,-0 287,-0 287,-0 293,-0 299,-6 299,-12 299,-12 299,-24 299,-24 299,-30 293,-36 287,-36"/>
<text text-anchor="middle" x="272" y="-15.5" font-family="sans" font-size="10.00">all</text>
</g>
<!-- 2&#45;&gt;15 -->
<g id="edge18" class="edge"><title>2&#45;&gt;15</title>
<path fill="none" stroke="grey" stroke-width="2" d="M495.644,-143.977C489.625,-123.871 476.832,-90.7887 454,-72 412.245,-37.6385 349.11,-25.5524 309.244,-21.3027"/>
<polygon fill="grey" stroke="grey" stroke-width="2" points="309.433,-17.8049 299.146,-20.3408 308.769,-24.7733 309.433,-17.8049"/>
</g>
<!-- 3 -->
<g id="node4" class="node"><title>3</title>
<path fill="none" stroke="#56d89a" stroke-width="2" d="M370,-180C370,-180 266,-180 266,-180 260,-180 254,-174 254,-168 254,-168 254,-156 254,-156 254,-150 260,-144 266,-144 266,-144 370,-144 370,-144 376,-144 382,-150 382,-156 382,-156 382,-168 382,-168 382,-174 376,-180 370,-180"/>
<text text-anchor="middle" x="318" y="-159.5" font-family="sans" font-size="10.00">makeCGHregionsTable</text>
</g>
<!-- 4 -->
<g id="node5" class="node"><title>4</title>
<path fill="none" stroke="#5682d8" stroke-width="2" d="M400,-108C400,-108 256,-108 256,-108 250,-108 244,-102 244,-96 244,-96 244,-84 244,-84 244,-78 250,-72 256,-72 256,-72 400,-72 400,-72 406,-72 412,-78 412,-84 412,-84 412,-96 412,-96 412,-102 406,-108 400,-108"/>
<text text-anchor="middle" x="328" y="-87.5" font-family="sans" font-size="10.00">annotate_RegionsFocalCNAbed</text>
</g>
<!-- 3&#45;&gt;4 -->
<g id="edge7" class="edge"><title>3&#45;&gt;4</title>
<path fill="none" stroke="grey" stroke-width="2" d="M320.472,-143.697C321.574,-135.983 322.898,-126.712 324.127,-118.112"/>
<polygon fill="grey" stroke="grey" stroke-width="2" points="327.607,-118.499 325.557,-108.104 320.677,-117.509 327.607,-118.499"/>
</g>
<!-- 4&#45;&gt;15 -->
<g id="edge22" class="edge"><title>4&#45;&gt;15</title>
<path fill="none" stroke="grey" stroke-width="2" d="M314.157,-71.6966C307.511,-63.3893 299.422,-53.2771 292.113,-44.1407"/>
<polygon fill="grey" stroke="grey" stroke-width="2" points="294.664,-41.7266 285.683,-36.1043 289.197,-46.0995 294.664,-41.7266"/>
</g>
<!-- 5 -->
<g id="node6" class="node"><title>5</title>
<path fill="none" stroke="#56d8b1" stroke-width="2" d="M376,-396C376,-396 340,-396 340,-396 334,-396 328,-390 328,-384 328,-384 328,-372 328,-372 328,-366 334,-360 340,-360 340,-360 376,-360 376,-360 382,-360 388,-366 388,-372 388,-372 388,-384 388,-384 388,-390 382,-396 376,-396"/>
<text text-anchor="middle" x="358" y="-375.5" font-family="sans" font-size="10.00">CNA_call</text>
</g>
<!-- 6 -->
<g id="node7" class="node"><title>6</title>
<path fill="none" stroke="#d89c56" stroke-width="2" d="M278.5,-324C278.5,-324 153.5,-324 153.5,-324 147.5,-324 141.5,-318 141.5,-312 141.5,-312 141.5,-300 141.5,-300 141.5,-294 147.5,-288 153.5,-288 153.5,-288 278.5,-288 278.5,-288 284.5,-288 290.5,-294 290.5,-300 290.5,-300 290.5,-312 290.5,-312 290.5,-318 284.5,-324 278.5,-324"/>
<text text-anchor="middle" x="216" y="-303.5" font-family="sans" font-size="10.00">CNA_call_cellularity_based</text>
</g>
<!-- 5&#45;&gt;6 -->
<g id="edge9" class="edge"><title>5&#45;&gt;6</title>
<path fill="none" stroke="grey" stroke-width="2" d="M327.885,-362.155C308.082,-352.393 281.841,-339.457 259.75,-328.567"/>
<polygon fill="grey" stroke="grey" stroke-width="2" points="261.084,-325.322 250.567,-324.04 257.989,-331.601 261.084,-325.322"/>
</g>
<!-- 19 -->
<g id="node20" class="node"><title>19</title>
<path fill="none" stroke="#569ad8" stroke-width="2" d="M432.5,-252C432.5,-252 399.5,-252 399.5,-252 393.5,-252 387.5,-246 387.5,-240 387.5,-240 387.5,-228 387.5,-228 387.5,-222 393.5,-216 399.5,-216 399.5,-216 432.5,-216 432.5,-216 438.5,-216 444.5,-222 444.5,-228 444.5,-228 444.5,-240 444.5,-240 444.5,-246 438.5,-252 432.5,-252"/>
<text text-anchor="middle" x="416" y="-231.5" font-family="sans" font-size="10.00">lightBox</text>
</g>
<!-- 5&#45;&gt;19 -->
<g id="edge30" class="edge"><title>5&#45;&gt;19</title>
<path fill="none" stroke="grey" stroke-width="2" d="M364.996,-359.871C374.968,-335.457 393.361,-290.426 405.121,-261.635"/>
<polygon fill="grey" stroke="grey" stroke-width="2" points="408.438,-262.77 408.979,-252.189 401.958,-260.123 408.438,-262.77"/>
</g>
<!-- 10 -->
<g id="node11" class="node"><title>10</title>
<path fill="none" stroke="#ced856" stroke-width="2" d="M168.5,-252C168.5,-252 111.5,-252 111.5,-252 105.5,-252 99.5,-246 99.5,-240 99.5,-240 99.5,-228 99.5,-228 99.5,-222 105.5,-216 111.5,-216 111.5,-216 168.5,-216 168.5,-216 174.5,-216 180.5,-222 180.5,-228 180.5,-228 180.5,-240 180.5,-240 180.5,-246 174.5,-252 168.5,-252"/>
<text text-anchor="middle" x="140" y="-231.5" font-family="sans" font-size="10.00">CNA_bedfiles</text>
</g>
<!-- 6&#45;&gt;10 -->
<g id="edge14" class="edge"><title>6&#45;&gt;10</title>
<path fill="none" stroke="grey" stroke-width="2" d="M197.213,-287.697C187.826,-279.05 176.316,-268.449 166.087,-259.027"/>
<polygon fill="grey" stroke="grey" stroke-width="2" points="168.297,-256.305 158.57,-252.104 163.555,-261.454 168.297,-256.305"/>
</g>
<!-- 6&#45;&gt;15 -->
<g id="edge23" class="edge"><title>6&#45;&gt;15</title>
<path fill="none" stroke="grey" stroke-width="2" d="M214.429,-287.986C211.419,-248.62 207.379,-148.759 235,-72 238.497,-62.2824 244.261,-52.7021 250.211,-44.4163"/>
<polygon fill="grey" stroke="grey" stroke-width="2" points="253.118,-46.3753 256.391,-36.2986 247.549,-42.1351 253.118,-46.3753"/>
</g>
<!-- 6&#45;&gt;19 -->
<g id="edge31" class="edge"><title>6&#45;&gt;19</title>
<path fill="none" stroke="grey" stroke-width="2" d="M264.67,-287.966C299.459,-275.789 345.619,-259.633 377.773,-248.38"/>
<polygon fill="grey" stroke="grey" stroke-width="2" points="378.991,-251.661 387.273,-245.054 376.679,-245.054 378.991,-251.661"/>
</g>
<!-- 21 -->
<g id="node22" class="node"><title>21</title>
<path fill="none" stroke="#566bd8" stroke-width="2" d="M320,-252C320,-252 270,-252 270,-252 264,-252 258,-246 258,-240 258,-240 258,-228 258,-228 258,-222 264,-216 270,-216 270,-216 320,-216 320,-216 326,-216 332,-222 332,-228 332,-228 332,-240 332,-240 332,-246 326,-252 320,-252"/>
<text text-anchor="middle" x="295" y="-231.5" font-family="sans" font-size="10.00">CGHregions</text>
</g>
<!-- 6&#45;&gt;21 -->
<g id="edge34" class="edge"><title>6&#45;&gt;21</title>
<path fill="none" stroke="grey" stroke-width="2" d="M235.528,-287.697C245.382,-278.965 257.486,-268.24 268.196,-258.75"/>
<polygon fill="grey" stroke="grey" stroke-width="2" points="270.533,-261.356 275.697,-252.104 265.891,-256.117 270.533,-261.356"/>
</g>
<!-- 7 -->
<g id="node8" class="node"><title>7</title>
<path fill="none" stroke="#d8b456" stroke-width="2" d="M417.5,-468C417.5,-468 330.5,-468 330.5,-468 324.5,-468 318.5,-462 318.5,-456 318.5,-456 318.5,-444 318.5,-444 318.5,-438 324.5,-432 330.5,-432 330.5,-432 417.5,-432 417.5,-432 423.5,-432 429.5,-438 429.5,-444 429.5,-444 429.5,-456 429.5,-456 429.5,-462 423.5,-468 417.5,-468"/>
<text text-anchor="middle" x="374" y="-447.5" font-family="sans" font-size="10.00">QDNAseq_segment</text>
</g>
<!-- 7&#45;&gt;5 -->
<g id="edge8" class="edge"><title>7&#45;&gt;5</title>
<path fill="none" stroke="grey" stroke-width="2" d="M370.045,-431.697C368.282,-423.983 366.163,-414.712 364.197,-406.112"/>
<polygon fill="grey" stroke="grey" stroke-width="2" points="367.55,-405.073 361.91,-396.104 360.726,-406.633 367.55,-405.073"/>
</g>
<!-- 17 -->
<g id="node18" class="node"><title>17</title>
<path fill="none" stroke="#56b1d8" stroke-width="2" d="M112,-324C112,-324 12,-324 12,-324 6,-324 7.10543e-15,-318 7.10543e-15,-312 7.10543e-15,-312 7.10543e-15,-300 7.10543e-15,-300 7.10543e-15,-294 6,-288 12,-288 12,-288 112,-288 112,-288 118,-288 124,-294 124,-300 124,-300 124,-312 124,-312 124,-318 118,-324 112,-324"/>
<text text-anchor="middle" x="62" y="-303.5" font-family="sans" font-size="10.00">postanalysisloop_ACE</text>
</g>
<!-- 7&#45;&gt;17 -->
<g id="edge26" class="edge"><title>7&#45;&gt;17</title>
<path fill="none" stroke="grey" stroke-width="2" d="M318.479,-439.659C278.554,-431.573 224.19,-417.699 180,-396 145.18,-378.902 110.335,-350.961 87.6368,-330.946"/>
<polygon fill="grey" stroke="grey" stroke-width="2" points="89.9193,-328.292 80.1349,-324.228 85.2494,-333.506 89.9193,-328.292"/>
</g>
<!-- 18 -->
<g id="node19" class="node"><title>18</title>
<path fill="none" stroke="#70d856" stroke-width="2" d="M231,-396C231,-396 201,-396 201,-396 195,-396 189,-390 189,-384 189,-384 189,-372 189,-372 189,-366 195,-360 201,-360 201,-360 231,-360 231,-360 237,-360 243,-366 243,-372 243,-372 243,-384 243,-384 243,-390 237,-396 231,-396"/>
<text text-anchor="middle" x="216" y="-375.5" font-family="sans" font-size="10.00">ACE</text>
</g>
<!-- 7&#45;&gt;18 -->
<g id="edge27" class="edge"><title>7&#45;&gt;18</title>
<path fill="none" stroke="grey" stroke-width="2" d="M335.349,-431.876C310.185,-420.728 277.556,-406.272 252.775,-395.293"/>
<polygon fill="grey" stroke="grey" stroke-width="2" points="253.919,-391.971 243.358,-391.121 251.083,-398.371 253.919,-391.971"/>
</g>
<!-- 7&#45;&gt;19 -->
<g id="edge28" class="edge"><title>7&#45;&gt;19</title>
<path fill="none" stroke="grey" stroke-width="2" d="M382.992,-431.797C387.907,-421.646 393.657,-408.396 397,-396 409.38,-350.101 413.695,-294.682 415.198,-262.287"/>
<polygon fill="grey" stroke="grey" stroke-width="2" points="418.697,-262.365 415.607,-252.23 411.703,-262.08 418.697,-262.365"/>
</g>
<!-- 9 -->
<g id="node10" class="node"><title>9</title>
<path fill="none" stroke="#d8cb56" stroke-width="2" d="M533,-756C533,-756 459,-756 459,-756 453,-756 447,-750 447,-744 447,-744 447,-732 447,-732 447,-726 453,-720 459,-720 459,-720 533,-720 533,-720 539,-720 545,-726 545,-732 545,-732 545,-744 545,-744 545,-750 539,-756 533,-756"/>
<text text-anchor="middle" x="496" y="-735.5" font-family="sans" font-size="10.00">mark_duplicates</text>
</g>
<!-- 8&#45;&gt;9 -->
<g id="edge13" class="edge"><title>8&#45;&gt;9</title>
<path fill="none" stroke="grey" stroke-width="2" d="M496,-791.697C496,-783.983 496,-774.712 496,-766.112"/>
<polygon fill="grey" stroke="grey" stroke-width="2" points="499.5,-766.104 496,-756.104 492.5,-766.104 499.5,-766.104"/>
</g>
<!-- 9&#45;&gt;0 -->
<g id="edge1" class="edge"><title>9&#45;&gt;0</title>
<path fill="none" stroke="grey" stroke-width="2" d="M496,-719.871C496,-695.67 496,-651.211 496,-622.393"/>
<polygon fill="grey" stroke="grey" stroke-width="2" points="499.5,-622.189 496,-612.189 492.5,-622.189 499.5,-622.189"/>
</g>
<!-- 16 -->
<g id="node17" class="node"><title>16</title>
<path fill="none" stroke="#88d856" stroke-width="2" d="M448.5,-684C448.5,-684 331.5,-684 331.5,-684 325.5,-684 319.5,-678 319.5,-672 319.5,-672 319.5,-660 319.5,-660 319.5,-654 325.5,-648 331.5,-648 331.5,-648 448.5,-648 448.5,-648 454.5,-648 460.5,-654 460.5,-660 460.5,-660 460.5,-672 460.5,-672 460.5,-678 454.5,-684 448.5,-684"/>
<text text-anchor="middle" x="390" y="-663.5" font-family="sans" font-size="10.00">QDNAseq_binReadCounts</text>
</g>
<!-- 9&#45;&gt;16 -->
<g id="edge24" class="edge"><title>9&#45;&gt;16</title>
<path fill="none" stroke="grey" stroke-width="2" d="M470.069,-719.876C456.338,-710.808 439.294,-699.552 424.464,-689.759"/>
<polygon fill="grey" stroke="grey" stroke-width="2" points="426.304,-686.78 416.03,-684.19 422.446,-692.621 426.304,-686.78"/>
</g>
<!-- 20 -->
<g id="node21" class="node"><title>20</title>
<path fill="none" stroke="#56d882" stroke-width="2" d="M601.5,-540C601.5,-540 536.5,-540 536.5,-540 530.5,-540 524.5,-534 524.5,-528 524.5,-528 524.5,-516 524.5,-516 524.5,-510 530.5,-504 536.5,-504 536.5,-504 601.5,-504 601.5,-504 607.5,-504 613.5,-510 613.5,-516 613.5,-516 613.5,-528 613.5,-528 613.5,-534 607.5,-540 601.5,-540"/>
<text text-anchor="middle" x="569" y="-519.5" font-family="sans" font-size="10.00">generate_stats</text>
</g>
<!-- 9&#45;&gt;20 -->
<g id="edge33" class="edge"><title>9&#45;&gt;20</title>
<path fill="none" stroke="grey" stroke-width="2" d="M501.85,-719.849C514.531,-682.675 544.631,-594.439 559.851,-549.82"/>
<polygon fill="grey" stroke="grey" stroke-width="2" points="563.206,-550.827 563.122,-540.232 556.58,-548.567 563.206,-550.827"/>
</g>
<!-- 14 -->
<g id="node15" class="node"><title>14</title>
<path fill="none" stroke="#56d86b" stroke-width="2" d="M176,-108C176,-108 90,-108 90,-108 84,-108 78,-102 78,-96 78,-96 78,-84 78,-84 78,-78 84,-72 90,-72 90,-72 176,-72 176,-72 182,-72 188,-78 188,-84 188,-84 188,-96 188,-96 188,-102 182,-108 176,-108"/>
<text text-anchor="middle" x="133" y="-87.5" font-family="sans" font-size="10.00">annotate_focalCNA</text>
</g>
<!-- 10&#45;&gt;14 -->
<g id="edge17" class="edge"><title>10&#45;&gt;14</title>
<path fill="none" stroke="grey" stroke-width="2" d="M139.156,-215.871C137.963,-191.67 135.771,-147.211 134.35,-118.393"/>
<polygon fill="grey" stroke="grey" stroke-width="2" points="137.836,-118.005 133.847,-108.189 130.844,-118.349 137.836,-118.005"/>
</g>
<!-- 11 -->
<g id="node12" class="node"><title>11</title>
<path fill="none" stroke="#b6d856" stroke-width="2" d="M604,-252C604,-252 574,-252 574,-252 568,-252 562,-246 562,-240 562,-240 562,-228 562,-228 562,-222 568,-216 574,-216 574,-216 604,-216 604,-216 610,-216 616,-222 616,-228 616,-228 616,-240 616,-240 616,-246 610,-252 604,-252"/>
<text text-anchor="middle" x="589" y="-231.5" font-family="sans" font-size="10.00">qcfastq</text>
</g>
<!-- 11&#45;&gt;2 -->
<g id="edge4" class="edge"><title>11&#45;&gt;2</title>
<path fill="none" stroke="grey" stroke-width="2" d="M567,-215.697C555.791,-206.881 541.998,-196.032 529.846,-186.474"/>
<polygon fill="grey" stroke="grey" stroke-width="2" points="531.771,-183.535 521.747,-180.104 527.443,-189.038 531.771,-183.535"/>
</g>
<!-- 12 -->
<g id="node13" class="node"><title>12</title>
<path fill="none" stroke="#9fd856" stroke-width="2" d="M399,-540C399,-540 367,-540 367,-540 361,-540 355,-534 355,-528 355,-528 355,-516 355,-516 355,-510 361,-504 367,-504 367,-504 399,-504 399,-504 405,-504 411,-510 411,-516 411,-516 411,-528 411,-528 411,-534 405,-540 399,-540"/>
<text text-anchor="middle" x="383" y="-519.5" font-family="sans" font-size="10.00">deWave</text>
</g>
<!-- 12&#45;&gt;7 -->
<g id="edge11" class="edge"><title>12&#45;&gt;7</title>
<path fill="none" stroke="grey" stroke-width="2" d="M380.775,-503.697C379.783,-495.983 378.592,-486.712 377.486,-478.112"/>
<polygon fill="grey" stroke="grey" stroke-width="2" points="380.946,-477.576 376.199,-468.104 374.003,-478.469 380.946,-477.576"/>
</g>
<!-- 12&#45;&gt;19 -->
<g id="edge32" class="edge"><title>12&#45;&gt;19</title>
<path fill="none" stroke="grey" stroke-width="2" d="M408.38,-503.955C419.715,-494.786 431.878,-482.4 438,-468 467.642,-398.272 442.427,-306.498 426.546,-261.793"/>
<polygon fill="grey" stroke="grey" stroke-width="2" points="429.768,-260.415 423.034,-252.236 423.197,-262.829 429.768,-260.415"/>
</g>
<!-- 13 -->
<g id="node14" class="node"><title>13</title>
<path fill="none" stroke="#d88556" stroke-width="2" d="M429.5,-612C429.5,-612 336.5,-612 336.5,-612 330.5,-612 324.5,-606 324.5,-600 324.5,-600 324.5,-588 324.5,-588 324.5,-582 330.5,-576 336.5,-576 336.5,-576 429.5,-576 429.5,-576 435.5,-576 441.5,-582 441.5,-588 441.5,-588 441.5,-600 441.5,-600 441.5,-606 435.5,-612 429.5,-612"/>
<text text-anchor="middle" x="383" y="-591.5" font-family="sans" font-size="10.00">QDNAseq_normalize</text>
</g>
<!-- 13&#45;&gt;12 -->
<g id="edge15" class="edge"><title>13&#45;&gt;12</title>
<path fill="none" stroke="grey" stroke-width="2" d="M383,-575.697C383,-567.983 383,-558.712 383,-550.112"/>
<polygon fill="grey" stroke="grey" stroke-width="2" points="386.5,-550.104 383,-540.104 379.5,-550.104 386.5,-550.104"/>
</g>
<!-- 13&#45;&gt;19 -->
<g id="edge29" class="edge"><title>13&#45;&gt;19</title>
<path fill="none" stroke="grey" stroke-width="2" d="M370.058,-575.728C362.661,-565.555 353.411,-552.305 346,-540 327.438,-509.18 317.459,-502.969 309,-468 305.238,-452.449 307.897,-447.962 309,-432 311.228,-399.77 306.45,-389.77 319,-360 335.586,-320.658 367.788,-283.01 390.53,-259.502"/>
<polygon fill="grey" stroke="grey" stroke-width="2" points="393.312,-261.666 397.844,-252.09 388.329,-256.75 393.312,-261.666"/>
</g>
<!-- 14&#45;&gt;15 -->
<g id="edge19" class="edge"><title>14&#45;&gt;15</title>
<path fill="none" stroke="grey" stroke-width="2" d="M167.003,-71.8761C187.867,-61.3692 214.564,-47.9245 235.817,-37.2217"/>
<polygon fill="grey" stroke="grey" stroke-width="2" points="237.501,-40.2926 244.858,-32.6687 234.352,-34.0406 237.501,-40.2926"/>
</g>
<!-- 16&#45;&gt;13 -->
<g id="edge16" class="edge"><title>16&#45;&gt;13</title>
<path fill="none" stroke="grey" stroke-width="2" d="M388.27,-647.697C387.498,-639.983 386.571,-630.712 385.711,-622.112"/>
<polygon fill="grey" stroke="grey" stroke-width="2" points="389.188,-621.706 384.71,-612.104 382.223,-622.403 389.188,-621.706"/>
</g>
<!-- 17&#45;&gt;15 -->
<g id="edge20" class="edge"><title>17&#45;&gt;15</title>
<path fill="none" stroke="grey" stroke-width="2" d="M56.2877,-287.748C43.5286,-245.652 17.6826,-136.413 69,-72 89.4803,-46.2935 181.969,-30.4919 234.762,-23.4053"/>
<polygon fill="grey" stroke="grey" stroke-width="2" points="235.294,-26.8657 244.758,-22.1038 234.39,-19.9243 235.294,-26.8657"/>
</g>
<!-- 18&#45;&gt;6 -->
<g id="edge10" class="edge"><title>18&#45;&gt;6</title>
<path fill="none" stroke="grey" stroke-width="2" d="M216,-359.697C216,-351.983 216,-342.712 216,-334.112"/>
<polygon fill="grey" stroke="grey" stroke-width="2" points="219.5,-334.104 216,-324.104 212.5,-334.104 219.5,-334.104"/>
</g>
<!-- 18&#45;&gt;17 -->
<g id="edge25" class="edge"><title>18&#45;&gt;17</title>
<path fill="none" stroke="grey" stroke-width="2" d="M188.822,-364.647C166.751,-354.614 135.108,-340.231 108.952,-328.342"/>
<polygon fill="grey" stroke="grey" stroke-width="2" points="110.144,-325.039 99.5918,-324.087 107.247,-331.412 110.144,-325.039"/>
</g>
<!-- 19&#45;&gt;2 -->
<g id="edge5" class="edge"><title>19&#45;&gt;2</title>
<path fill="none" stroke="grey" stroke-width="2" d="M436.764,-215.697C447.241,-206.965 460.111,-196.24 471.5,-186.75"/>
<polygon fill="grey" stroke="grey" stroke-width="2" points="474.033,-189.195 479.475,-180.104 469.552,-183.817 474.033,-189.195"/>
</g>
<!-- 19&#45;&gt;15 -->
<g id="edge21" class="edge"><title>19&#45;&gt;15</title>
<path fill="none" stroke="grey" stroke-width="2" d="M422.672,-215.822C433.761,-184.14 451.877,-115.755 421,-72 395.966,-36.5248 345.003,-24.6535 309.698,-20.7614"/>
<polygon fill="grey" stroke="grey" stroke-width="2" points="309.571,-17.2346 299.29,-19.7924 308.922,-24.2045 309.571,-17.2346"/>
</g>
<!-- 20&#45;&gt;2 -->
<g id="edge3" class="edge"><title>20&#45;&gt;2</title>
<path fill="none" stroke="grey" stroke-width="2" d="M561.917,-503.848C551.69,-477.487 534,-425.211 534,-379 534,-379 534,-379 534,-305 534,-263.91 520.369,-217.925 510.369,-189.717"/>
<polygon fill="grey" stroke="grey" stroke-width="2" points="513.6,-188.362 506.88,-180.171 507.025,-190.765 513.6,-188.362"/>
</g>
<!-- 21&#45;&gt;3 -->
<g id="edge6" class="edge"><title>21&#45;&gt;3</title>
<path fill="none" stroke="grey" stroke-width="2" d="M300.685,-215.697C303.248,-207.898 306.333,-198.509 309.185,-189.829"/>
<polygon fill="grey" stroke="grey" stroke-width="2" points="312.584,-190.697 312.38,-180.104 305.933,-188.512 312.584,-190.697"/>
</g>
</g>
</svg>
