<?xml version="1.0" encoding="UTF-8" standalone="no"?>
<!DOCTYPE svg PUBLIC "-//W3C//DTD SVG 1.1//EN"
 "http://www.w3.org/Graphics/SVG/1.1/DTD/svg11.dtd">
<!-- Generated by graphviz version 2.42.3 (20191010.1750)
 -->
<!-- Title: snakemake_dag Pages: 1 -->
<svg width="886pt" height="923pt"
 viewBox="0.00 0.00 885.50 923.00" xmlns="http://www.w3.org/2000/svg" xmlns:xlink="http://www.w3.org/1999/xlink">
<g id="graph0" class="graph" transform="scale(1 1) rotate(0) translate(4 919)">
<title>snakemake_dag</title>
<polygon fill="white" stroke="transparent" points="-4,4 -4,-919 881.5,-919 881.5,4 -4,4"/>
<!-- 0 -->
<g id="node1" class="node">
<title>0</title>
<path fill="none" stroke="#566bd8" stroke-width="2" d="M410,-36C410,-36 380,-36 380,-36 374,-36 368,-30 368,-24 368,-24 368,-12 368,-12 368,-6 374,0 380,0 380,0 410,0 410,0 416,0 422,-6 422,-12 422,-12 422,-24 422,-24 422,-30 416,-36 410,-36"/>
<text text-anchor="middle" x="395" y="-15.5" font-family="sans" font-size="10.00">all</text>
</g>
<!-- 1 -->
<g id="node2" class="node">
<title>1</title>
<path fill="none" stroke="#d85656" stroke-width="2" d="M236,-110.5C236,-110.5 92,-110.5 92,-110.5 86,-110.5 80,-104.5 80,-98.5 80,-98.5 80,-86.5 80,-86.5 80,-80.5 86,-74.5 92,-74.5 92,-74.5 236,-74.5 236,-74.5 242,-74.5 248,-80.5 248,-86.5 248,-86.5 248,-98.5 248,-98.5 248,-104.5 242,-110.5 236,-110.5"/>
<text text-anchor="middle" x="164" y="-90" font-family="sans" font-size="10.00">annotate_RegionsFocalCNAbed</text>
</g>
<!-- 1&#45;&gt;0 -->
<g id="edge1" class="edge">
<title>1&#45;&gt;0</title>
<path fill="none" stroke="grey" stroke-width="2" d="M218.45,-74.41C261.55,-60.88 320.57,-42.36 358.25,-30.54"/>
<polygon fill="grey" stroke="grey" stroke-width="2" points="359.31,-33.87 367.81,-27.53 357.22,-27.19 359.31,-33.87"/>
</g>
<!-- 2 -->
<g id="node3" class="node">
<title>2</title>
<path fill="none" stroke="#56c9d8" stroke-width="2" d="M226,-187.5C226,-187.5 122,-187.5 122,-187.5 116,-187.5 110,-181.5 110,-175.5 110,-175.5 110,-163.5 110,-163.5 110,-157.5 116,-151.5 122,-151.5 122,-151.5 226,-151.5 226,-151.5 232,-151.5 238,-157.5 238,-163.5 238,-163.5 238,-175.5 238,-175.5 238,-181.5 232,-187.5 226,-187.5"/>
<text text-anchor="middle" x="174" y="-172.5" font-family="sans" font-size="10.00">makeCGHregionsTable</text>
<text text-anchor="middle" x="174" y="-161.5" font-family="sans" font-size="10.00">binSize: 100</text>
</g>
<!-- 2&#45;&gt;1 -->
<g id="edge8" class="edge">
<title>2&#45;&gt;1</title>
<path fill="none" stroke="grey" stroke-width="2" d="M171.73,-151.48C170.52,-142.44 169.01,-131.1 167.65,-120.85"/>
<polygon fill="grey" stroke="grey" stroke-width="2" points="171.09,-120.16 166.29,-110.71 164.15,-121.09 171.09,-120.16"/>
</g>
<!-- 3 -->
<g id="node4" class="node">
<title>3</title>
<path fill="none" stroke="#d89c56" stroke-width="2" d="M222,-262C222,-262 172,-262 172,-262 166,-262 160,-256 160,-250 160,-250 160,-238 160,-238 160,-232 166,-226 172,-226 172,-226 222,-226 222,-226 228,-226 234,-232 234,-238 234,-238 234,-250 234,-250 234,-256 228,-262 222,-262"/>
<text text-anchor="middle" x="197" y="-241.5" font-family="sans" font-size="10.00">CGHregions</text>
</g>
<!-- 3&#45;&gt;2 -->
<g id="edge9" class="edge">
<title>3&#45;&gt;2</title>
<path fill="none" stroke="grey" stroke-width="2" d="M191.55,-225.82C188.86,-217.33 185.55,-206.89 182.53,-197.38"/>
<polygon fill="grey" stroke="grey" stroke-width="2" points="185.77,-196.03 179.41,-187.56 179.1,-198.15 185.77,-196.03"/>
</g>
<!-- 4 -->
<g id="node5" class="node">
<title>4</title>
<path fill="none" stroke="#9fd856" stroke-width="2" d="M279.5,-334C279.5,-334 154.5,-334 154.5,-334 148.5,-334 142.5,-328 142.5,-322 142.5,-322 142.5,-310 142.5,-310 142.5,-304 148.5,-298 154.5,-298 154.5,-298 279.5,-298 279.5,-298 285.5,-298 291.5,-304 291.5,-310 291.5,-310 291.5,-322 291.5,-322 291.5,-328 285.5,-334 279.5,-334"/>
<text text-anchor="middle" x="217" y="-313.5" font-family="sans" font-size="10.00">CNA_call_cellularity_based</text>
</g>
<!-- 4&#45;&gt;0 -->
<g id="edge7" class="edge">
<title>4&#45;&gt;0</title>
<path fill="none" stroke="grey" stroke-width="2" d="M226.52,-297.7C231.86,-287.52 238.36,-274.27 243,-262 273.97,-180.11 240.27,-140.33 295,-72 311.08,-51.92 336.88,-38.51 358.24,-30.21"/>
<polygon fill="grey" stroke="grey" stroke-width="2" points="359.51,-33.47 367.69,-26.75 357.1,-26.9 359.51,-33.47"/>
</g>
<!-- 4&#45;&gt;3 -->
<g id="edge10" class="edge">
<title>4&#45;&gt;3</title>
<path fill="none" stroke="grey" stroke-width="2" d="M212.06,-297.7C209.83,-289.9 207.15,-280.51 204.67,-271.83"/>
<polygon fill="grey" stroke="grey" stroke-width="2" points="208,-270.76 201.89,-262.1 201.27,-272.68 208,-270.76"/>
</g>
<!-- 22 -->
<g id="node23" class="node">
<title>22</title>
<path fill="none" stroke="#56d86b" stroke-width="2" d="M473.5,-113C473.5,-113 316.5,-113 316.5,-113 310.5,-113 304.5,-107 304.5,-101 304.5,-101 304.5,-84 304.5,-84 304.5,-78 310.5,-72 316.5,-72 316.5,-72 473.5,-72 473.5,-72 479.5,-72 485.5,-78 485.5,-84 485.5,-84 485.5,-101 485.5,-101 485.5,-107 479.5,-113 473.5,-113"/>
<text text-anchor="middle" x="395" y="-101" font-family="sans" font-size="10.00">lightBox</text>
<text text-anchor="middle" x="395" y="-90" font-family="sans" font-size="10.00">binSize: 100</text>
<text text-anchor="middle" x="395" y="-79" font-family="sans" font-size="10.00">profiletype: call_cellularity_based</text>
</g>
<!-- 4&#45;&gt;22 -->
<g id="edge34" class="edge">
<title>4&#45;&gt;22</title>
<path fill="none" stroke="grey" stroke-width="2" d="M245.71,-297.9C260.07,-288.46 277.08,-275.87 290,-262 330.27,-218.78 363.68,-157.91 381.37,-122.39"/>
<polygon fill="grey" stroke="grey" stroke-width="2" points="384.67,-123.6 385.93,-113.08 378.39,-120.52 384.67,-123.6"/>
</g>
<!-- 24 -->
<g id="node25" class="node">
<title>24</title>
<path fill="none" stroke="#56d882" stroke-width="2" d="M451.5,-262C451.5,-262 394.5,-262 394.5,-262 388.5,-262 382.5,-256 382.5,-250 382.5,-250 382.5,-238 382.5,-238 382.5,-232 388.5,-226 394.5,-226 394.5,-226 451.5,-226 451.5,-226 457.5,-226 463.5,-232 463.5,-238 463.5,-238 463.5,-250 463.5,-250 463.5,-256 457.5,-262 451.5,-262"/>
<text text-anchor="middle" x="423" y="-241.5" font-family="sans" font-size="10.00">CNA_bedfiles</text>
</g>
<!-- 4&#45;&gt;24 -->
<g id="edge36" class="edge">
<title>4&#45;&gt;24</title>
<path fill="none" stroke="grey" stroke-width="2" d="M267.13,-297.97C299.18,-287.07 340.61,-273 372.7,-262.09"/>
<polygon fill="grey" stroke="grey" stroke-width="2" points="374,-265.35 382.34,-258.82 371.74,-258.72 374,-265.35"/>
</g>
<!-- 5 -->
<g id="node6" class="node">
<title>5</title>
<path fill="none" stroke="#88d856" stroke-width="2" d="M364,-408.5C364,-408.5 328,-408.5 328,-408.5 322,-408.5 316,-402.5 316,-396.5 316,-396.5 316,-384.5 316,-384.5 316,-378.5 322,-372.5 328,-372.5 328,-372.5 364,-372.5 364,-372.5 370,-372.5 376,-378.5 376,-384.5 376,-384.5 376,-396.5 376,-396.5 376,-402.5 370,-408.5 364,-408.5"/>
<text text-anchor="middle" x="346" y="-388" font-family="sans" font-size="10.00">CNA_call</text>
</g>
<!-- 5&#45;&gt;4 -->
<g id="edge11" class="edge">
<title>5&#45;&gt;4</title>
<path fill="none" stroke="grey" stroke-width="2" d="M315.76,-372.5C298.01,-362.53 275.4,-349.82 256.29,-339.08"/>
<polygon fill="grey" stroke="grey" stroke-width="2" points="257.93,-335.99 247.5,-334.14 254.51,-342.09 257.93,-335.99"/>
</g>
<!-- 18 -->
<g id="node19" class="node">
<title>18</title>
<path fill="none" stroke="#56d86b" stroke-width="2" d="M459,-334C459,-334 379,-334 379,-334 373,-334 367,-328 367,-322 367,-322 367,-310 367,-310 367,-304 373,-298 379,-298 379,-298 459,-298 459,-298 465,-298 471,-304 471,-310 471,-310 471,-322 471,-322 471,-328 465,-334 459,-334"/>
<text text-anchor="middle" x="419" y="-319" font-family="sans" font-size="10.00">lightBox</text>
<text text-anchor="middle" x="419" y="-308" font-family="sans" font-size="10.00">profiletype: called</text>
</g>
<!-- 5&#45;&gt;18 -->
<g id="edge31" class="edge">
<title>5&#45;&gt;18</title>
<path fill="none" stroke="grey" stroke-width="2" d="M363.3,-372.32C372.66,-363.02 384.38,-351.38 394.66,-341.18"/>
<polygon fill="grey" stroke="grey" stroke-width="2" points="397.2,-343.59 401.82,-334.06 392.26,-338.62 397.2,-343.59"/>
</g>
<!-- 6 -->
<g id="node7" class="node">
<title>6</title>
<path fill="none" stroke="#70d856" stroke-width="2" d="M412.5,-483C412.5,-483 325.5,-483 325.5,-483 319.5,-483 313.5,-477 313.5,-471 313.5,-471 313.5,-459 313.5,-459 313.5,-453 319.5,-447 325.5,-447 325.5,-447 412.5,-447 412.5,-447 418.5,-447 424.5,-453 424.5,-459 424.5,-459 424.5,-471 424.5,-471 424.5,-477 418.5,-483 412.5,-483"/>
<text text-anchor="middle" x="369" y="-462.5" font-family="sans" font-size="10.00">QDNAseq_segment</text>
</g>
<!-- 6&#45;&gt;5 -->
<g id="edge13" class="edge">
<title>6&#45;&gt;5</title>
<path fill="none" stroke="grey" stroke-width="2" d="M363.55,-446.82C360.86,-438.33 357.55,-427.89 354.53,-418.38"/>
<polygon fill="grey" stroke="grey" stroke-width="2" points="357.77,-417.03 351.41,-408.56 351.1,-419.15 357.77,-417.03"/>
</g>
<!-- 13 -->
<g id="node14" class="node">
<title>13</title>
<path fill="none" stroke="#56d8b1" stroke-width="2" d="M247.5,-411C247.5,-411 176.5,-411 176.5,-411 170.5,-411 164.5,-405 164.5,-399 164.5,-399 164.5,-382 164.5,-382 164.5,-376 170.5,-370 176.5,-370 176.5,-370 247.5,-370 247.5,-370 253.5,-370 259.5,-376 259.5,-382 259.5,-382 259.5,-399 259.5,-399 259.5,-405 253.5,-411 247.5,-411"/>
<text text-anchor="middle" x="212" y="-399" font-family="sans" font-size="10.00">ACE</text>
<text text-anchor="middle" x="212" y="-388" font-family="sans" font-size="10.00">ACEbinSize: 100</text>
<text text-anchor="middle" x="212" y="-377" font-family="sans" font-size="10.00">ploidy: 2</text>
</g>
<!-- 6&#45;&gt;13 -->
<g id="edge20" class="edge">
<title>6&#45;&gt;13</title>
<path fill="none" stroke="grey" stroke-width="2" d="M331.79,-446.82C311.48,-437.44 286.01,-425.68 263.79,-415.42"/>
<polygon fill="grey" stroke="grey" stroke-width="2" points="265.03,-412.13 254.49,-411.12 262.1,-418.49 265.03,-412.13"/>
</g>
<!-- 17 -->
<g id="node18" class="node">
<title>17</title>
<path fill="none" stroke="#56d86b" stroke-width="2" d="M512,-408.5C512,-408.5 406,-408.5 406,-408.5 400,-408.5 394,-402.5 394,-396.5 394,-396.5 394,-384.5 394,-384.5 394,-378.5 400,-372.5 406,-372.5 406,-372.5 512,-372.5 512,-372.5 518,-372.5 524,-378.5 524,-384.5 524,-384.5 524,-396.5 524,-396.5 524,-402.5 518,-408.5 512,-408.5"/>
<text text-anchor="middle" x="459" y="-393.5" font-family="sans" font-size="10.00">lightBox</text>
<text text-anchor="middle" x="459" y="-382.5" font-family="sans" font-size="10.00">profiletype: segmented</text>
</g>
<!-- 6&#45;&gt;17 -->
<g id="edge30" class="edge">
<title>6&#45;&gt;17</title>
<path fill="none" stroke="grey" stroke-width="2" d="M390.33,-446.82C402.1,-437.34 416.89,-425.43 429.72,-415.08"/>
<polygon fill="grey" stroke="grey" stroke-width="2" points="432.23,-417.56 437.82,-408.56 427.84,-412.11 432.23,-417.56"/>
</g>
<!-- 25 -->
<g id="node26" class="node">
<title>25</title>
<path fill="none" stroke="#b6d856" stroke-width="2" d="M112,-334C112,-334 12,-334 12,-334 6,-334 0,-328 0,-322 0,-322 0,-310 0,-310 0,-304 6,-298 12,-298 12,-298 112,-298 112,-298 118,-298 124,-304 124,-310 124,-310 124,-322 124,-322 124,-328 118,-334 112,-334"/>
<text text-anchor="middle" x="62" y="-313.5" font-family="sans" font-size="10.00">postanalysisloop_ACE</text>
</g>
<!-- 6&#45;&gt;25 -->
<g id="edge37" class="edge">
<title>6&#45;&gt;25</title>
<path fill="none" stroke="grey" stroke-width="2" d="M313.17,-458.6C268.08,-452.33 204.25,-438.99 155,-411 124.52,-393.68 97.31,-363.57 80.31,-342.09"/>
<polygon fill="grey" stroke="grey" stroke-width="2" points="82.98,-339.82 74.1,-334.05 77.44,-344.1 82.98,-339.82"/>
</g>
<!-- 7 -->
<g id="node8" class="node">
<title>7</title>
<path fill="none" stroke="#5682d8" stroke-width="2" d="M439,-555C439,-555 407,-555 407,-555 401,-555 395,-549 395,-543 395,-543 395,-531 395,-531 395,-525 401,-519 407,-519 407,-519 439,-519 439,-519 445,-519 451,-525 451,-531 451,-531 451,-543 451,-543 451,-549 445,-555 439,-555"/>
<text text-anchor="middle" x="423" y="-534.5" font-family="sans" font-size="10.00">deWave</text>
</g>
<!-- 7&#45;&gt;6 -->
<g id="edge14" class="edge">
<title>7&#45;&gt;6</title>
<path fill="none" stroke="grey" stroke-width="2" d="M409.65,-518.7C403.24,-510.39 395.44,-500.28 388.39,-491.14"/>
<polygon fill="grey" stroke="grey" stroke-width="2" points="391.07,-488.88 382.19,-483.1 385.53,-493.16 391.07,-488.88"/>
</g>
<!-- 19 -->
<g id="node20" class="node">
<title>19</title>
<path fill="none" stroke="#56d86b" stroke-width="2" d="M549.5,-483C549.5,-483 454.5,-483 454.5,-483 448.5,-483 442.5,-477 442.5,-471 442.5,-471 442.5,-459 442.5,-459 442.5,-453 448.5,-447 454.5,-447 454.5,-447 549.5,-447 549.5,-447 555.5,-447 561.5,-453 561.5,-459 561.5,-459 561.5,-471 561.5,-471 561.5,-477 555.5,-483 549.5,-483"/>
<text text-anchor="middle" x="502" y="-468" font-family="sans" font-size="10.00">lightBox</text>
<text text-anchor="middle" x="502" y="-457" font-family="sans" font-size="10.00">profiletype: dewaved</text>
</g>
<!-- 7&#45;&gt;19 -->
<g id="edge32" class="edge">
<title>7&#45;&gt;19</title>
<path fill="none" stroke="grey" stroke-width="2" d="M442.53,-518.7C452.38,-509.97 464.49,-499.24 475.2,-489.75"/>
<polygon fill="grey" stroke="grey" stroke-width="2" points="477.53,-492.36 482.7,-483.1 472.89,-487.12 477.53,-492.36"/>
</g>
<!-- 8 -->
<g id="node9" class="node">
<title>8</title>
<path fill="none" stroke="#d8cb56" stroke-width="2" d="M469.5,-627C469.5,-627 376.5,-627 376.5,-627 370.5,-627 364.5,-621 364.5,-615 364.5,-615 364.5,-603 364.5,-603 364.5,-597 370.5,-591 376.5,-591 376.5,-591 469.5,-591 469.5,-591 475.5,-591 481.5,-597 481.5,-603 481.5,-603 481.5,-615 481.5,-615 481.5,-621 475.5,-627 469.5,-627"/>
<text text-anchor="middle" x="423" y="-606.5" font-family="sans" font-size="10.00">QDNAseq_normalize</text>
</g>
<!-- 8&#45;&gt;7 -->
<g id="edge15" class="edge">
<title>8&#45;&gt;7</title>
<path fill="none" stroke="grey" stroke-width="2" d="M423,-590.7C423,-582.98 423,-573.71 423,-565.11"/>
<polygon fill="grey" stroke="grey" stroke-width="2" points="426.5,-565.1 423,-555.1 419.5,-565.1 426.5,-565.1"/>
</g>
<!-- 16 -->
<g id="node17" class="node">
<title>16</title>
<path fill="none" stroke="#56d86b" stroke-width="2" d="M344.5,-555C344.5,-555 247.5,-555 247.5,-555 241.5,-555 235.5,-549 235.5,-543 235.5,-543 235.5,-531 235.5,-531 235.5,-525 241.5,-519 247.5,-519 247.5,-519 344.5,-519 344.5,-519 350.5,-519 356.5,-525 356.5,-531 356.5,-531 356.5,-543 356.5,-543 356.5,-549 350.5,-555 344.5,-555"/>
<text text-anchor="middle" x="296" y="-540" font-family="sans" font-size="10.00">lightBox</text>
<text text-anchor="middle" x="296" y="-529" font-family="sans" font-size="10.00">profiletype: corrected</text>
</g>
<!-- 8&#45;&gt;16 -->
<g id="edge29" class="edge">
<title>8&#45;&gt;16</title>
<path fill="none" stroke="grey" stroke-width="2" d="M391.93,-590.88C375.17,-581.64 354.29,-570.13 336.3,-560.21"/>
<polygon fill="grey" stroke="grey" stroke-width="2" points="337.63,-556.95 327.19,-555.19 334.26,-563.08 337.63,-556.95"/>
</g>
<!-- 9 -->
<g id="node10" class="node">
<title>9</title>
<path fill="none" stroke="#ced856" stroke-width="2" d="M522.5,-699C522.5,-699 405.5,-699 405.5,-699 399.5,-699 393.5,-693 393.5,-687 393.5,-687 393.5,-675 393.5,-675 393.5,-669 399.5,-663 405.5,-663 405.5,-663 522.5,-663 522.5,-663 528.5,-663 534.5,-669 534.5,-675 534.5,-675 534.5,-687 534.5,-687 534.5,-693 528.5,-699 522.5,-699"/>
<text text-anchor="middle" x="464" y="-684" font-family="sans" font-size="10.00">QDNAseq_binReadCounts</text>
<text text-anchor="middle" x="464" y="-673" font-family="sans" font-size="10.00">binSize: 100</text>
</g>
<!-- 9&#45;&gt;8 -->
<g id="edge16" class="edge">
<title>9&#45;&gt;8</title>
<path fill="none" stroke="grey" stroke-width="2" d="M453.87,-662.7C449.15,-654.64 443.44,-644.89 438.22,-635.98"/>
<polygon fill="grey" stroke="grey" stroke-width="2" points="441.09,-633.96 433.02,-627.1 435.05,-637.5 441.09,-633.96"/>
</g>
<!-- 10 -->
<g id="node11" class="node">
<title>10</title>
<path fill="none" stroke="#569ad8" stroke-width="2" d="M627,-771C627,-771 553,-771 553,-771 547,-771 541,-765 541,-759 541,-759 541,-747 541,-747 541,-741 547,-735 553,-735 553,-735 627,-735 627,-735 633,-735 639,-741 639,-747 639,-747 639,-759 639,-759 639,-765 633,-771 627,-771"/>
<text text-anchor="middle" x="590" y="-750.5" font-family="sans" font-size="10.00">mark_duplicates</text>
</g>
<!-- 10&#45;&gt;9 -->
<g id="edge17" class="edge">
<title>10&#45;&gt;9</title>
<path fill="none" stroke="grey" stroke-width="2" d="M559.18,-734.88C542.55,-725.64 521.84,-714.13 503.98,-704.21"/>
<polygon fill="grey" stroke="grey" stroke-width="2" points="505.38,-700.99 494.94,-699.19 501.98,-707.11 505.38,-700.99"/>
</g>
<!-- 15 -->
<g id="node16" class="node">
<title>15</title>
<path fill="none" stroke="#56b1d8" stroke-width="2" d="M695.5,-627C695.5,-627 630.5,-627 630.5,-627 624.5,-627 618.5,-621 618.5,-615 618.5,-615 618.5,-603 618.5,-603 618.5,-597 624.5,-591 630.5,-591 630.5,-591 695.5,-591 695.5,-591 701.5,-591 707.5,-597 707.5,-603 707.5,-603 707.5,-615 707.5,-615 707.5,-621 701.5,-627 695.5,-627"/>
<text text-anchor="middle" x="663" y="-606.5" font-family="sans" font-size="10.00">generate_stats</text>
</g>
<!-- 10&#45;&gt;15 -->
<g id="edge28" class="edge">
<title>10&#45;&gt;15</title>
<path fill="none" stroke="grey" stroke-width="2" d="M602.92,-734.89C610.23,-724.78 619.23,-711.53 626,-699 636.89,-678.85 646.71,-654.8 653.5,-636.78"/>
<polygon fill="grey" stroke="grey" stroke-width="2" points="656.85,-637.8 657.03,-627.2 650.29,-635.37 656.85,-637.8"/>
</g>
<!-- 21 -->
<g id="node22" class="node">
<title>21</title>
<path fill="none" stroke="#59d856" stroke-width="2" d="M605,-699C605,-699 575,-699 575,-699 569,-699 563,-693 563,-687 563,-687 563,-675 563,-675 563,-669 569,-663 575,-663 575,-663 605,-663 605,-663 611,-663 617,-669 617,-675 617,-675 617,-687 617,-687 617,-693 611,-699 605,-699"/>
<text text-anchor="middle" x="590" y="-678.5" font-family="sans" font-size="10.00">qcbam</text>
</g>
<!-- 10&#45;&gt;21 -->
<g id="edge33" class="edge">
<title>10&#45;&gt;21</title>
<path fill="none" stroke="grey" stroke-width="2" d="M590,-734.7C590,-726.98 590,-717.71 590,-709.11"/>
<polygon fill="grey" stroke="grey" stroke-width="2" points="593.5,-709.1 590,-699.1 586.5,-709.1 593.5,-709.1"/>
</g>
<!-- 11 -->
<g id="node12" class="node">
<title>11</title>
<path fill="none" stroke="#56d8c9" stroke-width="2" d="M621,-843C621,-843 559,-843 559,-843 553,-843 547,-837 547,-831 547,-831 547,-819 547,-819 547,-813 553,-807 559,-807 559,-807 621,-807 621,-807 627,-807 633,-813 633,-819 633,-819 633,-831 633,-831 633,-837 627,-843 621,-843"/>
<text text-anchor="middle" x="590" y="-822.5" font-family="sans" font-size="10.00">samtools_sort</text>
</g>
<!-- 11&#45;&gt;10 -->
<g id="edge18" class="edge">
<title>11&#45;&gt;10</title>
<path fill="none" stroke="grey" stroke-width="2" d="M590,-806.7C590,-798.98 590,-789.71 590,-781.11"/>
<polygon fill="grey" stroke="grey" stroke-width="2" points="593.5,-781.1 590,-771.1 586.5,-781.1 593.5,-781.1"/>
</g>
<!-- 12 -->
<g id="node13" class="node">
<title>12</title>
<path fill="none" stroke="#d86e56" stroke-width="2" d="M616.5,-915C616.5,-915 563.5,-915 563.5,-915 557.5,-915 551.5,-909 551.5,-903 551.5,-903 551.5,-891 551.5,-891 551.5,-885 557.5,-879 563.5,-879 563.5,-879 616.5,-879 616.5,-879 622.5,-879 628.5,-885 628.5,-891 628.5,-891 628.5,-903 628.5,-903 628.5,-909 622.5,-915 616.5,-915"/>
<text text-anchor="middle" x="590" y="-900" font-family="sans" font-size="10.00">bwa_aln</text>
<text text-anchor="middle" x="590" y="-889" font-family="sans" font-size="10.00">sample: 003</text>
</g>
<!-- 12&#45;&gt;11 -->
<g id="edge19" class="edge">
<title>12&#45;&gt;11</title>
<path fill="none" stroke="grey" stroke-width="2" d="M590,-878.7C590,-870.98 590,-861.71 590,-853.11"/>
<polygon fill="grey" stroke="grey" stroke-width="2" points="593.5,-853.1 590,-843.1 586.5,-853.1 593.5,-853.1"/>
</g>
<!-- 13&#45;&gt;4 -->
<g id="edge12" class="edge">
<title>13&#45;&gt;4</title>
<path fill="none" stroke="grey" stroke-width="2" d="M213.37,-369.69C213.9,-361.91 214.53,-352.84 215.11,-344.45"/>
<polygon fill="grey" stroke="grey" stroke-width="2" points="218.61,-344.54 215.81,-334.32 211.63,-344.05 218.61,-344.54"/>
</g>
<!-- 13&#45;&gt;25 -->
<g id="edge38" class="edge">
<title>13&#45;&gt;25</title>
<path fill="none" stroke="grey" stroke-width="2" d="M171.41,-369.88C151.39,-360.21 127.21,-348.52 106.67,-338.59"/>
<polygon fill="grey" stroke="grey" stroke-width="2" points="108.04,-335.37 97.52,-334.17 105,-341.67 108.04,-335.37"/>
</g>
<!-- 14 -->
<g id="node15" class="node">
<title>14</title>
<path fill="none" stroke="#d88556" stroke-width="2" d="M571.5,-262C571.5,-262 532.5,-262 532.5,-262 526.5,-262 520.5,-256 520.5,-250 520.5,-250 520.5,-238 520.5,-238 520.5,-232 526.5,-226 532.5,-226 532.5,-226 571.5,-226 571.5,-226 577.5,-226 583.5,-232 583.5,-238 583.5,-238 583.5,-250 583.5,-250 583.5,-256 577.5,-262 571.5,-262"/>
<text text-anchor="middle" x="552" y="-241.5" font-family="sans" font-size="10.00">summary</text>
</g>
<!-- 14&#45;&gt;0 -->
<g id="edge2" class="edge">
<title>14&#45;&gt;0</title>
<path fill="none" stroke="grey" stroke-width="2" d="M552.57,-225.81C552.78,-192.35 548.64,-117.72 511,-72 491.12,-47.86 457.87,-34.22 432.04,-26.85"/>
<polygon fill="grey" stroke="grey" stroke-width="2" points="432.77,-23.42 422.2,-24.23 430.97,-30.18 432.77,-23.42"/>
</g>
<!-- 15&#45;&gt;14 -->
<g id="edge21" class="edge">
<title>15&#45;&gt;14</title>
<path fill="none" stroke="grey" stroke-width="2" d="M655.92,-590.85C645.69,-564.49 628,-512.21 628,-466 628,-466 628,-466 628,-389.5 628,-347.46 624.75,-334.56 604,-298 598,-287.42 589.35,-277.44 580.83,-269.05"/>
<polygon fill="grey" stroke="grey" stroke-width="2" points="583.13,-266.41 573.45,-262.12 578.34,-271.52 583.13,-266.41"/>
</g>
<!-- 16&#45;&gt;14 -->
<g id="edge22" class="edge">
<title>16&#45;&gt;14</title>
<path fill="none" stroke="grey" stroke-width="2" d="M294.15,-518.9C291.47,-488.1 288.64,-421.71 307,-370 320.12,-333.05 325.87,-320.48 358,-298 370.56,-289.21 457.24,-267.52 510.4,-254.78"/>
<polygon fill="grey" stroke="grey" stroke-width="2" points="511.32,-258.16 520.23,-252.44 509.69,-251.35 511.32,-258.16"/>
</g>
<!-- 17&#45;&gt;14 -->
<g id="edge23" class="edge">
<title>17&#45;&gt;14</title>
<path fill="none" stroke="grey" stroke-width="2" d="M470.03,-372.36C486.25,-347.15 516.65,-299.92 535.52,-270.6"/>
<polygon fill="grey" stroke="grey" stroke-width="2" points="538.51,-272.42 540.98,-262.12 532.63,-268.64 538.51,-272.42"/>
</g>
<!-- 18&#45;&gt;14 -->
<g id="edge24" class="edge">
<title>18&#45;&gt;14</title>
<path fill="none" stroke="grey" stroke-width="2" d="M451.54,-297.88C469.51,-288.41 492.01,-276.57 511.16,-266.49"/>
<polygon fill="grey" stroke="grey" stroke-width="2" points="513.04,-269.46 520.26,-261.71 509.78,-263.27 513.04,-269.46"/>
</g>
<!-- 19&#45;&gt;14 -->
<g id="edge25" class="edge">
<title>19&#45;&gt;14</title>
<path fill="none" stroke="grey" stroke-width="2" d="M514.58,-446.74C521.18,-436.78 528.75,-423.74 533,-411 548.57,-364.27 551.84,-306.5 552.28,-272.89"/>
<polygon fill="grey" stroke="grey" stroke-width="2" points="555.79,-272.49 552.34,-262.47 548.79,-272.45 555.79,-272.49"/>
</g>
<!-- 20 -->
<g id="node21" class="node">
<title>20</title>
<path fill="none" stroke="#56d89a" stroke-width="2" d="M865.5,-334C865.5,-334 668.5,-334 668.5,-334 662.5,-334 656.5,-328 656.5,-322 656.5,-322 656.5,-310 656.5,-310 656.5,-304 662.5,-298 668.5,-298 668.5,-298 865.5,-298 865.5,-298 871.5,-298 877.5,-304 877.5,-310 877.5,-310 877.5,-322 877.5,-322 877.5,-328 871.5,-334 865.5,-334"/>
<text text-anchor="middle" x="767" y="-319" font-family="sans" font-size="10.00">qcfastq</text>
<text text-anchor="middle" x="767" y="-308" font-family="sans" font-size="10.00">sample: 003_R2_I3_repeat_lib_S1_R1_001</text>
</g>
<!-- 20&#45;&gt;0 -->
<g id="edge5" class="edge">
<title>20&#45;&gt;0</title>
<path fill="none" stroke="grey" stroke-width="2" d="M755.07,-297.74C724.04,-254.03 636.28,-137.76 537,-72 504.52,-50.49 462.12,-36.13 432.13,-27.85"/>
<polygon fill="grey" stroke="grey" stroke-width="2" points="432.64,-24.36 422.08,-25.17 430.84,-31.13 432.64,-24.36"/>
</g>
<!-- 20&#45;&gt;14 -->
<g id="edge26" class="edge">
<title>20&#45;&gt;14</title>
<path fill="none" stroke="grey" stroke-width="2" d="M714.68,-297.97C677.35,-285.81 627.83,-269.69 593.28,-258.44"/>
<polygon fill="grey" stroke="grey" stroke-width="2" points="594.1,-255.03 583.5,-255.26 591.93,-261.68 594.1,-255.03"/>
</g>
<!-- 21&#45;&gt;14 -->
<g id="edge27" class="edge">
<title>21&#45;&gt;14</title>
<path fill="none" stroke="grey" stroke-width="2" d="M590,-662.95C590,-636.29 590,-583.11 590,-538 590,-538 590,-538 590,-389.5 590,-347.27 574.63,-300.31 563.44,-271.72"/>
<polygon fill="grey" stroke="grey" stroke-width="2" points="566.67,-270.37 559.69,-262.41 560.18,-272.99 566.67,-270.37"/>
</g>
<!-- 22&#45;&gt;0 -->
<g id="edge3" class="edge">
<title>22&#45;&gt;0</title>
<path fill="none" stroke="grey" stroke-width="2" d="M395,-71.69C395,-63.91 395,-54.84 395,-46.45"/>
<polygon fill="grey" stroke="grey" stroke-width="2" points="398.5,-46.32 395,-36.32 391.5,-46.32 398.5,-46.32"/>
</g>
<!-- 23 -->
<g id="node24" class="node">
<title>23</title>
<path fill="none" stroke="#d8b456" stroke-width="2" d="M489,-190C489,-190 403,-190 403,-190 397,-190 391,-184 391,-178 391,-178 391,-161 391,-161 391,-155 397,-149 403,-149 403,-149 489,-149 489,-149 495,-149 501,-155 501,-161 501,-161 501,-178 501,-178 501,-184 495,-190 489,-190"/>
<text text-anchor="middle" x="446" y="-178" font-family="sans" font-size="10.00">annotate_focalCNA</text>
<text text-anchor="middle" x="446" y="-167" font-family="sans" font-size="10.00">binSize: 100</text>
<text text-anchor="middle" x="446" y="-156" font-family="sans" font-size="10.00">sample: 003</text>
</g>
<!-- 23&#45;&gt;0 -->
<g id="edge4" class="edge">
<title>23&#45;&gt;0</title>
<path fill="none" stroke="grey" stroke-width="2" d="M469.24,-148.78C478.86,-139.1 488.93,-126.61 494,-113 500.36,-95.92 503.36,-87.63 494,-72 480.56,-49.56 454.02,-36.09 431.8,-28.34"/>
<polygon fill="grey" stroke="grey" stroke-width="2" points="432.87,-25.01 422.28,-25.27 430.72,-31.67 432.87,-25.01"/>
</g>
<!-- 24&#45;&gt;23 -->
<g id="edge35" class="edge">
<title>24&#45;&gt;23</title>
<path fill="none" stroke="grey" stroke-width="2" d="M428.45,-225.82C430.92,-218.03 433.91,-208.6 436.72,-199.75"/>
<polygon fill="grey" stroke="grey" stroke-width="2" points="440.09,-200.71 439.78,-190.12 433.42,-198.59 440.09,-200.71"/>
</g>
<!-- 25&#45;&gt;0 -->
<g id="edge6" class="edge">
<title>25&#45;&gt;0</title>
<path fill="none" stroke="grey" stroke-width="2" d="M56.21,-297.96C42.56,-254.25 13.61,-137.06 71,-72 108.23,-29.8 280.79,-21.17 357.76,-19.43"/>
<polygon fill="grey" stroke="grey" stroke-width="2" points="358.04,-22.92 367.97,-19.22 357.9,-15.92 358.04,-22.92"/>
</g>
</g>
</svg>
