<?xml version="1.0" encoding="UTF-8" standalone="no"?>
<!DOCTYPE svg PUBLIC "-//W3C//DTD SVG 1.1//EN"
 "http://www.w3.org/Graphics/SVG/1.1/DTD/svg11.dtd">
<!-- Generated by graphviz version 2.42.3 (20191010.1750)
 -->
<!-- Title: snakemake_dag Pages: 1 -->
<svg width="619pt" height="908pt"
 viewBox="0.00 0.00 618.86 908.00" xmlns="http://www.w3.org/2000/svg" xmlns:xlink="http://www.w3.org/1999/xlink">
<g id="graph0" class="graph" transform="scale(1 1) rotate(0) translate(4 904)">
<title>snakemake_dag</title>
<polygon fill="white" stroke="transparent" points="-4,4 -4,-904 614.86,-904 614.86,4 -4,4"/>
<!-- 0 -->
<g id="node1" class="node">
<title>0</title>
<path fill="none" stroke="#56d8c9" stroke-width="2" d="M284.5,-36C284.5,-36 254.5,-36 254.5,-36 248.5,-36 242.5,-30 242.5,-24 242.5,-24 242.5,-12 242.5,-12 242.5,-6 248.5,0 254.5,0 254.5,0 284.5,0 284.5,0 290.5,0 296.5,-6 296.5,-12 296.5,-12 296.5,-24 296.5,-24 296.5,-30 290.5,-36 284.5,-36"/>
<text text-anchor="middle" x="269.5" y="-15.5" font-family="sans" font-size="10.00">all</text>
</g>
<!-- 1 -->
<g id="node2" class="node">
<title>1</title>
<path fill="none" stroke="#56d86b" stroke-width="2" d="M97,-180C97,-180 58,-180 58,-180 52,-180 46,-174 46,-168 46,-168 46,-156 46,-156 46,-150 52,-144 58,-144 58,-144 97,-144 97,-144 103,-144 109,-150 109,-156 109,-156 109,-168 109,-168 109,-174 103,-180 97,-180"/>
<text text-anchor="middle" x="77.5" y="-159.5" font-family="sans" font-size="10.00">summary</text>
</g>
<!-- 1&#45;&gt;0 -->
<g id="edge4" class="edge">
<title>1&#45;&gt;0</title>
<path fill="none" stroke="grey" stroke-width="2" d="M82.18,-143.87C88.45,-123.98 101.42,-91.4 123.5,-72 154.39,-44.85 200.28,-31.24 232.35,-24.67"/>
<polygon fill="grey" stroke="grey" stroke-width="2" points="233.07,-28.1 242.24,-22.78 231.76,-21.22 233.07,-28.1"/>
</g>
<!-- 2 -->
<g id="node3" class="node">
<title>2</title>
<path fill="none" stroke="#56d882" stroke-width="2" d="M77,-612C77,-612 12,-612 12,-612 6,-612 0,-606 0,-600 0,-600 0,-588 0,-588 0,-582 6,-576 12,-576 12,-576 77,-576 77,-576 83,-576 89,-582 89,-588 89,-588 89,-600 89,-600 89,-606 83,-612 77,-612"/>
<text text-anchor="middle" x="44.5" y="-591.5" font-family="sans" font-size="10.00">generate_stats</text>
</g>
<!-- 2&#45;&gt;1 -->
<g id="edge9" class="edge">
<title>2&#45;&gt;1</title>
<path fill="none" stroke="grey" stroke-width="2" d="M44.5,-575.95C44.5,-549.29 44.5,-496.11 44.5,-451 44.5,-451 44.5,-451 44.5,-305 44.5,-263.97 57.73,-217.97 67.44,-189.74"/>
<polygon fill="grey" stroke="grey" stroke-width="2" points="70.78,-190.78 70.82,-180.19 64.18,-188.45 70.78,-190.78"/>
</g>
<!-- 3 -->
<g id="node4" class="node">
<title>3</title>
<path fill="none" stroke="#566bd8" stroke-width="2" d="M202.5,-756C202.5,-756 128.5,-756 128.5,-756 122.5,-756 116.5,-750 116.5,-744 116.5,-744 116.5,-732 116.5,-732 116.5,-726 122.5,-720 128.5,-720 128.5,-720 202.5,-720 202.5,-720 208.5,-720 214.5,-726 214.5,-732 214.5,-732 214.5,-744 214.5,-744 214.5,-750 208.5,-756 202.5,-756"/>
<text text-anchor="middle" x="165.5" y="-735.5" font-family="sans" font-size="10.00">mark_duplicates</text>
</g>
<!-- 3&#45;&gt;2 -->
<g id="edge13" class="edge">
<title>3&#45;&gt;2</title>
<path fill="none" stroke="grey" stroke-width="2" d="M131.18,-719.95C115.68,-710.93 98.08,-698.67 85.5,-684 69.92,-665.83 59.08,-640.74 52.48,-621.84"/>
<polygon fill="grey" stroke="grey" stroke-width="2" points="55.79,-620.71 49.32,-612.32 49.15,-622.91 55.79,-620.71"/>
</g>
<!-- 8 -->
<g id="node9" class="node">
<title>8</title>
<path fill="none" stroke="#d88556" stroke-width="2" d="M224,-684C224,-684 107,-684 107,-684 101,-684 95,-678 95,-672 95,-672 95,-660 95,-660 95,-654 101,-648 107,-648 107,-648 224,-648 224,-648 230,-648 236,-654 236,-660 236,-660 236,-672 236,-672 236,-678 230,-684 224,-684"/>
<text text-anchor="middle" x="165.5" y="-663.5" font-family="sans" font-size="10.00">QDNAseq_binReadCounts</text>
</g>
<!-- 3&#45;&gt;8 -->
<g id="edge22" class="edge">
<title>3&#45;&gt;8</title>
<path fill="none" stroke="grey" stroke-width="2" d="M165.5,-719.7C165.5,-711.98 165.5,-702.71 165.5,-694.11"/>
<polygon fill="grey" stroke="grey" stroke-width="2" points="169,-694.1 165.5,-684.1 162,-694.1 169,-694.1"/>
</g>
<!-- 13 -->
<g id="node14" class="node">
<title>13</title>
<path fill="none" stroke="#d8cb56" stroke-width="2" d="M262.5,-252C262.5,-252 232.5,-252 232.5,-252 226.5,-252 220.5,-246 220.5,-240 220.5,-240 220.5,-228 220.5,-228 220.5,-222 226.5,-216 232.5,-216 232.5,-216 262.5,-216 262.5,-216 268.5,-216 274.5,-222 274.5,-228 274.5,-228 274.5,-240 274.5,-240 274.5,-246 268.5,-252 262.5,-252"/>
<text text-anchor="middle" x="247.5" y="-231.5" font-family="sans" font-size="10.00">qcbam</text>
</g>
<!-- 3&#45;&gt;13 -->
<g id="edge26" class="edge">
<title>3&#45;&gt;13</title>
<path fill="none" stroke="grey" stroke-width="2" d="M214.53,-730.06C284.2,-717.11 403.5,-682.21 403.5,-595 403.5,-595 403.5,-595 403.5,-377 403.5,-336.64 411.97,-318.46 385.5,-288 355.87,-253.91 331.13,-268.24 284.24,-251.86"/>
<polygon fill="grey" stroke="grey" stroke-width="2" points="285.48,-248.58 274.89,-248.29 282.98,-255.12 285.48,-248.58"/>
</g>
<!-- 4 -->
<g id="node5" class="node">
<title>4</title>
<path fill="none" stroke="#59d856" stroke-width="2" d="M196.5,-828C196.5,-828 134.5,-828 134.5,-828 128.5,-828 122.5,-822 122.5,-816 122.5,-816 122.5,-804 122.5,-804 122.5,-798 128.5,-792 134.5,-792 134.5,-792 196.5,-792 196.5,-792 202.5,-792 208.5,-798 208.5,-804 208.5,-804 208.5,-816 208.5,-816 208.5,-822 202.5,-828 196.5,-828"/>
<text text-anchor="middle" x="165.5" y="-807.5" font-family="sans" font-size="10.00">samtools_sort</text>
</g>
<!-- 4&#45;&gt;3 -->
<g id="edge14" class="edge">
<title>4&#45;&gt;3</title>
<path fill="none" stroke="grey" stroke-width="2" d="M165.5,-791.7C165.5,-783.98 165.5,-774.71 165.5,-766.11"/>
<polygon fill="grey" stroke="grey" stroke-width="2" points="169,-766.1 165.5,-756.1 162,-766.1 169,-766.1"/>
</g>
<!-- 5 -->
<g id="node6" class="node">
<title>5</title>
<path fill="none" stroke="#5682d8" stroke-width="2" d="M182,-900C182,-900 149,-900 149,-900 143,-900 137,-894 137,-888 137,-888 137,-876 137,-876 137,-870 143,-864 149,-864 149,-864 182,-864 182,-864 188,-864 194,-870 194,-876 194,-876 194,-888 194,-888 194,-894 188,-900 182,-900"/>
<text text-anchor="middle" x="165.5" y="-879.5" font-family="sans" font-size="10.00">bwa_aln</text>
</g>
<!-- 5&#45;&gt;4 -->
<g id="edge15" class="edge">
<title>5&#45;&gt;4</title>
<path fill="none" stroke="grey" stroke-width="2" d="M165.5,-863.7C165.5,-855.98 165.5,-846.71 165.5,-838.11"/>
<polygon fill="grey" stroke="grey" stroke-width="2" points="169,-838.1 165.5,-828.1 162,-838.1 169,-838.1"/>
</g>
<!-- 6 -->
<g id="node7" class="node">
<title>6</title>
<path fill="none" stroke="#d86e56" stroke-width="2" d="M118,-252C118,-252 85,-252 85,-252 79,-252 73,-246 73,-240 73,-240 73,-228 73,-228 73,-222 79,-216 85,-216 85,-216 118,-216 118,-216 124,-216 130,-222 130,-228 130,-228 130,-240 130,-240 130,-246 124,-252 118,-252"/>
<text text-anchor="middle" x="101.5" y="-231.5" font-family="sans" font-size="10.00">lightBox</text>
</g>
<!-- 6&#45;&gt;0 -->
<g id="edge5" class="edge">
<title>6&#45;&gt;0</title>
<path fill="none" stroke="grey" stroke-width="2" d="M109.83,-215.72C125.29,-184.75 160.65,-118.68 202.5,-72 212.3,-61.07 224.54,-50.67 235.86,-42.02"/>
<polygon fill="grey" stroke="grey" stroke-width="2" points="237.96,-44.83 243.9,-36.05 233.78,-39.21 237.96,-44.83"/>
</g>
<!-- 6&#45;&gt;1 -->
<g id="edge11" class="edge">
<title>6&#45;&gt;1</title>
<path fill="none" stroke="grey" stroke-width="2" d="M95.57,-215.7C92.89,-207.9 89.67,-198.51 86.7,-189.83"/>
<polygon fill="grey" stroke="grey" stroke-width="2" points="89.92,-188.43 83.36,-180.1 83.3,-190.7 89.92,-188.43"/>
</g>
<!-- 7 -->
<g id="node8" class="node">
<title>7</title>
<path fill="none" stroke="#56c9d8" stroke-width="2" d="M212,-612C212,-612 119,-612 119,-612 113,-612 107,-606 107,-600 107,-600 107,-588 107,-588 107,-582 113,-576 119,-576 119,-576 212,-576 212,-576 218,-576 224,-582 224,-588 224,-588 224,-600 224,-600 224,-606 218,-612 212,-612"/>
<text text-anchor="middle" x="165.5" y="-591.5" font-family="sans" font-size="10.00">QDNAseq_normalize</text>
</g>
<!-- 7&#45;&gt;6 -->
<g id="edge16" class="edge">
<title>7&#45;&gt;6</title>
<path fill="none" stroke="grey" stroke-width="2" d="M148.14,-575.93C124.61,-550.89 85.5,-501.65 85.5,-451 85.5,-451 85.5,-451 85.5,-377 85.5,-336.96 91.86,-290.97 96.56,-262.45"/>
<polygon fill="grey" stroke="grey" stroke-width="2" points="100.04,-262.86 98.26,-252.42 93.14,-261.69 100.04,-262.86"/>
</g>
<!-- 10 -->
<g id="node11" class="node">
<title>10</title>
<path fill="none" stroke="#d8b456" stroke-width="2" d="M181.5,-540C181.5,-540 149.5,-540 149.5,-540 143.5,-540 137.5,-534 137.5,-528 137.5,-528 137.5,-516 137.5,-516 137.5,-510 143.5,-504 149.5,-504 149.5,-504 181.5,-504 181.5,-504 187.5,-504 193.5,-510 193.5,-516 193.5,-516 193.5,-528 193.5,-528 193.5,-534 187.5,-540 181.5,-540"/>
<text text-anchor="middle" x="165.5" y="-519.5" font-family="sans" font-size="10.00">deWave</text>
</g>
<!-- 7&#45;&gt;10 -->
<g id="edge24" class="edge">
<title>7&#45;&gt;10</title>
<path fill="none" stroke="grey" stroke-width="2" d="M165.5,-575.7C165.5,-567.98 165.5,-558.71 165.5,-550.11"/>
<polygon fill="grey" stroke="grey" stroke-width="2" points="169,-550.1 165.5,-540.1 162,-550.1 169,-550.1"/>
</g>
<!-- 8&#45;&gt;7 -->
<g id="edge21" class="edge">
<title>8&#45;&gt;7</title>
<path fill="none" stroke="grey" stroke-width="2" d="M165.5,-647.7C165.5,-639.98 165.5,-630.71 165.5,-622.11"/>
<polygon fill="grey" stroke="grey" stroke-width="2" points="169,-622.1 165.5,-612.1 162,-622.1 169,-622.1"/>
</g>
<!-- 9 -->
<g id="node10" class="node">
<title>9</title>
<path fill="none" stroke="#56b1d8" stroke-width="2" d="M289,-468C289,-468 202,-468 202,-468 196,-468 190,-462 190,-456 190,-456 190,-444 190,-444 190,-438 196,-432 202,-432 202,-432 289,-432 289,-432 295,-432 301,-438 301,-444 301,-444 301,-456 301,-456 301,-462 295,-468 289,-468"/>
<text text-anchor="middle" x="245.5" y="-447.5" font-family="sans" font-size="10.00">QDNAseq_segment</text>
</g>
<!-- 9&#45;&gt;6 -->
<g id="edge18" class="edge">
<title>9&#45;&gt;6</title>
<path fill="none" stroke="grey" stroke-width="2" d="M228.13,-431.61C218.57,-421.61 206.8,-408.58 197.5,-396 164.21,-350.99 132.31,-293.78 114.97,-261.08"/>
<polygon fill="grey" stroke="grey" stroke-width="2" points="118.02,-259.37 110.27,-252.15 111.83,-262.63 118.02,-259.37"/>
</g>
<!-- 11 -->
<g id="node12" class="node">
<title>11</title>
<path fill="none" stroke="#56d8b1" stroke-width="2" d="M254.5,-396C254.5,-396 218.5,-396 218.5,-396 212.5,-396 206.5,-390 206.5,-384 206.5,-384 206.5,-372 206.5,-372 206.5,-366 212.5,-360 218.5,-360 218.5,-360 254.5,-360 254.5,-360 260.5,-360 266.5,-366 266.5,-372 266.5,-372 266.5,-384 266.5,-384 266.5,-390 260.5,-396 254.5,-396"/>
<text text-anchor="middle" x="236.5" y="-375.5" font-family="sans" font-size="10.00">CNA_call</text>
</g>
<!-- 9&#45;&gt;11 -->
<g id="edge25" class="edge">
<title>9&#45;&gt;11</title>
<path fill="none" stroke="grey" stroke-width="2" d="M243.28,-431.7C242.28,-423.98 241.09,-414.71 239.99,-406.11"/>
<polygon fill="grey" stroke="grey" stroke-width="2" points="243.45,-405.58 238.7,-396.1 236.5,-406.47 243.45,-405.58"/>
</g>
<!-- 18 -->
<g id="node19" class="node">
<title>18</title>
<path fill="none" stroke="#ced856" stroke-width="2" d="M326.5,-396C326.5,-396 296.5,-396 296.5,-396 290.5,-396 284.5,-390 284.5,-384 284.5,-384 284.5,-372 284.5,-372 284.5,-366 290.5,-360 296.5,-360 296.5,-360 326.5,-360 326.5,-360 332.5,-360 338.5,-366 338.5,-372 338.5,-372 338.5,-384 338.5,-384 338.5,-390 332.5,-396 326.5,-396"/>
<text text-anchor="middle" x="311.5" y="-375.5" font-family="sans" font-size="10.00">ACE</text>
</g>
<!-- 9&#45;&gt;18 -->
<g id="edge32" class="edge">
<title>9&#45;&gt;18</title>
<path fill="none" stroke="grey" stroke-width="2" d="M261.81,-431.7C269.81,-423.22 279.57,-412.86 288.32,-403.58"/>
<polygon fill="grey" stroke="grey" stroke-width="2" points="291.06,-405.78 295.37,-396.1 285.97,-400.98 291.06,-405.78"/>
</g>
<!-- 21 -->
<g id="node22" class="node">
<title>21</title>
<path fill="none" stroke="#b6d856" stroke-width="2" d="M543.5,-324C543.5,-324 443.5,-324 443.5,-324 437.5,-324 431.5,-318 431.5,-312 431.5,-312 431.5,-300 431.5,-300 431.5,-294 437.5,-288 443.5,-288 443.5,-288 543.5,-288 543.5,-288 549.5,-288 555.5,-294 555.5,-300 555.5,-300 555.5,-312 555.5,-312 555.5,-318 549.5,-324 543.5,-324"/>
<text text-anchor="middle" x="493.5" y="-303.5" font-family="sans" font-size="10.00">postanalysisloop_ACE</text>
</g>
<!-- 9&#45;&gt;21 -->
<g id="edge36" class="edge">
<title>9&#45;&gt;21</title>
<path fill="none" stroke="grey" stroke-width="2" d="M279.81,-431.91C299.75,-421.79 325.25,-408.54 347.5,-396 385.82,-374.4 428.69,-347.99 458.01,-329.57"/>
<polygon fill="grey" stroke="grey" stroke-width="2" points="460.05,-332.42 466.65,-324.13 456.32,-326.5 460.05,-332.42"/>
</g>
<!-- 10&#45;&gt;6 -->
<g id="edge17" class="edge">
<title>10&#45;&gt;6</title>
<path fill="none" stroke="grey" stroke-width="2" d="M161.69,-503.97C151,-456.19 120.66,-320.62 107.6,-262.27"/>
<polygon fill="grey" stroke="grey" stroke-width="2" points="110.97,-261.3 105.37,-252.31 104.14,-262.83 110.97,-261.3"/>
</g>
<!-- 10&#45;&gt;9 -->
<g id="edge23" class="edge">
<title>10&#45;&gt;9</title>
<path fill="none" stroke="grey" stroke-width="2" d="M185.28,-503.7C195.25,-494.97 207.51,-484.24 218.36,-474.75"/>
<polygon fill="grey" stroke="grey" stroke-width="2" points="220.73,-477.32 225.95,-468.1 216.12,-472.06 220.73,-477.32"/>
</g>
<!-- 11&#45;&gt;6 -->
<g id="edge19" class="edge">
<title>11&#45;&gt;6</title>
<path fill="none" stroke="grey" stroke-width="2" d="M227.25,-359.97C216.45,-341.04 197.26,-310.21 175.5,-288 164.54,-276.81 150.97,-266.34 138.46,-257.71"/>
<polygon fill="grey" stroke="grey" stroke-width="2" points="140.27,-254.71 130.01,-252.04 136.37,-260.52 140.27,-254.71"/>
</g>
<!-- 17 -->
<g id="node18" class="node">
<title>17</title>
<path fill="none" stroke="#70d856" stroke-width="2" d="M364,-324C364,-324 239,-324 239,-324 233,-324 227,-318 227,-312 227,-312 227,-300 227,-300 227,-294 233,-288 239,-288 239,-288 364,-288 364,-288 370,-288 376,-294 376,-300 376,-300 376,-312 376,-312 376,-318 370,-324 364,-324"/>
<text text-anchor="middle" x="301.5" y="-303.5" font-family="sans" font-size="10.00">CNA_call_cellularity_based</text>
</g>
<!-- 11&#45;&gt;17 -->
<g id="edge31" class="edge">
<title>11&#45;&gt;17</title>
<path fill="none" stroke="grey" stroke-width="2" d="M252.57,-359.7C260.44,-351.22 270.06,-340.86 278.67,-331.58"/>
<polygon fill="grey" stroke="grey" stroke-width="2" points="281.38,-333.81 285.62,-324.1 276.25,-329.05 281.38,-333.81"/>
</g>
<!-- 12 -->
<g id="node13" class="node">
<title>12</title>
<path fill="none" stroke="#d85656" stroke-width="2" d="M190.5,-252C190.5,-252 160.5,-252 160.5,-252 154.5,-252 148.5,-246 148.5,-240 148.5,-240 148.5,-228 148.5,-228 148.5,-222 154.5,-216 160.5,-216 160.5,-216 190.5,-216 190.5,-216 196.5,-216 202.5,-222 202.5,-228 202.5,-228 202.5,-240 202.5,-240 202.5,-246 196.5,-252 190.5,-252"/>
<text text-anchor="middle" x="175.5" y="-231.5" font-family="sans" font-size="10.00">qcfastq</text>
</g>
<!-- 12&#45;&gt;0 -->
<g id="edge3" class="edge">
<title>12&#45;&gt;0</title>
<path fill="none" stroke="grey" stroke-width="2" d="M178,-215.59C182.95,-184.97 195.89,-120.17 222.5,-72 228.15,-61.78 236.07,-51.85 243.8,-43.4"/>
<polygon fill="grey" stroke="grey" stroke-width="2" points="246.41,-45.74 250.78,-36.1 241.34,-40.91 246.41,-45.74"/>
</g>
<!-- 12&#45;&gt;1 -->
<g id="edge10" class="edge">
<title>12&#45;&gt;1</title>
<path fill="none" stroke="grey" stroke-width="2" d="M151.53,-215.88C138.95,-206.89 123.37,-195.76 109.75,-186.03"/>
<polygon fill="grey" stroke="grey" stroke-width="2" points="111.74,-183.15 101.57,-180.19 107.67,-188.85 111.74,-183.15"/>
</g>
<!-- 13&#45;&gt;0 -->
<g id="edge1" class="edge">
<title>13&#45;&gt;0</title>
<path fill="none" stroke="grey" stroke-width="2" d="M241.54,-215.61C232.18,-185.57 216.67,-122.34 232.5,-72 235.6,-62.15 241.25,-52.53 247.22,-44.25"/>
<polygon fill="grey" stroke="grey" stroke-width="2" points="250.13,-46.21 253.46,-36.15 244.59,-41.94 250.13,-46.21"/>
</g>
<!-- 13&#45;&gt;1 -->
<g id="edge12" class="edge">
<title>13&#45;&gt;1</title>
<path fill="none" stroke="grey" stroke-width="2" d="M220.46,-220C217.45,-218.62 214.42,-217.26 211.5,-216 180.63,-202.62 145.21,-188.67 118.55,-178.45"/>
<polygon fill="grey" stroke="grey" stroke-width="2" points="119.73,-175.15 109.14,-174.85 117.24,-181.69 119.73,-175.15"/>
</g>
<!-- 14 -->
<g id="node15" class="node">
<title>14</title>
<path fill="none" stroke="#88d856" stroke-width="2" d="M397.5,-108C397.5,-108 253.5,-108 253.5,-108 247.5,-108 241.5,-102 241.5,-96 241.5,-96 241.5,-84 241.5,-84 241.5,-78 247.5,-72 253.5,-72 253.5,-72 397.5,-72 397.5,-72 403.5,-72 409.5,-78 409.5,-84 409.5,-84 409.5,-96 409.5,-96 409.5,-102 403.5,-108 397.5,-108"/>
<text text-anchor="middle" x="325.5" y="-87.5" font-family="sans" font-size="10.00">annotate_RegionsFocalCNAbed</text>
</g>
<!-- 14&#45;&gt;0 -->
<g id="edge6" class="edge">
<title>14&#45;&gt;0</title>
<path fill="none" stroke="grey" stroke-width="2" d="M311.66,-71.7C305.01,-63.39 296.92,-53.28 289.61,-44.14"/>
<polygon fill="grey" stroke="grey" stroke-width="2" points="292.16,-41.73 283.18,-36.1 286.7,-46.1 292.16,-41.73"/>
</g>
<!-- 15 -->
<g id="node16" class="node">
<title>15</title>
<path fill="none" stroke="#569ad8" stroke-width="2" d="M379.5,-180C379.5,-180 275.5,-180 275.5,-180 269.5,-180 263.5,-174 263.5,-168 263.5,-168 263.5,-156 263.5,-156 263.5,-150 269.5,-144 275.5,-144 275.5,-144 379.5,-144 379.5,-144 385.5,-144 391.5,-150 391.5,-156 391.5,-156 391.5,-168 391.5,-168 391.5,-174 385.5,-180 379.5,-180"/>
<text text-anchor="middle" x="327.5" y="-159.5" font-family="sans" font-size="10.00">makeCGHregionsTable</text>
</g>
<!-- 15&#45;&gt;14 -->
<g id="edge27" class="edge">
<title>15&#45;&gt;14</title>
<path fill="none" stroke="grey" stroke-width="2" d="M327.01,-143.7C326.79,-135.98 326.52,-126.71 326.27,-118.11"/>
<polygon fill="grey" stroke="grey" stroke-width="2" points="329.77,-118 325.99,-108.1 322.78,-118.2 329.77,-118"/>
</g>
<!-- 16 -->
<g id="node17" class="node">
<title>16</title>
<path fill="none" stroke="#9fd856" stroke-width="2" d="M354.5,-252C354.5,-252 304.5,-252 304.5,-252 298.5,-252 292.5,-246 292.5,-240 292.5,-240 292.5,-228 292.5,-228 292.5,-222 298.5,-216 304.5,-216 304.5,-216 354.5,-216 354.5,-216 360.5,-216 366.5,-222 366.5,-228 366.5,-228 366.5,-240 366.5,-240 366.5,-246 360.5,-252 354.5,-252"/>
<text text-anchor="middle" x="329.5" y="-231.5" font-family="sans" font-size="10.00">CGHregions</text>
</g>
<!-- 16&#45;&gt;15 -->
<g id="edge28" class="edge">
<title>16&#45;&gt;15</title>
<path fill="none" stroke="grey" stroke-width="2" d="M329.01,-215.7C328.79,-207.98 328.52,-198.71 328.27,-190.11"/>
<polygon fill="grey" stroke="grey" stroke-width="2" points="331.77,-190 327.99,-180.1 324.78,-190.2 331.77,-190"/>
</g>
<!-- 17&#45;&gt;0 -->
<g id="edge7" class="edge">
<title>17&#45;&gt;0</title>
<path fill="none" stroke="grey" stroke-width="2" d="M333.84,-287.96C348.3,-278.94 364.53,-266.68 375.5,-252 424.73,-186.11 465.92,-139.2 418.5,-72 393.47,-36.52 342.5,-24.65 307.2,-20.76"/>
<polygon fill="grey" stroke="grey" stroke-width="2" points="307.07,-17.23 296.79,-19.79 306.42,-24.2 307.07,-17.23"/>
</g>
<!-- 17&#45;&gt;6 -->
<g id="edge20" class="edge">
<title>17&#45;&gt;6</title>
<path fill="none" stroke="grey" stroke-width="2" d="M244.38,-287.92C215.38,-278.87 179.5,-267.12 139.77,-251.92"/>
<polygon fill="grey" stroke="grey" stroke-width="2" points="141,-248.65 130.41,-248.31 138.48,-255.18 141,-248.65"/>
</g>
<!-- 17&#45;&gt;16 -->
<g id="edge29" class="edge">
<title>17&#45;&gt;16</title>
<path fill="none" stroke="grey" stroke-width="2" d="M308.42,-287.7C311.57,-279.81 315.38,-270.3 318.88,-261.55"/>
<polygon fill="grey" stroke="grey" stroke-width="2" points="322.19,-262.69 322.66,-252.1 315.69,-260.09 322.19,-262.69"/>
</g>
<!-- 20 -->
<g id="node21" class="node">
<title>20</title>
<path fill="none" stroke="#56d89a" stroke-width="2" d="M539,-252C539,-252 482,-252 482,-252 476,-252 470,-246 470,-240 470,-240 470,-228 470,-228 470,-222 476,-216 482,-216 482,-216 539,-216 539,-216 545,-216 551,-222 551,-228 551,-228 551,-240 551,-240 551,-246 545,-252 539,-252"/>
<text text-anchor="middle" x="510.5" y="-231.5" font-family="sans" font-size="10.00">CNA_bedfiles</text>
</g>
<!-- 17&#45;&gt;20 -->
<g id="edge34" class="edge">
<title>17&#45;&gt;20</title>
<path fill="none" stroke="grey" stroke-width="2" d="M352.36,-287.97C385.1,-277 427.48,-262.81 460.13,-251.87"/>
<polygon fill="grey" stroke="grey" stroke-width="2" points="461.55,-255.09 469.92,-248.59 459.33,-248.45 461.55,-255.09"/>
</g>
<!-- 18&#45;&gt;17 -->
<g id="edge30" class="edge">
<title>18&#45;&gt;17</title>
<path fill="none" stroke="grey" stroke-width="2" d="M309.03,-359.7C307.93,-351.98 306.6,-342.71 305.37,-334.11"/>
<polygon fill="grey" stroke="grey" stroke-width="2" points="308.82,-333.51 303.94,-324.1 301.89,-334.5 308.82,-333.51"/>
</g>
<!-- 18&#45;&gt;21 -->
<g id="edge35" class="edge">
<title>18&#45;&gt;21</title>
<path fill="none" stroke="grey" stroke-width="2" d="M338.75,-366.52C365.28,-356.31 406.35,-340.52 439.51,-327.76"/>
<polygon fill="grey" stroke="grey" stroke-width="2" points="441,-330.94 449.08,-324.08 438.49,-324.41 441,-330.94"/>
</g>
<!-- 19 -->
<g id="node20" class="node">
<title>19</title>
<path fill="none" stroke="#d89c56" stroke-width="2" d="M563.5,-108C563.5,-108 477.5,-108 477.5,-108 471.5,-108 465.5,-102 465.5,-96 465.5,-96 465.5,-84 465.5,-84 465.5,-78 471.5,-72 477.5,-72 477.5,-72 563.5,-72 563.5,-72 569.5,-72 575.5,-78 575.5,-84 575.5,-84 575.5,-96 575.5,-96 575.5,-102 569.5,-108 563.5,-108"/>
<text text-anchor="middle" x="520.5" y="-87.5" font-family="sans" font-size="10.00">annotate_focalCNA</text>
</g>
<!-- 19&#45;&gt;0 -->
<g id="edge8" class="edge">
<title>19&#45;&gt;0</title>
<path fill="none" stroke="grey" stroke-width="2" d="M465.42,-73.64C417.16,-60.18 348.36,-40.99 306.44,-29.3"/>
<polygon fill="grey" stroke="grey" stroke-width="2" points="307.22,-25.88 296.64,-26.57 305.34,-32.63 307.22,-25.88"/>
</g>
<!-- 20&#45;&gt;19 -->
<g id="edge33" class="edge">
<title>20&#45;&gt;19</title>
<path fill="none" stroke="grey" stroke-width="2" d="M511.71,-215.87C513.41,-191.67 516.54,-147.21 518.57,-118.39"/>
<polygon fill="grey" stroke="grey" stroke-width="2" points="522.08,-118.41 519.29,-108.19 515.1,-117.92 522.08,-118.41"/>
</g>
<!-- 21&#45;&gt;0 -->
<g id="edge2" class="edge">
<title>21&#45;&gt;0</title>
<path fill="none" stroke="grey" stroke-width="2" d="M524.19,-287.84C537.43,-278.87 551.83,-266.69 560.5,-252 601.53,-182.5 636.62,-133.62 584.5,-72 549.27,-30.35 382.14,-21.41 306.65,-19.51"/>
<polygon fill="grey" stroke="grey" stroke-width="2" points="306.71,-16.01 296.63,-19.28 306.55,-23.01 306.71,-16.01"/>
</g>
</g>
</svg>
